<svg display="none" version="1.1" xmlns="http://www.w3.org/2000/svg" xmlns:xlink="http://www.w3.org/1999/xlink">
<defs>
<symbol id="main-cache" viewBox="0 296 476 133">
<title>spades</title>
<g id="main-cache" transform="translate(0.000000, 296.000000)">
    <path d="M26.504,25.384 C26.504,26.4666721 26.4853335,27.5866609 26.448,28.744 C26.4106665,29.9013391 26.2986676,31.0213279 26.112,32.104 C25.9253324,33.1866721 25.6266687,34.2133285 25.216,35.184 C24.8053313,36.1546715 24.2453369,36.9946631 23.536,37.704 C22.7146626,38.5253374 21.6786729,39.169331 20.428,39.636 C19.1773271,40.102669 17.8426738,40.336 16.424,40.336 C14.8559922,40.336 13.5026724,40.102669 12.364,39.636 C11.2253276,39.169331 10.152005,38.3760056 9.144,37.256 L9.144,40 L2.088,40 L2.088,0.128 L9.368,0.128 L9.368,13.4 C10.3386715,12.3173279 11.3839944,11.5613355 12.504,11.132 C13.6240056,10.7026645 14.9306592,10.488 16.424,10.488 C17.8426738,10.488 19.1773271,10.721331 20.428,11.188 C21.6786729,11.654669 22.7146626,12.2986626 23.536,13.12 C24.2453369,13.8666704 24.8053313,14.7159952 25.216,15.668 C25.6266687,16.6200048 25.9253324,17.6373279 26.112,18.72 C26.2986676,19.8026721 26.4106665,20.9133276 26.448,22.052 C26.4853335,23.1906724 26.504,24.3013279 26.504,25.384 L26.504,25.384 Z M19.224,25.384 C19.224,24.1893274 19.1680006,23.088005 19.056,22.08 C18.9439994,21.071995 18.7200017,20.1946704 18.384,19.448 C18.0479983,18.7013296 17.5533366,18.1133355 16.9,17.684 C16.2466634,17.2546645 15.3786721,17.04 14.296,17.04 C13.2133279,17.04 12.3453366,17.2546645 11.692,17.684 C11.0386634,18.1133355 10.5440017,18.7013296 10.208,19.448 C9.87199832,20.1946704 9.64800056,21.071995 9.536,22.08 C9.42399944,23.088005 9.368,24.1893274 9.368,25.384 C9.368,26.5786726 9.42399944,27.6893282 9.536,28.716 C9.64800056,29.7426718 9.87199832,30.6293296 10.208,31.376 C10.5440017,32.1226704 11.0386634,32.7106645 11.692,33.14 C12.3453366,33.5693355 13.2133279,33.784 14.296,33.784 C15.3786721,33.784 16.2466634,33.5693355 16.9,33.14 C17.5533366,32.7106645 18.0479983,32.1226704 18.384,31.376 C18.7200017,30.6293296 18.9439994,29.7426718 19.056,28.716 C19.1680006,27.6893282 19.224,26.5786726 19.224,25.384 L19.224,25.384 Z M49.296,18.776 C48.7359972,18.2159972 48.1760028,17.7866682 47.616,17.488 C47.0559972,17.1893318 46.3280045,17.04 45.432,17.04 C44.8719972,17.04 44.3120028,17.1426656 43.752,17.348 C43.1919972,17.5533344 42.6880022,17.8799978 42.24,18.328 C41.7919978,18.7760022 41.4280014,19.3359966 41.148,20.008 C40.8679986,20.6800034 40.728,21.482662 40.728,22.416 L40.728,40 L33.448,40 L33.448,10.824 L40.56,10.824 L40.56,13.624 C41.2693369,12.765329 42.2773268,12.0280031 43.584,11.412 C44.8906732,10.7959969 46.3279922,10.488 47.896,10.488 C49.3146738,10.488 50.5653279,10.6933313 51.648,11.104 C52.7306721,11.5146687 53.775995,12.223995 54.784,13.232 L49.296,18.776 Z M73.88,40 L73.88,37.48 C72.9093285,38.4506715 71.8920053,39.1599978 70.828,39.608 C69.7639947,40.0560022 68.3920084,40.28 66.712,40.28 C63.4639838,40.28 60.9813419,39.4213419 59.264,37.704 C58.4799961,36.8826626 57.8826687,35.9120056 57.472,34.792 C57.0613313,33.6719944 56.856,32.4586732 56.856,31.152 C56.856,29.9946609 57.0613313,28.9026718 57.472,27.876 C57.8826687,26.8493282 58.4986626,25.9533372 59.32,25.188 C60.1413374,24.4226628 61.1773271,23.8160022 62.428,23.368 C63.6786729,22.9199978 65.1439916,22.696 66.824,22.696 L73.712,22.696 L73.712,21.24 C73.712,19.6346586 73.2920042,18.4680036 72.452,17.74 C71.6119958,17.0119964 70.221343,16.648 68.28,16.648 C67.5706631,16.648 66.9546693,16.6946662 66.432,16.788 C65.9093307,16.8813338 65.4333355,17.0213324 65.004,17.208 C64.5746645,17.3946676 64.1733352,17.6373318 63.8,17.936 C63.4266648,18.2346682 63.0533352,18.6079978 62.68,19.056 L58.032,14.52 C59.4506738,12.9519922 60.9533254,11.8880028 62.54,11.328 C64.1266746,10.7679972 66.1333212,10.488 68.56,10.488 C72.6666872,10.488 75.7653229,11.3466581 77.856,13.064 C79.9466771,14.7813419 80.992,17.3573162 80.992,20.792 L80.992,40 L73.88,40 Z M73.712,27.68 L67.944,27.68 C66.6373268,27.68 65.6293369,27.9693304 64.92,28.548 C64.2106631,29.1266696 63.856,29.9386614 63.856,30.984 C63.856,31.992005 64.2013299,32.8039969 64.892,33.42 C65.5826701,34.0360031 66.6373262,34.344 68.056,34.344 C69.064005,34.344 69.9226631,34.2693341 70.632,34.12 C71.3413369,33.9706659 72.0133302,33.5786698 72.648,32.944 C73.3573369,32.2719966 73.712,31.040009 73.712,29.248 L73.712,27.68 Z M105.8,40 L105.8,22.36 C105.8,21.351995 105.660001,20.5120034 105.38,19.84 C105.099999,19.1679966 104.726669,18.6266687 104.26,18.216 C103.793331,17.8053313 103.27067,17.5066676 102.692,17.32 C102.11333,17.1333324 101.544003,17.04 100.984,17.04 C100.423997,17.04 99.8546696,17.1333324 99.276,17.32 C98.6973304,17.5066676 98.174669,17.8053313 97.708,18.216 C97.241331,18.6266687 96.8586682,19.1679966 96.56,19.84 C96.2613318,20.5120034 96.112,21.351995 96.112,22.36 L96.112,40 L88.832,40 L88.832,10.824 L95.944,10.824 L95.944,13.512 C96.9146715,12.503995 98.0346603,11.7480025 99.304,11.244 C100.57334,10.7399975 101.879993,10.488 103.224,10.488 C104.680007,10.488 105.986661,10.7119978 107.144,11.16 C108.301339,11.6080022 109.290663,12.2426626 110.112,13.064 C111.306673,14.2586726 112.099998,15.5373265 112.492,16.9 C112.884002,18.2626735 113.08,19.7466586 113.08,21.352 L113.08,40 L105.8,40 Z M137.048,40 L137.048,37.256 C136.039995,38.3760056 134.976006,39.169331 133.856,39.636 C132.735994,40.102669 131.392008,40.336 129.824,40.336 C128.405326,40.336 127.06134,40.102669 125.792,39.636 C124.52266,39.169331 123.477337,38.5253374 122.656,37.704 C121.90933,36.9946631 121.340002,36.1546715 120.948,35.184 C120.555998,34.2133285 120.266668,33.1866721 120.08,32.104 C119.893332,31.0213279 119.781334,29.9013391 119.744,28.744 C119.706666,27.5866609 119.688,26.4666721 119.688,25.384 C119.688,24.3013279 119.706666,23.1906724 119.744,22.052 C119.781334,20.9133276 119.893332,19.8026721 120.08,18.72 C120.266668,17.6373279 120.555998,16.6200048 120.948,15.668 C121.340002,14.7159952 121.90933,13.8666704 122.656,13.12 C123.477337,12.2986626 124.513327,11.654669 125.764,11.188 C127.014673,10.721331 128.349326,10.488 129.768,10.488 C131.261341,10.488 132.577328,10.7026645 133.716,11.132 C134.854672,11.5613355 135.909328,12.3173279 136.88,13.4 L136.88,0.128 L144.16,0.128 L144.16,40 L137.048,40 Z M136.88,25.384 C136.88,24.1893274 136.824001,23.088005 136.712,22.08 C136.599999,21.071995 136.366668,20.1946704 136.012,19.448 C135.657332,18.7013296 135.153337,18.1133355 134.5,17.684 C133.846663,17.2546645 132.978672,17.04 131.896,17.04 C130.813328,17.04 129.945337,17.2546645 129.292,17.684 C128.638663,18.1133355 128.144002,18.7013296 127.808,19.448 C127.471998,20.1946704 127.248001,21.071995 127.136,22.08 C127.023999,23.088005 126.968,24.1893274 126.968,25.384 C126.968,26.5786726 127.023999,27.6893282 127.136,28.716 C127.248001,29.7426718 127.471998,30.6293296 127.808,31.376 C128.144002,32.1226704 128.638663,32.7106645 129.292,33.14 C129.945337,33.5693355 130.813328,33.784 131.896,33.784 C132.978672,33.784 133.846663,33.5693355 134.5,33.14 C135.153337,32.7106645 135.657332,32.1226704 136.012,31.376 C136.366668,30.6293296 136.599999,29.7426718 136.712,28.716 C136.824001,27.6893282 136.88,26.5786726 136.88,25.384 L136.88,25.384 Z M187.28,30.816 C187.28,32.4213414 186.96267,33.8213274 186.328,35.016 C185.69333,36.2106726 184.816006,37.1999961 183.696,37.984 C182.575994,38.7680039 181.260008,39.355998 179.748,39.748 C178.235992,40.140002 176.621342,40.336 174.904,40.336 C173.746661,40.336 172.626672,40.2893338 171.544,40.196 C170.461328,40.1026662 169.397339,39.9066682 168.352,39.608 C167.306661,39.3093318 166.298672,38.889336 165.328,38.348 C164.357328,37.806664 163.405338,37.069338 162.472,36.136 L167.232,31.376 C168.426673,32.5706726 169.742659,33.3266651 171.18,33.644 C172.617341,33.9613349 173.895994,34.12 175.016,34.12 C175.65067,34.12 176.275997,34.0640006 176.892,33.952 C177.508003,33.8399994 178.058664,33.6626679 178.544,33.42 C179.029336,33.1773321 179.421332,32.8693352 179.72,32.496 C180.018668,32.1226648 180.168,31.6560028 180.168,31.096 C180.168,30.3493296 179.944002,29.742669 179.496,29.276 C179.047998,28.809331 178.245339,28.5200006 177.088,28.408 L172.496,27.96 C169.84532,27.6986654 167.764008,26.9426729 166.252,25.692 C164.739992,24.4413271 163.984,22.4720134 163.984,19.784 C163.984,18.2906592 164.291997,16.9653391 164.908,15.808 C165.524003,14.6506609 166.345328,13.6800039 167.372,12.896 C168.398672,12.1119961 169.593327,11.5146687 170.956,11.104 C172.318673,10.6933313 173.746659,10.488 175.24,10.488 C177.517345,10.488 179.589324,10.7306642 181.456,11.216 C183.322676,11.7013358 184.965326,12.5973268 186.384,13.904 L181.904,18.44 C181.045329,17.6933296 180.018673,17.1800014 178.824,16.9 C177.629327,16.6199986 176.39734,16.48 175.128,16.48 C173.671993,16.48 172.617337,16.7599972 171.964,17.32 C171.310663,17.8800028 170.984,18.5333296 170.984,19.28 C170.984,19.5413346 171.021333,19.8119986 171.096,20.092 C171.170667,20.3720014 171.319999,20.6239989 171.544,20.848 C171.768001,21.0720011 172.075998,21.2773324 172.468,21.464 C172.860002,21.6506676 173.37333,21.7626665 174.008,21.8 L178.6,22.248 C181.512015,22.5466682 183.686659,23.433326 185.124,24.908 C186.561341,26.382674 187.28,28.3519877 187.28,30.816 L187.28,30.816 Z M202.512,40 C201.018659,40 199.740005,39.7573358 198.676,39.272 C197.611995,38.7866642 196.73467,38.1520039 196.044,37.368 C195.35333,36.5839961 194.849335,35.6973383 194.532,34.708 C194.214665,33.7186617 194.056,32.7013386 194.056,31.656 L194.056,17.208 L190.976,17.208 L190.976,11.664 L194.056,11.664 L194.056,3.04 L201.336,3.04 L201.336,11.664 L206.488,11.664 L206.488,17.208 L201.336,17.208 L201.336,31.208 C201.336,32.9626754 202.175992,33.84 203.856,33.84 L206.488,33.84 L206.488,40 L202.512,40 Z M228.944,18.776 C228.383997,18.2159972 227.824003,17.7866682 227.264,17.488 C226.703997,17.1893318 225.976004,17.04 225.08,17.04 C224.519997,17.04 223.960003,17.1426656 223.4,17.348 C222.839997,17.5533344 222.336002,17.8799978 221.888,18.328 C221.439998,18.7760022 221.076001,19.3359966 220.796,20.008 C220.515999,20.6800034 220.376,21.482662 220.376,22.416 L220.376,40 L213.096,40 L213.096,10.824 L220.208,10.824 L220.208,13.624 C220.917337,12.765329 221.925327,12.0280031 223.232,11.412 C224.538673,10.7959969 225.975992,10.488 227.544,10.488 C228.962674,10.488 230.213328,10.6933313 231.296,11.104 C232.378672,11.5146687 233.423995,12.223995 234.432,13.232 L228.944,18.776 Z M253.528,40 L253.528,37.48 C252.557328,38.4506715 251.540005,39.1599978 250.476,39.608 C249.411995,40.0560022 248.040008,40.28 246.36,40.28 C243.111984,40.28 240.629342,39.4213419 238.912,37.704 C238.127996,36.8826626 237.530669,35.9120056 237.12,34.792 C236.709331,33.6719944 236.504,32.4586732 236.504,31.152 C236.504,29.9946609 236.709331,28.9026718 237.12,27.876 C237.530669,26.8493282 238.146663,25.9533372 238.968,25.188 C239.789337,24.4226628 240.825327,23.8160022 242.076,23.368 C243.326673,22.9199978 244.791992,22.696 246.472,22.696 L253.36,22.696 L253.36,21.24 C253.36,19.6346586 252.940004,18.4680036 252.1,17.74 C251.259996,17.0119964 249.869343,16.648 247.928,16.648 C247.218663,16.648 246.602669,16.6946662 246.08,16.788 C245.557331,16.8813338 245.081335,17.0213324 244.652,17.208 C244.222665,17.3946676 243.821335,17.6373318 243.448,17.936 C243.074665,18.2346682 242.701335,18.6079978 242.328,19.056 L237.68,14.52 C239.098674,12.9519922 240.601325,11.8880028 242.188,11.328 C243.774675,10.7679972 245.781321,10.488 248.208,10.488 C252.314687,10.488 255.413323,11.3466581 257.504,13.064 C259.594677,14.7813419 260.64,17.3573162 260.64,20.792 L260.64,40 L253.528,40 Z M253.36,27.68 L247.592,27.68 C246.285327,27.68 245.277337,27.9693304 244.568,28.548 C243.858663,29.1266696 243.504,29.9386614 243.504,30.984 C243.504,31.992005 243.84933,32.8039969 244.54,33.42 C245.23067,34.0360031 246.285326,34.344 247.704,34.344 C248.712005,34.344 249.570663,34.2693341 250.28,34.12 C250.989337,33.9706659 251.66133,33.5786698 252.296,32.944 C253.005337,32.2719966 253.36,31.040009 253.36,29.248 L253.36,27.68 Z M277.608,40 C276.114659,40 274.836005,39.7573358 273.772,39.272 C272.707995,38.7866642 271.83067,38.1520039 271.14,37.368 C270.44933,36.5839961 269.945335,35.6973383 269.628,34.708 C269.310665,33.7186617 269.152,32.7013386 269.152,31.656 L269.152,17.208 L266.072,17.208 L266.072,11.664 L269.152,11.664 L269.152,3.04 L276.432,3.04 L276.432,11.664 L281.584,11.664 L281.584,17.208 L276.432,17.208 L276.432,31.208 C276.432,32.9626754 277.271992,33.84 278.952,33.84 L281.584,33.84 L281.584,40 L277.608,40 Z M293.904,27.68 C293.904,29.5840095 294.454661,31.1426606 295.556,32.356 C296.657339,33.5693394 298.234656,34.176 300.288,34.176 C301.893341,34.176 303.162662,33.9520022 304.096,33.504 C305.029338,33.0559978 305.962662,32.365338 306.896,31.432 L311.32,35.744 C310.57333,36.4906704 309.82667,37.1439972 309.08,37.704 C308.33333,38.2640028 307.521338,38.739998 306.644,39.132 C305.766662,39.524002 304.805339,39.8226656 303.76,40.028 C302.714661,40.2333344 301.538673,40.336 300.232,40.336 C298.514658,40.336 296.844008,40.1120022 295.22,39.664 C293.595992,39.2159978 292.158673,38.4226724 290.908,37.284 C289.657327,36.1453276 288.649337,34.6146763 287.884,32.692 C287.118663,30.7693237 286.736,28.3333481 286.736,25.384 C286.736,22.9946547 287.043997,20.8760092 287.66,19.028 C288.276003,17.1799908 289.143994,15.6213397 290.264,14.352 C291.384006,13.0826603 292.718659,12.1213366 294.268,11.468 C295.817341,10.8146634 297.54399,10.488 299.448,10.488 C301.46401,10.488 303.265325,10.8426631 304.852,11.552 C306.438675,12.2613369 307.773328,13.2319938 308.856,14.464 C309.938672,15.6960062 310.759997,17.1613248 311.32,18.86 C311.880003,20.5586752 312.16,22.4159899 312.16,24.432 L312.16,27.68 L293.904,27.68 Z M304.992,22.696 C304.954666,22.0613302 304.889334,21.510669 304.796,21.044 C304.702666,20.577331 304.544001,20.0826693 304.32,19.56 C303.909331,18.701329 303.302671,17.9826696 302.5,17.404 C301.697329,16.8253304 300.680006,16.536 299.448,16.536 C298.215994,16.536 297.198671,16.8253304 296.396,17.404 C295.593329,17.9826696 294.986669,18.701329 294.576,19.56 C294.351999,20.0826693 294.193334,20.577331 294.1,21.044 C294.006666,21.510669 293.941334,22.0613302 293.904,22.696 L304.992,22.696 Z M341.784,38.936 C341.784,40.6906754 341.485336,42.305326 340.888,43.78 C340.290664,45.254674 339.432006,46.5333279 338.312,47.616 C337.191994,48.6986721 335.838675,49.5386637 334.252,50.136 C332.665325,50.7333363 330.901343,51.032 328.96,51.032 C326.719989,51.032 324.778675,50.761336 323.136,50.22 C321.493325,49.678664 319.906674,48.6800073 318.376,47.224 L322.912,42.632 C323.733337,43.4160039 324.582662,43.9853316 325.46,44.34 C326.337338,44.6946684 327.391994,44.872 328.624,44.872 C329.706672,44.872 330.62133,44.6946684 331.368,44.34 C332.11467,43.9853316 332.721331,43.5280028 333.188,42.968 C333.654669,42.4079972 333.990666,41.7640036 334.196,41.036 C334.401334,40.3079964 334.504,39.5706704 334.504,38.824 L334.504,35.856 C333.533328,36.9386721 332.488006,37.6946645 331.368,38.124 C330.247994,38.5533355 328.978674,38.768 327.56,38.768 C326.141326,38.768 324.834673,38.5440022 323.64,38.096 C322.445327,37.6479978 321.437337,37.0133374 320.616,36.192 C319.943997,35.5199966 319.402669,34.7733374 318.992,33.952 C318.581331,33.1306626 318.282668,32.2440048 318.096,31.292 C317.909332,30.3399952 317.788,29.3040056 317.732,28.184 C317.676,27.0639944 317.648,25.8693397 317.648,24.6 C317.648,23.3306603 317.676,22.1453388 317.732,21.044 C317.788,19.9426612 317.909332,18.9160048 318.096,17.964 C318.282668,17.0119952 318.581331,16.1253374 318.992,15.304 C319.402669,14.4826626 319.943997,13.7360034 320.616,13.064 C321.437337,12.2426626 322.454661,11.6080022 323.668,11.16 C324.881339,10.7119978 326.197326,10.488 327.616,10.488 C329.184008,10.488 330.509328,10.721331 331.592,11.188 C332.674672,11.654669 333.719995,12.4479944 334.728,13.568 L334.728,10.824 L341.784,10.824 L341.784,38.936 Z M334.504,24.6 C334.504,23.6293285 334.457334,22.6866712 334.364,21.772 C334.270666,20.8573288 334.056002,20.0546701 333.72,19.364 C333.383998,18.6733299 332.89867,18.1133355 332.264,17.684 C331.62933,17.2546645 330.770672,17.04 329.688,17.04 C328.605328,17.04 327.74667,17.2546645 327.112,17.684 C326.47733,18.1133355 326.001335,18.6733299 325.684,19.364 C325.366665,20.0546701 325.161334,20.8573288 325.068,21.772 C324.974666,22.6866712 324.928,23.6293285 324.928,24.6 C324.928,25.5706715 324.974666,26.5133288 325.068,27.428 C325.161334,28.3426712 325.366665,29.1546631 325.684,29.864 C326.001335,30.5733369 326.47733,31.1426645 327.112,31.572 C327.74667,32.0013355 328.605328,32.216 329.688,32.216 C330.770672,32.216 331.62933,32.0013355 332.264,31.572 C332.89867,31.1426645 333.383998,30.5733369 333.72,29.864 C334.056002,29.1546631 334.270666,28.3426712 334.364,27.428 C334.457334,26.5133288 334.504,25.5706715 334.504,24.6 L334.504,24.6 Z M360.824,44.704 C360.18933,46.3840084 359.461337,47.6346626 358.64,48.456 C357.781329,49.314671 356.820005,49.9026651 355.756,50.22 C354.691995,50.5373349 353.562673,50.696 352.368,50.696 L349.512,50.696 L349.512,44.144 L351.192,44.144 C352.237339,44.144 353.011997,43.9760017 353.516,43.64 C354.020003,43.3039983 354.458665,42.5946721 354.832,41.512 L356.064,37.928 L346.096,10.824 L353.768,10.824 L359.816,28.856 L365.64,10.824 L373.312,10.824 L360.824,44.704 Z M405.568,40 L405.568,37.48 C404.597328,38.4506715 403.580005,39.1599978 402.516,39.608 C401.451995,40.0560022 400.080008,40.28 398.4,40.28 C395.151984,40.28 392.669342,39.4213419 390.952,37.704 C390.167996,36.8826626 389.570669,35.9120056 389.16,34.792 C388.749331,33.6719944 388.544,32.4586732 388.544,31.152 C388.544,29.9946609 388.749331,28.9026718 389.16,27.876 C389.570669,26.8493282 390.186663,25.9533372 391.008,25.188 C391.829337,24.4226628 392.865327,23.8160022 394.116,23.368 C395.366673,22.9199978 396.831992,22.696 398.512,22.696 L405.4,22.696 L405.4,21.24 C405.4,19.6346586 404.980004,18.4680036 404.14,17.74 C403.299996,17.0119964 401.909343,16.648 399.968,16.648 C399.258663,16.648 398.642669,16.6946662 398.12,16.788 C397.597331,16.8813338 397.121335,17.0213324 396.692,17.208 C396.262665,17.3946676 395.861335,17.6373318 395.488,17.936 C395.114665,18.2346682 394.741335,18.6079978 394.368,19.056 L389.72,14.52 C391.138674,12.9519922 392.641325,11.8880028 394.228,11.328 C395.814675,10.7679972 397.821321,10.488 400.248,10.488 C404.354687,10.488 407.453323,11.3466581 409.544,13.064 C411.634677,14.7813419 412.68,17.3573162 412.68,20.792 L412.68,40 L405.568,40 Z M405.4,27.68 L399.632,27.68 C398.325327,27.68 397.317337,27.9693304 396.608,28.548 C395.898663,29.1266696 395.544,29.9386614 395.544,30.984 C395.544,31.992005 395.88933,32.8039969 396.58,33.42 C397.27067,34.0360031 398.325326,34.344 399.744,34.344 C400.752005,34.344 401.610663,34.2693341 402.32,34.12 C403.029337,33.9706659 403.70133,33.5786698 404.336,32.944 C405.045337,32.2719966 405.4,31.040009 405.4,29.248 L405.4,27.68 Z M437.488,40 L437.488,22.36 C437.488,21.351995 437.348001,20.5120034 437.068,19.84 C436.787999,19.1679966 436.414669,18.6266687 435.948,18.216 C435.481331,17.8053313 434.95867,17.5066676 434.38,17.32 C433.80133,17.1333324 433.232003,17.04 432.672,17.04 C432.111997,17.04 431.54267,17.1333324 430.964,17.32 C430.38533,17.5066676 429.862669,17.8053313 429.396,18.216 C428.929331,18.6266687 428.546668,19.1679966 428.248,19.84 C427.949332,20.5120034 427.8,21.351995 427.8,22.36 L427.8,40 L420.52,40 L420.52,10.824 L427.632,10.824 L427.632,13.512 C428.602672,12.503995 429.72266,11.7480025 430.992,11.244 C432.26134,10.7399975 433.567993,10.488 434.912,10.488 C436.368007,10.488 437.674661,10.7119978 438.832,11.16 C439.989339,11.6080022 440.978663,12.2426626 441.8,13.064 C442.994673,14.2586726 443.787998,15.5373265 444.18,16.9 C444.572002,18.2626735 444.768,19.7466586 444.768,21.352 L444.768,40 L437.488,40 Z M468.736,40 L468.736,37.256 C467.727995,38.3760056 466.664006,39.169331 465.544,39.636 C464.423994,40.102669 463.080008,40.336 461.512,40.336 C460.093326,40.336 458.74934,40.102669 457.48,39.636 C456.21066,39.169331 455.165337,38.5253374 454.344,37.704 C453.59733,36.9946631 453.028002,36.1546715 452.636,35.184 C452.243998,34.2133285 451.954668,33.1866721 451.768,32.104 C451.581332,31.0213279 451.469334,29.9013391 451.432,28.744 C451.394666,27.5866609 451.376,26.4666721 451.376,25.384 C451.376,24.3013279 451.394666,23.1906724 451.432,22.052 C451.469334,20.9133276 451.581332,19.8026721 451.768,18.72 C451.954668,17.6373279 452.243998,16.6200048 452.636,15.668 C453.028002,14.7159952 453.59733,13.8666704 454.344,13.12 C455.165337,12.2986626 456.201327,11.654669 457.452,11.188 C458.702673,10.721331 460.037326,10.488 461.456,10.488 C462.949341,10.488 464.265328,10.7026645 465.404,11.132 C466.542672,11.5613355 467.597328,12.3173279 468.568,13.4 L468.568,0.128 L475.848,0.128 L475.848,40 L468.736,40 Z M468.568,25.384 C468.568,24.1893274 468.512001,23.088005 468.4,22.08 C468.287999,21.071995 468.054668,20.1946704 467.7,19.448 C467.345332,18.7013296 466.841337,18.1133355 466.188,17.684 C465.534663,17.2546645 464.666672,17.04 463.584,17.04 C462.501328,17.04 461.633337,17.2546645 460.98,17.684 C460.326663,18.1133355 459.832002,18.7013296 459.496,19.448 C459.159998,20.1946704 458.936001,21.071995 458.824,22.08 C458.711999,23.088005 458.656,24.1893274 458.656,25.384 C458.656,26.5786726 458.711999,27.6893282 458.824,28.716 C458.936001,29.7426718 459.159998,30.6293296 459.496,31.376 C459.832002,32.1226704 460.326663,32.7106645 460.98,33.14 C461.633337,33.5693355 462.501328,33.784 463.584,33.784 C464.666672,33.784 465.534663,33.5693355 466.188,33.14 C466.841337,32.7106645 467.345332,32.1226704 467.7,31.376 C468.054668,30.6293296 468.287999,29.7426718 468.4,28.716 C468.512001,27.6893282 468.568,26.5786726 468.568,25.384 L468.568,25.384 Z M18.216,121 L18.216,118.256 C17.207995,119.376006 16.1440056,120.169331 15.024,120.636 C13.9039944,121.102669 12.5600078,121.336 10.992,121.336 C9.57332624,121.336 8.22933968,121.102669 6.96,120.636 C5.69066032,120.169331 4.64533744,119.525337 3.824,118.704 C3.0773296,117.994663 2.50800196,117.154672 2.116,116.184 C1.72399804,115.213328 1.4346676,114.186672 1.248,113.104 C1.0613324,112.021328 0.94933352,110.901339 0.912,109.744 C0.87466648,108.586661 0.856,107.466672 0.856,106.384 C0.856,105.301328 0.87466648,104.190672 0.912,103.052 C0.94933352,101.913328 1.0613324,100.802672 1.248,99.72 C1.4346676,98.6373279 1.72399804,97.6200048 2.116,96.668 C2.50800196,95.7159952 3.0773296,94.8666704 3.824,94.12 C4.64533744,93.2986626 5.68132708,92.654669 6.932,92.188 C8.18267292,91.721331 9.51732624,91.488 10.936,91.488 C12.4293408,91.488 13.7453276,91.7026645 14.884,92.132 C16.0226724,92.5613355 17.0773285,93.3173279 18.048,94.4 L18.048,81.128 L25.328,81.128 L25.328,121 L18.216,121 Z M18.048,106.384 C18.048,105.189327 17.9920006,104.088005 17.88,103.08 C17.7679994,102.071995 17.5346684,101.19467 17.18,100.448 C16.8253316,99.7013296 16.3213366,99.1133355 15.668,98.684 C15.0146634,98.2546645 14.1466721,98.04 13.064,98.04 C11.9813279,98.04 11.1133366,98.2546645 10.46,98.684 C9.8066634,99.1133355 9.31200168,99.7013296 8.976,100.448 C8.63999832,101.19467 8.41600056,102.071995 8.304,103.08 C8.19199944,104.088005 8.136,105.189327 8.136,106.384 C8.136,107.578673 8.19199944,108.689328 8.304,109.716 C8.41600056,110.742672 8.63999832,111.62933 8.976,112.376 C9.31200168,113.12267 9.8066634,113.710665 10.46,114.14 C11.1133366,114.569335 11.9813279,114.784 13.064,114.784 C14.1466721,114.784 15.0146634,114.569335 15.668,114.14 C16.3213366,113.710665 16.8253316,113.12267 17.18,112.376 C17.5346684,111.62933 17.7679994,110.742672 17.88,109.716 C17.9920006,108.689328 18.048,107.578673 18.048,106.384 L18.048,106.384 Z M33.504,121 L33.504,91.824 L40.784,91.824 L40.784,121 L33.504,121 Z M33.392,86.84 L33.392,80.904 L40.84,80.904 L40.84,86.84 L33.392,86.84 Z M71.808,119.936 C71.808,121.690675 71.5093363,123.305326 70.912,124.78 C70.3146637,126.254674 69.4560056,127.533328 68.336,128.616 C67.2159944,129.698672 65.8626746,130.538664 64.276,131.136 C62.6893254,131.733336 60.925343,132.032 58.984,132.032 C56.7439888,132.032 54.8026749,131.761336 53.16,131.22 C51.5173251,130.678664 49.9306743,129.680007 48.4,128.224 L52.936,123.632 C53.7573374,124.416004 54.6066623,124.985332 55.484,125.34 C56.3613377,125.694668 57.4159938,125.872 58.648,125.872 C59.7306721,125.872 60.6453296,125.694668 61.392,125.34 C62.1386704,124.985332 62.745331,124.528003 63.212,123.968 C63.678669,123.407997 64.0146656,122.764004 64.22,122.036 C64.4253344,121.307996 64.528,120.57067 64.528,119.824 L64.528,116.856 C63.5573285,117.938672 62.5120056,118.694665 61.392,119.124 C60.2719944,119.553335 59.0026738,119.768 57.584,119.768 C56.1653262,119.768 54.8586726,119.544002 53.664,119.096 C52.4693274,118.647998 51.4613374,118.013337 50.64,117.192 C49.9679966,116.519997 49.4266687,115.773337 49.016,114.952 C48.6053313,114.130663 48.3066676,113.244005 48.12,112.292 C47.9333324,111.339995 47.8120003,110.304006 47.756,109.184 C47.6999997,108.063994 47.672,106.86934 47.672,105.6 C47.672,104.33066 47.6999997,103.145339 47.756,102.044 C47.8120003,100.942661 47.9333324,99.9160048 48.12,98.964 C48.3066676,98.0119952 48.6053313,97.1253374 49.016,96.304 C49.4266687,95.4826626 49.9679966,94.7360034 50.64,94.064 C51.4613374,93.2426626 52.4786606,92.6080022 53.692,92.16 C54.9053394,91.7119978 56.2213262,91.488 57.64,91.488 C59.2080078,91.488 60.5333279,91.721331 61.616,92.188 C62.6986721,92.654669 63.743995,93.4479944 64.752,94.568 L64.752,91.824 L71.808,91.824 L71.808,119.936 Z M64.528,105.6 C64.528,104.629328 64.4813338,103.686671 64.388,102.772 C64.2946662,101.857329 64.0800017,101.05467 63.744,100.364 C63.4079983,99.6733299 62.9226698,99.1133355 62.288,98.684 C61.6533302,98.2546645 60.7946721,98.04 59.712,98.04 C58.6293279,98.04 57.7706698,98.2546645 57.136,98.684 C56.5013302,99.1133355 56.0253349,99.6733299 55.708,100.364 C55.3906651,101.05467 55.1853338,101.857329 55.092,102.772 C54.9986662,103.686671 54.952,104.629328 54.952,105.6 C54.952,106.570672 54.9986662,107.513329 55.092,108.428 C55.1853338,109.342671 55.3906651,110.154663 55.708,110.864 C56.0253349,111.573337 56.5013302,112.142665 57.136,112.572 C57.7706698,113.001335 58.6293279,113.216 59.712,113.216 C60.7946721,113.216 61.6533302,113.001335 62.288,112.572 C62.9226698,112.142665 63.4079983,111.573337 63.744,110.864 C64.0800017,110.154663 64.2946662,109.342671 64.388,108.428 C64.4813338,107.513329 64.528,106.570672 64.528,105.6 L64.528,105.6 Z M79.984,121 L79.984,91.824 L87.264,91.824 L87.264,121 L79.984,121 Z M79.872,86.84 L79.872,80.904 L87.32,80.904 L87.32,86.84 L79.872,86.84 Z M104.512,121 C103.018659,121 101.740005,120.757336 100.676,120.272 C99.6119947,119.786664 98.7346701,119.152004 98.044,118.368 C97.3533299,117.583996 96.8493349,116.697338 96.532,115.708 C96.2146651,114.718662 96.056,113.701339 96.056,112.656 L96.056,98.208 L92.976,98.208 L92.976,92.664 L96.056,92.664 L96.056,84.04 L103.336,84.04 L103.336,92.664 L108.488,92.664 L108.488,98.208 L103.336,98.208 L103.336,112.208 C103.336,113.962675 104.175992,114.84 105.856,114.84 L108.488,114.84 L108.488,121 L104.512,121 Z M130.048,121 L130.048,118.48 C129.077328,119.450672 128.060005,120.159998 126.996,120.608 C125.931995,121.056002 124.560008,121.28 122.88,121.28 C119.631984,121.28 117.149342,120.421342 115.432,118.704 C114.647996,117.882663 114.050669,116.912006 113.64,115.792 C113.229331,114.671994 113.024,113.458673 113.024,112.152 C113.024,110.994661 113.229331,109.902672 113.64,108.876 C114.050669,107.849328 114.666663,106.953337 115.488,106.188 C116.309337,105.422663 117.345327,104.816002 118.596,104.368 C119.846673,103.919998 121.311992,103.696 122.992,103.696 L129.88,103.696 L129.88,102.24 C129.88,100.634659 129.460004,99.4680036 128.62,98.74 C127.779996,98.0119964 126.389343,97.648 124.448,97.648 C123.738663,97.648 123.122669,97.6946662 122.6,97.788 C122.077331,97.8813338 121.601335,98.0213324 121.172,98.208 C120.742665,98.3946676 120.341335,98.6373318 119.968,98.936 C119.594665,99.2346682 119.221335,99.6079978 118.848,100.056 L114.2,95.52 C115.618674,93.9519922 117.121325,92.8880028 118.708,92.328 C120.294675,91.7679972 122.301321,91.488 124.728,91.488 C128.834687,91.488 131.933323,92.3466581 134.024,94.064 C136.114677,95.7813419 137.16,98.3573162 137.16,101.792 L137.16,121 L130.048,121 Z M129.88,108.68 L124.112,108.68 C122.805327,108.68 121.797337,108.96933 121.088,109.548 C120.378663,110.12667 120.024,110.938661 120.024,111.984 C120.024,112.992005 120.36933,113.803997 121.06,114.42 C121.75067,115.036003 122.805326,115.344 124.224,115.344 C125.232005,115.344 126.090663,115.269334 126.8,115.12 C127.509337,114.970666 128.18133,114.57867 128.816,113.944 C129.525337,113.271997 129.88,112.040009 129.88,110.248 L129.88,108.68 Z M153.232,121 C151.738659,121 150.450672,120.757336 149.368,120.272 C148.285328,119.786664 147.39867,119.152004 146.708,118.368 C146.01733,117.583996 145.513335,116.697338 145.196,115.708 C144.878665,114.718662 144.72,113.701339 144.72,112.656 L144.72,81.128 L152,81.128 L152,112.208 C152,113.066671 152.195998,113.719998 152.588,114.168 C152.980002,114.616002 153.642662,114.84 154.576,114.84 L157.376,114.84 L157.376,121 L153.232,121 Z M197.416,117.36 C196.109327,118.704007 194.681341,119.702663 193.132,120.356 C191.582659,121.009337 189.80001,121.336 187.784,121.336 C186.327993,121.336 184.825341,121.112002 183.276,120.664 C181.726659,120.215998 180.326673,119.422672 179.076,118.284 C177.825327,117.145328 176.789337,115.614676 175.968,113.692 C175.146663,111.769324 174.736,109.333348 174.736,106.384 C174.736,103.434652 175.146663,100.998676 175.968,99.076 C176.789337,97.1533237 177.825327,95.6320056 179.076,94.512 C180.326673,93.3919944 181.726659,92.6080022 183.276,92.16 C184.825341,91.7119978 186.327993,91.488 187.784,91.488 C189.80001,91.488 191.582659,91.8053302 193.132,92.44 C194.681341,93.0746698 196.109327,94.0639933 197.416,95.408 L192.488,100.336 C191.74133,99.5146626 191.013337,98.9266684 190.304,98.572 C189.594663,98.2173316 188.754672,98.04 187.784,98.04 C186.066658,98.04 184.685339,98.6746603 183.64,99.944 C183.079997,100.653337 182.669335,101.511995 182.408,102.52 C182.146665,103.528005 182.016,104.815992 182.016,106.384 C182.016,109.370682 182.557328,111.535993 183.64,112.88 C184.685339,114.14934 186.066658,114.784 187.784,114.784 C188.754672,114.784 189.594663,114.606668 190.304,114.252 C191.013337,113.897332 191.74133,113.309337 192.488,112.488 L197.416,117.36 Z M218.92,99.776 C218.359997,99.2159972 217.800003,98.7866682 217.24,98.488 C216.679997,98.1893318 215.952004,98.04 215.056,98.04 C214.495997,98.04 213.936003,98.1426656 213.376,98.348 C212.815997,98.5533344 212.312002,98.8799978 211.864,99.328 C211.415998,99.7760022 211.052001,100.335997 210.772,101.008 C210.491999,101.680003 210.352,102.482662 210.352,103.416 L210.352,121 L203.072,121 L203.072,91.824 L210.184,91.824 L210.184,94.624 C210.893337,93.765329 211.901327,93.0280031 213.208,92.412 C214.514673,91.7959969 215.951992,91.488 217.52,91.488 C218.938674,91.488 220.189328,91.6933313 221.272,92.104 C222.354672,92.5146687 223.399995,93.223995 224.408,94.232 L218.92,99.776 Z M234.264,108.68 C234.264,110.58401 234.814661,112.142661 235.916,113.356 C237.017339,114.569339 238.594656,115.176 240.648,115.176 C242.253341,115.176 243.522662,114.952002 244.456,114.504 C245.389338,114.055998 246.322662,113.365338 247.256,112.432 L251.68,116.744 C250.93333,117.49067 250.18667,118.143997 249.44,118.704 C248.69333,119.264003 247.881338,119.739998 247.004,120.132 C246.126662,120.524002 245.165339,120.822666 244.12,121.028 C243.074661,121.233334 241.898673,121.336 240.592,121.336 C238.874658,121.336 237.204008,121.112002 235.58,120.664 C233.955992,120.215998 232.518673,119.422672 231.268,118.284 C230.017327,117.145328 229.009337,115.614676 228.244,113.692 C227.478663,111.769324 227.096,109.333348 227.096,106.384 C227.096,103.994655 227.403997,101.876009 228.02,100.028 C228.636003,98.1799908 229.503994,96.6213397 230.624,95.352 C231.744006,94.0826603 233.078659,93.1213366 234.628,92.468 C236.177341,91.8146634 237.90399,91.488 239.808,91.488 C241.82401,91.488 243.625325,91.8426631 245.212,92.552 C246.798675,93.2613369 248.133328,94.2319938 249.216,95.464 C250.298672,96.6960062 251.119997,98.1613248 251.68,99.86 C252.240003,101.558675 252.52,103.41599 252.52,105.432 L252.52,108.68 L234.264,108.68 Z M245.352,103.696 C245.314666,103.06133 245.249334,102.510669 245.156,102.044 C245.062666,101.577331 244.904001,101.082669 244.68,100.56 C244.269331,99.701329 243.662671,98.9826696 242.86,98.404 C242.057329,97.8253304 241.040006,97.536 239.808,97.536 C238.575994,97.536 237.558671,97.8253304 236.756,98.404 C235.953329,98.9826696 235.346669,99.701329 234.936,100.56 C234.711999,101.082669 234.553334,101.577331 234.46,102.044 C234.366666,102.510669 234.301334,103.06133 234.264,103.696 L245.352,103.696 Z M274.192,121 L274.192,118.48 C273.221328,119.450672 272.204005,120.159998 271.14,120.608 C270.075995,121.056002 268.704008,121.28 267.024,121.28 C263.775984,121.28 261.293342,120.421342 259.576,118.704 C258.791996,117.882663 258.194669,116.912006 257.784,115.792 C257.373331,114.671994 257.168,113.458673 257.168,112.152 C257.168,110.994661 257.373331,109.902672 257.784,108.876 C258.194669,107.849328 258.810663,106.953337 259.632,106.188 C260.453337,105.422663 261.489327,104.816002 262.74,104.368 C263.990673,103.919998 265.455992,103.696 267.136,103.696 L274.024,103.696 L274.024,102.24 C274.024,100.634659 273.604004,99.4680036 272.764,98.74 C271.923996,98.0119964 270.533343,97.648 268.592,97.648 C267.882663,97.648 267.266669,97.6946662 266.744,97.788 C266.221331,97.8813338 265.745335,98.0213324 265.316,98.208 C264.886665,98.3946676 264.485335,98.6373318 264.112,98.936 C263.738665,99.2346682 263.365335,99.6079978 262.992,100.056 L258.344,95.52 C259.762674,93.9519922 261.265325,92.8880028 262.852,92.328 C264.438675,91.7679972 266.445321,91.488 268.872,91.488 C272.978687,91.488 276.077323,92.3466581 278.168,94.064 C280.258677,95.7813419 281.304,98.3573162 281.304,101.792 L281.304,121 L274.192,121 Z M274.024,108.68 L268.256,108.68 C266.949327,108.68 265.941337,108.96933 265.232,109.548 C264.522663,110.12667 264.168,110.938661 264.168,111.984 C264.168,112.992005 264.51333,113.803997 265.204,114.42 C265.89467,115.036003 266.949326,115.344 268.368,115.344 C269.376005,115.344 270.234663,115.269334 270.944,115.12 C271.653337,114.970666 272.32533,114.57867 272.96,113.944 C273.669337,113.271997 274.024,112.040009 274.024,110.248 L274.024,108.68 Z M298.272,121 C296.778659,121 295.500005,120.757336 294.436,120.272 C293.371995,119.786664 292.49467,119.152004 291.804,118.368 C291.11333,117.583996 290.609335,116.697338 290.292,115.708 C289.974665,114.718662 289.816,113.701339 289.816,112.656 L289.816,98.208 L286.736,98.208 L286.736,92.664 L289.816,92.664 L289.816,84.04 L297.096,84.04 L297.096,92.664 L302.248,92.664 L302.248,98.208 L297.096,98.208 L297.096,112.208 C297.096,113.962675 297.935992,114.84 299.616,114.84 L302.248,114.84 L302.248,121 L298.272,121 Z M308.856,121 L308.856,91.824 L316.136,91.824 L316.136,121 L308.856,121 Z M308.744,86.84 L308.744,80.904 L316.192,80.904 L316.192,86.84 L308.744,86.84 Z M347.72,106.384 C347.72,109.03468 347.496002,111.246658 347.048,113.02 C346.599998,114.793342 345.722673,116.37066 344.416,117.752 C343.519996,118.722672 342.325341,119.562663 340.832,120.272 C339.338659,120.981337 337.509344,121.336 335.344,121.336 C333.178656,121.336 331.358674,120.981337 329.884,120.272 C328.409326,119.562663 327.224004,118.722672 326.328,117.752 C325.021327,116.37066 324.144002,114.793342 323.696,113.02 C323.247998,111.246658 323.024,109.03468 323.024,106.384 C323.024,103.73332 323.247998,101.530675 323.696,99.776 C324.144002,98.0213246 325.021327,96.4533402 326.328,95.072 C327.224004,94.1013285 328.409326,93.2613369 329.884,92.552 C331.358674,91.8426631 333.178656,91.488 335.344,91.488 C337.509344,91.488 339.338659,91.8426631 340.832,92.552 C342.325341,93.2613369 343.519996,94.1013285 344.416,95.072 C345.722673,96.4533402 346.599998,98.0213246 347.048,99.776 C347.496002,101.530675 347.72,103.73332 347.72,106.384 L347.72,106.384 Z M340.44,106.384 C340.44,104.853326 340.346668,103.481339 340.16,102.268 C339.973332,101.054661 339.50667,100.07467 338.76,99.328 C337.901329,98.469329 336.762674,98.04 335.344,98.04 C333.96266,98.04 332.842671,98.469329 331.984,99.328 C331.23733,100.07467 330.770668,101.054661 330.584,102.268 C330.397332,103.481339 330.304,104.853326 330.304,106.384 C330.304,107.914674 330.397332,109.295994 330.584,110.528 C330.770668,111.760006 331.23733,112.74933 331.984,113.496 C332.842671,114.354671 333.96266,114.784 335.344,114.784 C336.762674,114.784 337.901329,114.354671 338.76,113.496 C339.50667,112.74933 339.973332,111.760006 340.16,110.528 C340.346668,109.295994 340.44,107.914674 340.44,106.384 L340.44,106.384 Z M371.632,121 L371.632,103.36 C371.632,102.351995 371.492001,101.512003 371.212,100.84 C370.931999,100.167997 370.558669,99.6266687 370.092,99.216 C369.625331,98.8053313 369.10267,98.5066676 368.524,98.32 C367.94533,98.1333324 367.376003,98.04 366.816,98.04 C366.255997,98.04 365.68667,98.1333324 365.108,98.32 C364.52933,98.5066676 364.006669,98.8053313 363.54,99.216 C363.073331,99.6266687 362.690668,100.167997 362.392,100.84 C362.093332,101.512003 361.944,102.351995 361.944,103.36 L361.944,121 L354.664,121 L354.664,91.824 L361.776,91.824 L361.776,94.512 C362.746672,93.503995 363.86666,92.7480025 365.136,92.244 C366.40534,91.7399975 367.711993,91.488 369.056,91.488 C370.512007,91.488 371.818661,91.7119978 372.976,92.16 C374.133339,92.6080022 375.122663,93.2426626 375.944,94.064 C377.138673,95.2586726 377.931998,96.5373265 378.324,97.9 C378.716002,99.2626735 378.912,100.746659 378.912,102.352 L378.912,121 L371.632,121 Z M386.472,121 L386.472,112.712 L394.816,112.712 L394.816,121 L386.472,121 Z" id="brand-strategy-and-d"></path>
</g>
</symbol>
</defs>
</svg>
