<svg display="none" version="1.1" xmlns="http://www.w3.org/2000/svg" xmlns:xlink="http://www.w3.org/1999/xlink">
<defs>
<symbol id="title-about" viewBox="0 0 71 17">
  <path d="M10.9058151,16 L9.98181511,13.228 L4.41581511,13.228 L3.46981511,16 L0.279815115,16 L5.97781511,0.336 L8.37581511,0.336 L14.0958151,16 L10.9058151,16 Z M7.25381511,4.956 L5.27381511,10.654 L9.16781511,10.654 L7.25381511,4.956 Z M27.3838151,11.49 C27.3838151,12.223337 27.266483,12.8686639 27.0318151,13.426 C26.7971473,13.9833361 26.4671506,14.4526648 26.0418151,14.834 C25.6164797,15.2153352 25.1104847,15.504999 24.5238151,15.703 C23.9371455,15.901001 23.2918186,16 22.5878151,16 L16.0318151,16 L16.0318151,0.336 L22.3238151,0.336 C23.8638228,0.336 25.0554776,0.73199604 25.8988151,1.524 C26.7421527,2.31600396 27.1638151,3.38665992 27.1638151,4.736 C27.1638151,5.1760022 27.1014824,5.57199824 26.9768151,5.924 C26.8521478,6.27600176 26.6908161,6.58766531 26.4928151,6.859 C26.2948141,7.13033469 26.0821496,7.36133238 25.8548151,7.552 C25.6274806,7.74266762 25.4184827,7.88199956 25.2278151,7.97 C25.462483,8.08733392 25.7081472,8.23766575 25.9648151,8.421 C26.2214831,8.60433425 26.4524808,8.83533194 26.6578151,9.114 C26.8631495,9.39266806 27.0354811,9.72633139 27.1748151,10.115 C27.3141491,10.5036686 27.3838151,10.9619974 27.3838151,11.49 L27.3838151,11.49 Z M24.3258151,11.336 C24.3258151,10.8079974 24.1608168,10.3570019 23.8308151,9.983 C23.5008135,9.60899813 22.9838186,9.422 22.2798151,9.422 L19.0898151,9.422 L19.0898151,13.272 L22.2798151,13.272 C22.9838186,13.272 23.5008135,13.0813352 23.8308151,12.7 C24.1608168,12.3186648 24.3258151,11.8640026 24.3258151,11.336 L24.3258151,11.336 Z M24.1058151,4.868 C24.1058151,4.32533062 23.9334835,3.88900165 23.5888151,3.559 C23.2441467,3.22899835 22.7418184,3.064 22.0818151,3.064 L19.0898151,3.064 L19.0898151,6.672 L22.0818151,6.672 C22.7418184,6.672 23.2441467,6.50700165 23.5888151,6.177 C23.9334835,5.84699835 24.1058151,5.41066938 24.1058151,4.868 L24.1058151,4.868 Z M41.5518151,8.168 C41.5518151,8.84267004 41.5444819,9.4733304 41.5298151,10.06 C41.5151484,10.6466696 41.4601489,11.1966641 41.3648151,11.71 C41.2694813,12.2233359 41.1154828,12.7036644 40.9028151,13.151 C40.6901474,13.5983356 40.3858171,14.019998 39.9898151,14.416 C39.432479,14.9733361 38.8128185,15.3986652 38.1308151,15.692 C37.4488117,15.9853348 36.6604863,16.132 35.7658151,16.132 C34.871144,16.132 34.0791519,15.9853348 33.3898151,15.692 C32.7004783,15.3986652 32.0771512,14.9733361 31.5198151,14.416 C31.1238131,14.019998 30.8194828,13.5983356 30.6068151,13.151 C30.3941474,12.7036644 30.2438156,12.2233359 30.1558151,11.71 C30.0678147,11.1966641 30.0164819,10.6466696 30.0018151,10.06 C29.9871484,9.4733304 29.9798151,8.84267004 29.9798151,8.168 C29.9798151,7.49332996 29.9871484,6.8626696 30.0018151,6.276 C30.0164819,5.6893304 30.0678147,5.1393359 30.1558151,4.626 C30.2438156,4.1126641 30.3941474,3.63233557 30.6068151,3.185 C30.8194828,2.73766443 31.1238131,2.31600198 31.5198151,1.92 C32.0771512,1.36266388 32.7004783,0.9373348 33.3898151,0.644 C34.0791519,0.3506652 34.871144,0.204 35.7658151,0.204 C36.6604863,0.204 37.4488117,0.3506652 38.1308151,0.644 C38.8128185,0.9373348 39.432479,1.36266388 39.9898151,1.92 C40.3858171,2.31600198 40.6901474,2.73766443 40.9028151,3.185 C41.1154828,3.63233557 41.2694813,4.1126641 41.3648151,4.626 C41.4601489,5.1393359 41.5151484,5.6893304 41.5298151,6.276 C41.5444819,6.8626696 41.5518151,7.49332996 41.5518151,8.168 L41.5518151,8.168 Z M38.4938151,8.168 C38.4938151,7.41999626 38.4828152,6.80033579 38.4608151,6.309 C38.438815,5.81766421 38.3984821,5.41066828 38.3398151,5.088 C38.2811482,4.76533172 38.2004823,4.50500099 38.0978151,4.307 C37.9951479,4.10899901 37.8704825,3.92933414 37.7238151,3.768 C37.503814,3.51866542 37.2288168,3.31700077 36.8988151,3.163 C36.5688135,3.00899923 36.1911506,2.932 35.7658151,2.932 C35.3404797,2.932 34.9591501,3.00899923 34.6218151,3.163 C34.2844801,3.31700077 34.0058162,3.51866542 33.7858151,3.768 C33.6391477,3.92933414 33.5181489,4.10899901 33.4228151,4.307 C33.3274813,4.50500099 33.2504821,4.76533172 33.1918151,5.088 C33.1331482,5.41066828 33.0928152,5.81766421 33.0708151,6.309 C33.048815,6.80033579 33.0378151,7.41999626 33.0378151,8.168 C33.0378151,8.91600374 33.048815,9.53566421 33.0708151,10.027 C33.0928152,10.5183358 33.1331482,10.9253317 33.1918151,11.248 C33.2504821,11.5706683 33.3274813,11.830999 33.4228151,12.029 C33.5181489,12.227001 33.6391477,12.4066659 33.7858151,12.568 C34.0058162,12.8173346 34.2844801,13.0189992 34.6218151,13.173 C34.9591501,13.3270008 35.3404797,13.404 35.7658151,13.404 C36.1911506,13.404 36.5688135,13.3270008 36.8988151,13.173 C37.2288168,13.0189992 37.503814,12.8173346 37.7238151,12.568 C37.8704825,12.4066659 37.9951479,12.227001 38.0978151,12.029 C38.2004823,11.830999 38.2811482,11.5706683 38.3398151,11.248 C38.3984821,10.9253317 38.438815,10.5183358 38.4608151,10.027 C38.4828152,9.53566421 38.4938151,8.91600374 38.4938151,8.168 L38.4938151,8.168 Z M55.9618151,10.632 C55.9618151,11.4680042 55.8114833,12.22333 55.5108151,12.898 C55.2101469,13.57267 54.7994844,14.1483309 54.2788151,14.625 C53.7581458,15.101669 53.1494853,15.4719987 52.4528151,15.736 C51.756145,16.0000013 51.0044858,16.132 50.1978151,16.132 C49.3911444,16.132 48.6394853,16.0000013 47.9428151,15.736 C47.246145,15.4719987 46.6374844,15.101669 46.1168151,14.625 C45.5961458,14.1483309 45.1854833,13.57267 44.8848151,12.898 C44.5841469,12.22333 44.4338151,11.4680042 44.4338151,10.632 L44.4338151,0.336 L47.4918151,0.336 L47.4918151,10.522 C47.4918151,11.4313379 47.7338127,12.1389975 48.2178151,12.645 C48.7018175,13.1510025 49.3618109,13.404 50.1978151,13.404 C51.0338193,13.404 51.6974793,13.1510025 52.1888151,12.645 C52.6801509,12.1389975 52.9258151,11.4313379 52.9258151,10.522 L52.9258151,0.336 L55.9618151,0.336 L55.9618151,10.632 Z M65.3558151,3.064 L65.3558151,16 L62.2978151,16 L62.2978151,3.064 L58.2058151,3.064 L58.2058151,0.336 L69.4478151,0.336 L69.4478151,3.064 L65.3558151,3.064 Z" id="ABOUT" stroke="none"  fill-rule="evenodd"></path>
<title>ABOUT</title>
</symbol>

<symbol id="title-service" viewBox="3 0 88 17">
  <path d="M14.94231,11.38 C14.94231,12.1426705 14.7919781,12.8173304 14.49131,13.404 C14.1906418,13.9906696 13.7799792,14.4856646 13.25931,14.889 C12.7386407,15.2923353 12.1263135,15.6003323 11.42231,15.813 C10.7183064,16.0256677 9.9556474,16.132 9.13430996,16.132 C7.94630402,16.132 6.88664795,15.9816682 5.95530996,15.681 C5.02397197,15.3803318 4.17698044,14.8413372 3.41430996,14.064 L5.39430996,12.084 C5.89297912,12.5826692 6.4649734,12.9273324 7.11030996,13.118 C7.75564652,13.3086676 8.44497296,13.404 9.17830996,13.404 C10.0876478,13.404 10.7769743,13.2390016 11.24631,12.909 C11.7156456,12.5789983 11.95031,12.0986698 11.95031,11.468 C11.95031,10.8959971 11.7889782,10.4560015 11.46631,10.148 C11.3049758,10.0013326 11.125311,9.88766707 10.92731,9.807 C10.729309,9.72633293 10.4469785,9.65666696 10.08031,9.598 L8.18830996,9.334 C6.85363662,9.14333238 5.84164674,8.71067004 5.15230996,8.036 C4.40430622,7.28799626 4.03030996,6.26133986 4.03030996,4.956 C4.03030996,4.25199648 4.15497538,3.61033623 4.40430996,3.031 C4.65364454,2.45166377 5.01297428,1.95300209 5.48230996,1.535 C5.95164564,1.11699791 6.52363992,0.79066784 7.19830996,0.556 C7.87298,0.32133216 8.63563904,0.204 9.48630996,0.204 C10.5716487,0.204 11.5176393,0.34333194 12.32431,0.622 C13.1309807,0.90066806 13.8716399,1.3699967 14.54631,2.03 L12.61031,3.944 C12.1116408,3.47466432 11.5799795,3.17766729 11.01531,3.053 C10.4506405,2.92833271 9.91164586,2.866 9.39830996,2.866 C8.57697252,2.866 7.96831194,3.06033139 7.57230996,3.449 C7.17630798,3.83766861 6.97830996,4.30333062 6.97830996,4.846 C6.97830996,5.05133436 7.01497626,5.24933238 7.08830996,5.44 C7.16164366,5.63066762 7.27897582,5.80666586 7.44030996,5.968 C7.6016441,6.1146674 7.80330875,6.24299945 8.04530996,6.353 C8.28731117,6.46300055 8.56964168,6.53999978 8.89230996,6.584 L10.74031,6.848 C11.4589802,6.95066718 12.0529743,7.10099901 12.52231,7.299 C12.9916456,7.49700099 13.3949749,7.74999846 13.73231,8.058 C14.1576454,8.45400198 14.4656423,8.93066388 14.65631,9.488 C14.8469776,10.0453361 14.94231,10.6759965 14.94231,11.38 L14.94231,11.38 Z M17.82431,16 L17.82431,0.336 L28.14231,0.336 L28.14231,3.064 L20.88231,3.064 L20.88231,6.738 L27.06431,6.738 L27.06431,9.466 L20.88231,9.466 L20.88231,13.272 L28.14231,13.272 L28.14231,16 L17.82431,16 Z M39.45031,16 L36.39231,9.752 L34.19231,9.752 L34.19231,16 L31.13431,16 L31.13431,0.336 L37.27231,0.336 C38.0643139,0.336 38.7756401,0.46433205 39.40631,0.721 C40.0369798,0.97766795 40.5723078,1.32233117 41.01231,1.755 C41.4523122,2.18766883 41.7859755,2.69366377 42.01331,3.273 C42.2406444,3.85233623 42.35431,4.4719967 42.35431,5.132 C42.35431,5.68933612 42.2773107,6.1879978 42.12331,6.628 C41.9693092,7.0680022 41.7603113,7.46033161 41.49631,7.805 C41.2323086,8.14966839 40.9279784,8.44299879 40.58331,8.685 C40.2386416,8.92700121 39.8756452,9.11399934 39.49431,9.246 L42.99231,16 L39.45031,16 Z M39.29631,5.132 C39.29631,4.51599692 39.0946453,4.01733524 38.69131,3.636 C38.2879746,3.25466476 37.74898,3.064 37.07431,3.064 L34.19231,3.064 L34.19231,7.2 L37.07431,7.2 C37.74898,7.2 38.2879746,7.00933524 38.69131,6.628 C39.0946453,6.24666476 39.29631,5.74800308 39.29631,5.132 L39.29631,5.132 Z M51.22031,16 L48.93231,16 L43.76231,0.336 L46.93031,0.336 L50.07631,10.544 L53.22231,0.336 L56.41231,0.336 L51.22031,16 Z M58.30431,16 L58.30431,0.336 L61.36231,0.336 L61.36231,16 L58.30431,16 Z M76.01431,11.182 C75.8823093,11.974004 75.647645,12.6779969 75.31031,13.294 C74.9729749,13.9100031 74.5549791,14.4269979 74.05631,14.845 C73.5576408,15.2630021 72.9856465,15.5819989 72.34031,15.802 C71.6949734,16.0220011 70.9983137,16.132 70.25031,16.132 C68.5783016,16.132 67.1703157,15.5600057 66.02631,14.416 C65.3516399,13.74133 64.9263108,12.9566711 64.75031,12.062 C64.5743091,11.1819956 64.48631,9.88400858 64.48631,8.168 C64.48631,6.45199142 64.5743091,5.1540044 64.75031,4.274 C64.9263108,3.37932886 65.3516399,2.59467004 66.02631,1.92 C67.1703157,0.77599428 68.5783016,0.204 70.25031,0.204 C71.7609842,0.204 73.0333048,0.62932908 74.06731,1.48 C75.1013151,2.33067092 75.7503086,3.55532534 76.01431,5.154 L72.91231,5.154 C72.7509758,4.47932996 72.4576454,3.94033535 72.03231,3.537 C71.6069745,3.13366465 71.0203137,2.932 70.27231,2.932 C69.421639,2.932 68.7689789,3.20333062 68.31431,3.746 C68.1529758,3.92200088 68.0209771,4.10899901 67.91831,4.307 C67.8156428,4.50500099 67.7386436,4.76166509 67.68731,5.077 C67.6359764,5.39233491 67.5993101,5.79566421 67.57731,6.287 C67.5553099,6.77833579 67.54431,7.40532952 67.54431,8.168 C67.54431,8.93067048 67.5553099,9.55766421 67.57731,10.049 C67.5993101,10.5403358 67.6359764,10.9436651 67.68731,11.259 C67.7386436,11.5743349 67.8156428,11.830999 67.91831,12.029 C68.0209771,12.227001 68.1529758,12.4139991 68.31431,12.59 C68.7689789,13.1326694 69.421639,13.404 70.27231,13.404 C71.0203137,13.404 71.6069745,13.2023353 72.03231,12.799 C72.4576454,12.3956646 72.7509758,11.85667 72.91231,11.182 L76.01431,11.182 Z M78.65431,16 L78.65431,0.336 L88.97231,0.336 L88.97231,3.064 L81.71231,3.064 L81.71231,6.738 L87.89431,6.738 L87.89431,9.466 L81.71231,9.466 L81.71231,13.272 L88.97231,13.272 L88.97231,16 L78.65431,16 Z" id="SERVICE" stroke="none" fill-rule="evenodd"></path>
<title>SERVICE</title>
</symbol>


<symbol id="title-works" viewBox="1 0 76 17">
  <path d="M16.18,16 L13.628,16 L10.746,6.496 L7.864,16 L5.312,16 L1.132,0.336 L4.322,0.336 L6.742,10.214 L9.602,0.336 L11.89,0.336 L14.75,10.214 L17.192,0.336 L20.382,0.336 L16.18,16 Z M33.384,8.168 C33.384,8.84267004 33.3766667,9.4733304 33.362,10.06 C33.3473333,10.6466696 33.2923338,11.1966641 33.197,11.71 C33.1016662,12.2233359 32.9476677,12.7036644 32.735,13.151 C32.5223323,13.5983356 32.218002,14.019998 31.822,14.416 C31.2646639,14.9733361 30.6450034,15.3986652 29.963,15.692 C29.2809966,15.9853348 28.4926711,16.132 27.598,16.132 C26.7033289,16.132 25.9113368,15.9853348 25.222,15.692 C24.5326632,15.3986652 23.9093361,14.9733361 23.352,14.416 C22.955998,14.019998 22.6516677,13.5983356 22.439,13.151 C22.2263323,12.7036644 22.0760004,12.2233359 21.988,11.71 C21.8999996,11.1966641 21.8486667,10.6466696 21.834,10.06 C21.8193333,9.4733304 21.812,8.84267004 21.812,8.168 C21.812,7.49332996 21.8193333,6.8626696 21.834,6.276 C21.8486667,5.6893304 21.8999996,5.1393359 21.988,4.626 C22.0760004,4.1126641 22.2263323,3.63233557 22.439,3.185 C22.6516677,2.73766443 22.955998,2.31600198 23.352,1.92 C23.9093361,1.36266388 24.5326632,0.9373348 25.222,0.644 C25.9113368,0.3506652 26.7033289,0.204 27.598,0.204 C28.4926711,0.204 29.2809966,0.3506652 29.963,0.644 C30.6450034,0.9373348 31.2646639,1.36266388 31.822,1.92 C32.218002,2.31600198 32.5223323,2.73766443 32.735,3.185 C32.9476677,3.63233557 33.1016662,4.1126641 33.197,4.626 C33.2923338,5.1393359 33.3473333,5.6893304 33.362,6.276 C33.3766667,6.8626696 33.384,7.49332996 33.384,8.168 L33.384,8.168 Z M30.326,8.168 C30.326,7.41999626 30.3150001,6.80033579 30.293,6.309 C30.2709999,5.81766421 30.230667,5.41066828 30.172,5.088 C30.113333,4.76533172 30.0326672,4.50500099 29.93,4.307 C29.8273328,4.10899901 29.7026674,3.92933414 29.556,3.768 C29.3359989,3.51866542 29.0610017,3.31700077 28.731,3.163 C28.4009984,3.00899923 28.0233355,2.932 27.598,2.932 C27.1726645,2.932 26.791335,3.00899923 26.454,3.163 C26.116665,3.31700077 25.8380011,3.51866542 25.618,3.768 C25.4713326,3.92933414 25.3503338,4.10899901 25.255,4.307 C25.1596662,4.50500099 25.082667,4.76533172 25.024,5.088 C24.965333,5.41066828 24.9250001,5.81766421 24.903,6.309 C24.8809999,6.80033579 24.87,7.41999626 24.87,8.168 C24.87,8.91600374 24.8809999,9.53566421 24.903,10.027 C24.9250001,10.5183358 24.965333,10.9253317 25.024,11.248 C25.082667,11.5706683 25.1596662,11.830999 25.255,12.029 C25.3503338,12.227001 25.4713326,12.4066659 25.618,12.568 C25.8380011,12.8173346 26.116665,13.0189992 26.454,13.173 C26.791335,13.3270008 27.1726645,13.404 27.598,13.404 C28.0233355,13.404 28.4009984,13.3270008 28.731,13.173 C29.0610017,13.0189992 29.3359989,12.8173346 29.556,12.568 C29.7026674,12.4066659 29.8273328,12.227001 29.93,12.029 C30.0326672,11.830999 30.113333,11.5706683 30.172,11.248 C30.230667,10.9253317 30.2709999,10.5183358 30.293,10.027 C30.3150001,9.53566421 30.326,8.91600374 30.326,8.168 L30.326,8.168 Z M44.824,16 L41.766,9.752 L39.566,9.752 L39.566,16 L36.508,16 L36.508,0.336 L42.646,0.336 C43.438004,0.336 44.1493302,0.46433205 44.78,0.721 C45.4106698,0.97766795 45.9459978,1.32233117 46.386,1.755 C46.8260022,2.18766883 47.1596655,2.69366377 47.387,3.273 C47.6143345,3.85233623 47.728,4.4719967 47.728,5.132 C47.728,5.68933612 47.6510008,6.1879978 47.497,6.628 C47.3429992,7.0680022 47.1340013,7.46033161 46.87,7.805 C46.6059987,8.14966839 46.3016684,8.44299879 45.957,8.685 C45.6123316,8.92700121 45.2493352,9.11399934 44.868,9.246 L48.366,16 L44.824,16 Z M44.67,5.132 C44.67,4.51599692 44.4683354,4.01733524 44.065,3.636 C43.6616647,3.25466476 43.12267,3.064 42.448,3.064 L39.566,3.064 L39.566,7.2 L42.448,7.2 C43.12267,7.2 43.6616647,7.00933524 44.065,6.628 C44.4683354,6.24666476 44.67,5.74800308 44.67,5.132 L44.67,5.132 Z M60.004,16 L55.978,8.872 L53.954,11.292 L53.954,16 L50.896,16 L50.896,0.336 L53.954,0.336 L53.954,7.156 L59.476,0.336 L63.194,0.336 L58.002,6.562 L63.568,16 L60.004,16 Z M75.646,11.38 C75.646,12.1426705 75.4956682,12.8173304 75.195,13.404 C74.8943318,13.9906696 74.4836693,14.4856646 73.963,14.889 C73.4423307,15.2923353 72.8300035,15.6003323 72.126,15.813 C71.4219965,16.0256677 70.6593374,16.132 69.838,16.132 C68.6499941,16.132 67.590338,15.9816682 66.659,15.681 C65.727662,15.3803318 64.8806705,14.8413372 64.118,14.064 L66.098,12.084 C66.5966692,12.5826692 67.1686634,12.9273324 67.814,13.118 C68.4593366,13.3086676 69.148663,13.404 69.882,13.404 C70.7913379,13.404 71.4806643,13.2390016 71.95,12.909 C72.4193357,12.5789983 72.654,12.0986698 72.654,11.468 C72.654,10.8959971 72.4926683,10.4560015 72.17,10.148 C72.0086659,10.0013326 71.829001,9.88766707 71.631,9.807 C71.432999,9.72633293 71.1506685,9.65666696 70.784,9.598 L68.892,9.334 C67.5573267,9.14333238 66.5453368,8.71067004 65.856,8.036 C65.1079963,7.28799626 64.734,6.26133986 64.734,4.956 C64.734,4.25199648 64.8586654,3.61033623 65.108,3.031 C65.3573346,2.45166377 65.7166643,1.95300209 66.186,1.535 C66.6553357,1.11699791 67.22733,0.79066784 67.902,0.556 C68.57667,0.32133216 69.3393291,0.204 70.19,0.204 C71.2753388,0.204 72.2213293,0.34333194 73.028,0.622 C73.8346707,0.90066806 74.57533,1.3699967 75.25,2.03 L73.314,3.944 C72.8153308,3.47466432 72.2836695,3.17766729 71.719,3.053 C71.1543305,2.92833271 70.6153359,2.866 70.102,2.866 C69.2806626,2.866 68.672002,3.06033139 68.276,3.449 C67.879998,3.83766861 67.682,4.30333062 67.682,4.846 C67.682,5.05133436 67.7186663,5.24933238 67.792,5.44 C67.8653337,5.63066762 67.9826659,5.80666586 68.144,5.968 C68.3053341,6.1146674 68.5069988,6.24299945 68.749,6.353 C68.9910012,6.46300055 69.2733317,6.53999978 69.596,6.584 L71.444,6.848 C72.1626703,6.95066718 72.7566643,7.10099901 73.226,7.299 C73.6953357,7.49700099 74.098665,7.74999846 74.436,8.058 C74.8613355,8.45400198 75.1693324,8.93066388 75.36,9.488 C75.5506676,10.0453361 75.646,10.6759965 75.646,11.38 L75.646,11.38 Z" id="WORKS" stroke="none" fill-rule="evenodd"></path>
<title>SERVICE</title>
</symbol>










</defs>
</svg>
