<?xml version="1.0" encoding="UTF-8" standalone="no"?>
<svg width="177px" height="37px" viewBox="0 0 177 37" version="1.1" xmlns="http://www.w3.org/2000/svg" xmlns:xlink="http://www.w3.org/1999/xlink">
    <!-- Generator: Sketch 39.1 (31720) - http://www.bohemiancoding.com/sketch -->
    <title>about</title>
    <desc>Created with Sketch.</desc>
    <defs></defs>
    <g id="Page-1" stroke="none" stroke-width="1" fill="none" fill-rule="evenodd">
        <g id="about" fill="#000000">
            <g id="Group">
                <path d="M1.3,19.1 L0.4,18.1 C2.8,15.8 4.7,14.3 6.1,13.6 C7.5,12.9 8.7,12.5 9.7,12.5 C10.1,12.5 10.4,12.6 10.6,12.8 C10.8,13 10.9,13.2 10.9,13.4 C10.9,13.6 10.9,13.9 10.8,14.3 L9.5,19.9 C11.4,17.8 13.8,15.8 16.6,14 C18.1,13.1 19.4,12.6 20.4,12.6 C21.1,12.6 21.7,12.8 22.1,13.3 C22.5,13.8 22.7,14.4 22.7,15.3 C22.7,15.9 22.6,16.5 22.5,17.2 C22.2,18.4 21.4,21 20.2,25.1 C19,28.9 18.4,31.4 18.4,32.6 C18.4,33 18.5,33.3 18.6,33.5 C18.7,33.7 18.9,33.8 19.1,33.8 C19.6,33.8 20.5,33.3 21.6,32.2 C22.4,31.5 23.2,30.8 24,30.1 L24.7,31.1 C23,33 21.2,34.5 19.4,35.6 C18.2,36.3 17.3,36.7 16.5,36.7 C15.8,36.7 15.2,36.4 14.9,35.9 C14.5,35.4 14.3,34.6 14.3,33.4 C14.3,31.7 15.3,27.6 17.4,21.1 C18,18.8 18.3,17.4 18.3,17 C18.3,16.4 18,16.1 17.3,16.1 C16.6,16.1 15.6,16.5 14.4,17.3 C12.7,18.5 11.2,19.8 10,21.4 C9.3,22.4 8.6,24 8.1,26.2 L5.9,36 L1.7,36 C2.5,33.2 3.2,30.5 3.7,28 L6.2,17.4 C6.3,17 6.3,16.7 6.3,16.5 C6.3,16 6.1,15.7 5.7,15.7 C5.4,15.7 5,15.9 4.4,16.3 C3.4,17.1 2.3,18 1.3,19.1 L1.3,19.1 Z" id="Shape"></path>
                <path d="M36.3,19 L35,18.1 C36.9,16.1 38.5,14.6 40.1,13.7 C41.6,12.8 42.9,12.4 44,12.4 C44.6,12.4 45,12.5 45.4,12.8 C45.7,13.1 45.9,13.4 45.9,13.9 C45.9,14.4 45.3,16.7 44.1,20.7 C42.1,27.3 41.2,31.3 41.2,32.6 C41.2,32.9 41.3,33.1 41.4,33.3 C41.5,33.5 41.7,33.6 41.8,33.6 C42.4,33.6 43.9,32.4 46.4,30.1 L47.5,31.2 C45,33.6 43.1,35.1 41.9,35.8 C40.7,36.5 39.8,36.8 39,36.8 C38.4,36.8 37.8,36.6 37.5,36.2 C37.2,35.8 36.9,35.2 36.9,34.5 C36.9,32.2 38.3,26.5 41.1,17.5 C41.2,17.1 41.3,16.7 41.3,16.4 C41.3,16 41.1,15.8 40.8,15.8 C40.4,15.8 40,15.9 39.5,16.2 C38.9,16.5 37.9,17.4 36.3,19 L36.3,19 Z M47.2,0.6 C47.8,0.6 48.2,0.8 48.6,1.2 C49,1.6 49.2,2.1 49.2,2.7 C49.2,3.5 48.9,4.2 48.4,4.9 C47.8,5.5 47.2,5.8 46.5,5.8 C45.9,5.8 45.5,5.6 45.1,5.2 C44.7,4.8 44.5,4.3 44.5,3.7 C44.5,2.9 44.8,2.2 45.3,1.6 C45.8,0.9 46.4,0.6 47.2,0.6 L47.2,0.6 Z" id="Shape"></path>
                <path d="M58.5,19.1 L57.6,18.1 C60,15.8 61.9,14.3 63.3,13.6 C64.7,12.9 65.9,12.5 66.9,12.5 C67.3,12.5 67.6,12.6 67.8,12.8 C68,13 68.1,13.2 68.1,13.4 C68.1,13.6 68.1,13.9 68,14.3 L66.7,19.9 C68.6,17.8 71,15.8 73.8,14 C75.3,13.1 76.6,12.6 77.6,12.6 C78.3,12.6 78.9,12.8 79.3,13.3 C79.7,13.8 79.9,14.4 79.9,15.3 C79.9,15.9 79.8,16.5 79.7,17.2 C79.4,18.4 78.6,21 77.4,25.1 C76.2,28.9 75.6,31.4 75.6,32.6 C75.6,33 75.7,33.3 75.8,33.5 C75.9,33.7 76.1,33.8 76.3,33.8 C76.8,33.8 77.7,33.3 78.8,32.2 C79.6,31.5 80.4,30.8 81.2,30.1 L81.9,31.1 C80.2,33 78.4,34.5 76.6,35.6 C75.4,36.3 74.5,36.7 73.7,36.7 C73,36.7 72.4,36.4 72.1,35.9 C71.7,35.4 71.5,34.6 71.5,33.4 C71.5,31.7 72.5,27.6 74.6,21.1 C75.2,18.8 75.5,17.4 75.5,17 C75.5,16.4 75.2,16.1 74.5,16.1 C73.8,16.1 72.8,16.5 71.6,17.3 C69.9,18.5 68.4,19.8 67.2,21.4 C66.5,22.4 65.8,24 65.3,26.2 L63,36 L58.9,36 C59.7,33.2 60.4,30.5 60.9,28 L63.4,17.4 C63.5,17 63.5,16.7 63.5,16.5 C63.5,16 63.3,15.7 62.9,15.7 C62.6,15.7 62.2,15.9 61.6,16.3 C60.5,17.1 59.5,18 58.5,19.1 L58.5,19.1 Z" id="Shape"></path>
                <path d="M112,12.1 L113.8,11.7 L111.7,18.7 C110.9,21.5 110.1,24.7 109.3,28.4 C108.9,30.4 108.7,31.7 108.7,32.2 C108.7,32.8 108.9,33.1 109.4,33.1 C109.7,33.1 110.2,32.9 110.8,32.5 C112,31.8 113.1,31 114.1,29.9 L115,31 C112.9,32.9 111.5,34.1 110.9,34.5 C109.7,35.3 108.6,35.9 107.5,36.3 C106.8,36.6 106.1,36.7 105.4,36.7 C104.9,36.7 104.6,36.6 104.3,36.4 C104.1,36.2 103.9,35.9 103.9,35.4 C103.9,35.1 104,34.7 104.1,34.3 L105.2,30.5 C103.6,32.4 101.7,34.1 99.5,35.4 C98.1,36.3 96.9,36.7 95.8,36.7 C94.7,36.7 93.9,36.3 93.3,35.6 C92.5,34.6 92.1,33.2 92.1,31.6 C92.1,29.6 92.6,27.4 93.7,25 C94.7,22.6 96.2,20.4 97.9,18.4 C99.7,16.4 101.5,15 103.5,14.1 C105,13.4 106.9,13 109.3,13 C109.9,13 110.5,13 111.1,13.1 L112,12.1 L112,12.1 Z M108.6,16.3 C107.6,16.1 106.8,16 106.1,16 C104.4,16 103,16.5 101.7,17.4 C100.5,18.3 99.3,20 98.2,22.4 C97.1,24.8 96.6,27.2 96.6,29.5 C96.6,30.8 96.8,31.7 97.2,32.2 C97.6,32.8 98.2,33 98.9,33 C100.2,33 101.6,32.3 103,30.9 C104.5,29.5 105.5,27.5 106.2,24.9 L108.6,16.3 L108.6,16.3 Z" id="Shape"></path>
                <path d="M145.5,13.4 L145.5,9.5 L150.4,9.5 L150.4,13.4 L145.5,13.4 L145.5,13.4 Z M145.6,36 L145.6,16.7 L150.4,16.7 L150.4,36 L145.6,36 L145.6,36 Z" id="Shape"></path>
                <path d="M176.8,29.9 C176.8,31 176.6,31.9 176.2,32.7 C175.8,33.5 175.2,34.1 174.5,34.7 C173.8,35.3 172.9,35.6 171.9,35.9 C170.9,36.2 169.8,36.3 168.7,36.3 C167.9,36.3 167.2,36.3 166.5,36.2 C165.8,36.1 165.1,36 164.4,35.8 C163.7,35.6 163,35.3 162.4,35 C161.8,34.6 161.1,34.2 160.5,33.6 L163.6,30.5 C164.4,31.3 165.3,31.8 166.2,32 C167.1,32.2 168,32.3 168.7,32.3 C169.1,32.3 169.5,32.3 169.9,32.2 C170.3,32.1 170.7,32 171,31.8 C171.3,31.6 171.6,31.4 171.8,31.2 C172,31 172.1,30.6 172.1,30.3 C172.1,29.8 172,29.4 171.7,29.1 C171.4,28.8 170.9,28.6 170.1,28.5 L167.1,28.2 C165.3,28 164,27.5 163,26.7 C162,25.9 161.5,24.6 161.5,22.8 C161.5,21.8 161.7,20.9 162.1,20.2 C162.5,19.4 163,18.8 163.7,18.3 C164.4,17.8 165.2,17.4 166.1,17.1 C167,16.8 167.9,16.7 168.9,16.7 C170.4,16.7 171.8,16.9 173,17.2 C174.2,17.5 175.3,18.1 176.3,19 L173.3,22 C172.7,21.5 172.1,21.2 171.3,21 C170.5,20.8 169.7,20.7 168.9,20.7 C167.9,20.7 167.2,20.9 166.8,21.3 C166.4,21.7 166.2,22.1 166.2,22.6 C166.2,22.8 166.2,23 166.3,23.1 C166.4,23.2 166.4,23.5 166.6,23.6 C166.7,23.7 167,23.9 167.2,24 C167.5,24.1 167.8,24.2 168.2,24.2 L171.2,24.5 C173.1,24.7 174.6,25.3 175.5,26.3 C176.3,27 176.8,28.3 176.8,29.9 L176.8,29.9 Z" id="Shape"></path>
            </g>
        </g>
    </g>
</svg>