<?xml version="1.0" encoding="utf-8"?>
<!-- Generator: Adobe Illustrator 20.0.0, SVG Export Plug-In . SVG Version: 6.00 Build 0)  -->
<svg version="1.1" id="レイヤー_1" xmlns="http://www.w3.org/2000/svg" xmlns:xlink="http://www.w3.org/1999/xlink" x="0px"
	 y="0px" viewBox="0 0 258 155.9" style="enable-background:new 0 0 258 155.9;" xml:space="preserve">
<style type="text/css">
	.st0{fill:#202020;}
</style>
<g>
	<path class="st0" d="M7.3,54.1l-0.9-1c2.4-2.3,4.3-3.8,5.7-4.5c1.4-0.7,2.6-1.1,3.6-1.1c0.4,0,0.7,0.1,0.9,0.3s0.3,0.4,0.3,0.6
		c0,0.2,0,0.5-0.1,0.9l-1.3,5.6c1.9-2.1,4.3-4.1,7.1-5.9c1.5-0.9,2.8-1.4,3.8-1.4c0.7,0,1.3,0.2,1.7,0.7c0.4,0.5,0.6,1.1,0.6,2
		c0,0.6-0.1,1.2-0.2,1.9c-0.3,1.2-1.1,3.8-2.3,7.9c-1.2,3.8-1.8,6.3-1.8,7.5c0,0.4,0.1,0.7,0.2,0.9c0.1,0.2,0.3,0.3,0.5,0.3
		c0.5,0,1.4-0.5,2.5-1.6c0.8-0.7,1.6-1.4,2.4-2.1l0.7,1c-1.7,1.9-3.5,3.4-5.3,4.5c-1.2,0.7-2.1,1.1-2.9,1.1c-0.7,0-1.3-0.3-1.6-0.8
		c-0.4-0.5-0.6-1.3-0.6-2.5c0-1.7,1-5.8,3.1-12.3c0.6-2.3,0.9-3.7,0.9-4.1c0-0.6-0.3-0.9-1-0.9c-0.7,0-1.7,0.4-2.9,1.2
		c-1.7,1.2-3.2,2.5-4.4,4.1c-0.7,1-1.4,2.6-1.9,4.8L11.9,71H7.7c0.8-2.8,1.5-5.5,2-8l2.5-10.6c0.1-0.4,0.1-0.7,0.1-0.9
		c0-0.5-0.2-0.8-0.6-0.8c-0.3,0-0.7,0.2-1.3,0.6C9.4,52.1,8.3,53,7.3,54.1z"/>
	<path class="st0" d="M42.3,54L41,53.1c1.9-2,3.5-3.5,5.1-4.4c1.5-0.9,2.8-1.3,3.9-1.3c0.6,0,1,0.1,1.4,0.4c0.3,0.3,0.5,0.6,0.5,1.1
		c0,0.5-0.6,2.8-1.8,6.8c-2,6.6-2.9,10.6-2.9,11.9c0,0.3,0.1,0.5,0.2,0.7c0.1,0.2,0.3,0.3,0.4,0.3c0.6,0,2.1-1.2,4.6-3.5l1.1,1.1
		c-2.5,2.4-4.4,3.9-5.6,4.6s-2.1,1-2.9,1c-0.6,0-1.2-0.2-1.5-0.6s-0.6-1-0.6-1.7c0-2.3,1.4-8,4.2-17c0.1-0.4,0.2-0.8,0.2-1.1
		c0-0.4-0.2-0.6-0.5-0.6c-0.4,0-0.8,0.1-1.3,0.4C44.9,51.5,43.9,52.4,42.3,54z M53.2,35.6c0.6,0,1,0.2,1.4,0.6
		c0.4,0.4,0.6,0.9,0.6,1.5c0,0.8-0.3,1.5-0.8,2.2c-0.6,0.6-1.2,0.9-1.9,0.9c-0.6,0-1-0.2-1.4-0.6c-0.4-0.4-0.6-0.9-0.6-1.5
		c0-0.8,0.3-1.5,0.8-2.1C51.8,35.9,52.4,35.6,53.2,35.6z"/>
	<path class="st0" d="M64.5,54.1l-0.9-1c2.4-2.3,4.3-3.8,5.7-4.5c1.4-0.7,2.6-1.1,3.6-1.1c0.4,0,0.7,0.1,0.9,0.3s0.3,0.4,0.3,0.6
		c0,0.2,0,0.5-0.1,0.9l-1.3,5.6c1.9-2.1,4.3-4.1,7.1-5.9c1.5-0.9,2.8-1.4,3.8-1.4c0.7,0,1.3,0.2,1.7,0.7c0.4,0.5,0.6,1.1,0.6,2
		c0,0.6-0.1,1.2-0.2,1.9c-0.3,1.2-1.1,3.8-2.3,7.9c-1.2,3.8-1.8,6.3-1.8,7.5c0,0.4,0.1,0.7,0.2,0.9c0.1,0.2,0.3,0.3,0.5,0.3
		c0.5,0,1.4-0.5,2.5-1.6c0.8-0.7,1.6-1.4,2.4-2.1l0.7,1c-1.7,1.9-3.5,3.4-5.3,4.5c-1.2,0.7-2.1,1.1-2.9,1.1c-0.7,0-1.3-0.3-1.6-0.8
		c-0.4-0.5-0.6-1.3-0.6-2.5c0-1.7,1-5.8,3.1-12.3c0.6-2.3,0.9-3.7,0.9-4.1c0-0.6-0.3-0.9-1-0.9c-0.7,0-1.7,0.4-2.9,1.2
		c-1.7,1.2-3.2,2.5-4.4,4.1c-0.7,1-1.4,2.6-1.9,4.8L69,71h-4.1c0.8-2.8,1.5-5.5,2-8l2.5-10.6c0.1-0.4,0.1-0.7,0.1-0.9
		c0-0.5-0.2-0.8-0.6-0.8c-0.3,0-0.7,0.2-1.3,0.6C66.5,52.1,65.5,53,64.5,54.1z"/>
	<path class="st0" d="M118,47.1l1.8-0.4l-2.1,7c-0.8,2.8-1.6,6-2.4,9.7c-0.4,2-0.6,3.3-0.6,3.8c0,0.6,0.2,0.9,0.7,0.9
		c0.3,0,0.8-0.2,1.4-0.6c1.2-0.7,2.3-1.5,3.3-2.6l0.9,1.1c-2.1,1.9-3.5,3.1-4.1,3.5c-1.2,0.8-2.3,1.4-3.4,1.8
		c-0.7,0.3-1.4,0.4-2.1,0.4c-0.5,0-0.8-0.1-1.1-0.3c-0.2-0.2-0.4-0.5-0.4-1c0-0.3,0.1-0.7,0.2-1.1l1.1-3.8c-1.6,1.9-3.5,3.6-5.7,4.9
		c-1.4,0.9-2.6,1.3-3.7,1.3c-1.1,0-1.9-0.4-2.5-1.1c-0.8-1-1.2-2.4-1.2-4c0-2,0.5-4.2,1.6-6.6c1-2.4,2.5-4.6,4.2-6.6
		c1.8-2,3.6-3.4,5.6-4.3c1.5-0.7,3.4-1.1,5.8-1.1c0.6,0,1.2,0,1.8,0.1L118,47.1z M114.6,51.3c-1-0.2-1.8-0.3-2.5-0.3
		c-1.7,0-3.1,0.5-4.4,1.4c-1.2,0.9-2.4,2.6-3.5,5c-1.1,2.4-1.6,4.8-1.6,7.1c0,1.3,0.2,2.2,0.6,2.7c0.4,0.6,1,0.8,1.7,0.8
		c1.3,0,2.7-0.7,4.1-2.1c1.5-1.4,2.5-3.4,3.2-6L114.6,51.3z"/>
	<path class="st0" d="M151.5,48.4v-3.9h4.9v3.9H151.5z M151.6,71V51.7h4.8V71H151.6z"/>
	<path class="st0" d="M182.8,64.9c0,1.1-0.2,2-0.6,2.8c-0.4,0.8-1,1.4-1.7,2s-1.6,0.9-2.6,1.2s-2.1,0.4-3.2,0.4
		c-0.8,0-1.5,0-2.2-0.1c-0.7-0.1-1.4-0.2-2.1-0.4c-0.7-0.2-1.4-0.5-2-0.8c-0.6-0.4-1.3-0.8-1.9-1.4l3.1-3.1c0.8,0.8,1.7,1.3,2.6,1.5
		c0.9,0.2,1.8,0.3,2.5,0.3c0.4,0,0.8,0,1.2-0.1c0.4-0.1,0.8-0.2,1.1-0.4s0.6-0.4,0.8-0.6s0.3-0.6,0.3-0.9c0-0.5-0.1-0.9-0.4-1.2
		c-0.3-0.3-0.8-0.5-1.6-0.6l-3-0.3c-1.8-0.2-3.1-0.7-4.1-1.5s-1.5-2.1-1.5-3.9c0-1,0.2-1.9,0.6-2.6c0.4-0.8,0.9-1.4,1.6-1.9
		c0.7-0.5,1.5-0.9,2.4-1.2c0.9-0.3,1.8-0.4,2.8-0.4c1.5,0,2.9,0.2,4.1,0.5c1.2,0.3,2.3,0.9,3.3,1.8l-3,3c-0.6-0.5-1.2-0.8-2-1
		c-0.8-0.2-1.6-0.3-2.4-0.3c-1,0-1.7,0.2-2.1,0.6c-0.4,0.4-0.6,0.8-0.6,1.3c0,0.2,0,0.4,0.1,0.5s0.1,0.4,0.3,0.5
		c0.1,0.1,0.4,0.3,0.6,0.4c0.3,0.1,0.6,0.2,1,0.2l3,0.3c1.9,0.2,3.4,0.8,4.3,1.8C182.3,62,182.8,63.3,182.8,64.9z"/>
</g>
</svg>
