<?xml version="1.0" encoding="UTF-8" standalone="no"?>
<svg viewBox="0 0 44 46" version="1.1" xmlns="http://www.w3.org/2000/svg" xmlns:xlink="http://www.w3.org/1999/xlink">
    <!-- Generator: Sketch 39.1 (31720) - http://www.bohemiancoding.com/sketch -->
    <title>Icon</title>
    <desc>Created with Sketch.</desc>
    <defs></defs>
    <g id="Page-1" stroke="none" fill-rule="evenodd">
        <g id="Artboard-1" transform="translate(-745.000000, -1030.000000)">
            <g id="Icon" transform="translate(747.000000, 1032.000000)">
                <path d="M25.9968,20.7216 C25.9968,24.0356 23.3108,26.7216 19.9968,26.7216 C16.6828,26.7216 13.9968,24.0356 13.9968,20.7216 C13.9968,17.4076 16.6828,14.7216 19.9968,14.7216 C23.3108,14.7216 25.9968,17.4076 25.9968,20.7216 L25.9968,20.7216 Z" id="Stroke-146"></path>
                <path d="M36.3533,25.5248 C36.9013,23.8548 37.2083,22.0758 37.2083,20.2228 C37.2083,18.3648 36.8993,16.5818 36.3483,14.9078 L39.4343,12.7098 C39.8843,12.3898 39.9893,11.7648 39.6683,11.3148 L35.0273,4.7988 C34.7063,4.3498 34.0823,4.2448 33.6323,4.5648 L30.4513,6.7568 C28.8643,5.5348 27.0003,4.5758 25.0003,3.9728 L25.0003,0.9998 C25.0003,-0.0002 24.7603,-0.0002 24.2083,-0.0002 L16.2083,-0.0002 L15.0003,0.9998 L15.0003,3.9728 C13.0003,4.5958 11.2183,5.5968 9.5923,6.8788 L6.2633,4.5148 C5.8113,4.1978 5.2133,4.3078 4.8973,4.7608 L0.3243,11.3158 C0.0083,11.7688 0.1253,12.3918 0.5773,12.7088 L3.9953,15.0968 C3.4833,16.7148 3.2063,18.4358 3.2063,20.2228 C3.2063,22.1068 3.5263,23.9138 4.0923,25.6078 L0.9813,27.8238 C0.5313,28.1448 0.4263,28.7688 0.7473,29.2188 L5.3893,35.7348 C5.7093,36.1838 6.3333,36.2888 6.7833,35.9688 L9.8163,33.7338 C11.3893,34.9338 13.0003,35.8778 15.0003,36.4728 L15.0003,40.3108 C15.0003,40.8628 15.6553,41.9998 16.2083,41.9998 L24.2083,41.9998 C24.7603,41.9998 25.0003,40.8628 25.0003,40.3108 L25.0003,36.4728 C27.0003,35.8688 28.8723,34.9068 30.4633,33.6808 L33.3813,35.6858 C33.8343,36.0028 34.4833,35.8928 34.8003,35.4398 L39.3983,28.8838 C39.7153,28.4318 39.6113,27.8078 39.1583,27.4918 L36.3533,25.5248 L36.3533,25.5248 Z" id="Stroke-148" stroke-linejoin="round"></path>
            </g>
        </g>
    </g>
</svg>
