<?xml version="1.0" encoding="utf-8"?>
<!-- Generator: Adobe Illustrator 20.0.0, SVG Export Plug-In . SVG Version: 6.00 Build 0)  -->
<svg version="1.1" id="レイヤー_1" xmlns="http://www.w3.org/2000/svg" xmlns:xlink="http://www.w3.org/1999/xlink" x="0px"
	 y="0px" viewBox="0 0 595.3 841.9" style="enable-background:new 0 0 595.3 841.9;" xml:space="preserve">
<style type="text/css">
	.st0{fill:#231815;}
</style>
<g>
	<path class="st0" d="M36.1,66.3h29.4v12c6.7-5.6,12.7-9.5,18.1-11.7c5.4-2.2,11-3.3,16.6-3.3c11.6,0,21.5,4.1,29.6,12.2
		c6.8,6.9,10.2,17.1,10.2,30.6v77.5H111v-51.3c0-14-0.6-23.3-1.9-27.9c-1.3-4.6-3.4-8.1-6.6-10.5s-7-3.6-11.6-3.6
		c-6,0-11.1,2-15.3,6c-4.3,4-7.2,9.5-8.9,16.5c-0.9,3.7-1.3,11.6-1.3,23.8v47H36.1V66.3z"/>
	<path class="st0" d="M171.2,18c5.2,0,9.6,1.9,13.3,5.6c3.7,3.7,5.5,8.3,5.5,13.6c0,5.2-1.8,9.7-5.5,13.4c-3.7,3.7-8,5.6-13.1,5.6
		c-5.2,0-9.7-1.9-13.4-5.7c-3.7-3.8-5.5-8.4-5.5-13.7c0-5.2,1.8-9.6,5.5-13.3S166.1,18,171.2,18z M156.5,66.3h29.4v117.3h-29.4V66.3
		z"/>
	<path class="st0" d="M212.7,66.3h29.4v12c6.7-5.6,12.7-9.5,18.1-11.7c5.4-2.2,11-3.3,16.6-3.3c11.6,0,21.5,4.1,29.6,12.2
		c6.8,6.9,10.2,17.1,10.2,30.6v77.5h-29.1v-51.3c0-14-0.6-23.3-1.9-27.9c-1.3-4.6-3.4-8.1-6.6-10.5s-7-3.6-11.6-3.6
		c-6,0-11.1,2-15.3,6c-4.3,4-7.2,9.5-8.9,16.5c-0.9,3.7-1.3,11.6-1.3,23.8v47h-29.4V66.3z"/>
	<path class="st0" d="M422.8,66.3h29.4v117.3h-29.4v-12.4c-5.7,5.5-11.5,9.4-17.3,11.8s-12,3.6-18.8,3.6c-15.1,0-28.2-5.9-39.3-17.6
		s-16.6-26.4-16.6-43.8c0-18.1,5.3-32.9,16-44.5c10.7-11.6,23.7-17.4,39-17.4c7,0,13.6,1.3,19.8,4c6.2,2.7,11.9,6.6,17.1,12V66.3z
		 M391.9,90.4c-9.1,0-16.6,3.2-22.7,9.6c-6,6.4-9,14.7-9,24.7c0,10.1,3.1,18.5,9.2,25c6.1,6.5,13.7,9.8,22.6,9.8
		c9.2,0,16.9-3.2,23-9.6c6.1-6.4,9.1-14.9,9.1-25.3c0-10.2-3-18.5-9.1-24.8C408.9,93.6,401.2,90.4,391.9,90.4z"/>
	<path class="st0" d="M498,152.8c4.7,0,8.7,1.6,12,4.9c3.3,3.3,5,7.2,5,11.9s-1.7,8.7-5,12c-3.3,3.3-7.3,5-12,5c-4.7,0-8.7-1.7-12-5
		c-3.3-3.3-5-7.3-5-12s1.7-8.6,5-11.9C489.4,154.5,493.4,152.8,498,152.8z"/>
</g>
</svg>
