<?xml version="1.0" encoding="UTF-8" standalone="no"?>
<svg viewBox="0 0 196 79" version="1.1" xmlns="http://www.w3.org/2000/svg" xmlns:xlink="http://www.w3.org/1999/xlink">
    <!-- Generator: Sketch 39.1 (31720) - http://www.bohemiancoding.com/sketch -->
    <title>Page 1</title>
    <desc>Created with Sketch.</desc>
    <defs>
        <polygon id="path-1" points="0 78.082913 195.65131 78.082913 195.65131 0 0 0"></polygon>
    </defs>
    <g id="Page-1" stroke="none" stroke-width="1" fill="none" fill-rule="evenodd">
        <g>
            <path d="M0,22.3662739 L13.545931,22.3662739 L13.545931,27.9340565 C16.6183448,25.3270565 19.4005862,23.5169261 21.896069,22.4967957 C24.3881379,21.4766652 26.9416552,20.9683174 29.5497931,20.9683174 C34.8992069,20.9683174 39.4429655,22.8505783 43.1742414,26.6082304 C46.314931,29.806013 47.8818621,34.5322739 47.8818621,40.787013 L47.8818621,76.6839261 L34.4861379,76.6839261 L34.4861379,52.8980565 C34.4861379,46.4166217 34.1959655,42.1094043 33.6190345,39.9832739 C33.0421034,37.8537087 32.0350345,36.2359261 30.5978276,35.1196217 C29.1640345,34.0067522 27.3888621,33.4503174 25.2791379,33.4503174 C22.5378621,33.4503174 20.1891724,34.3708391 18.2228276,36.2187522 C16.2598966,38.0632304 14.8977931,40.6152739 14.139931,43.8714478 C13.743931,45.5682304 13.545931,49.240013 13.545931,54.8936652 L13.545931,76.6839261 L0,76.6839261 L0,22.3662739 L0,22.3662739 Z" id="Fill-1"></path>
            <mask id="mask-2" fill="white">
                <use xlink:href="#path-1"></use>
            </mask>
            <g id="Clip-4"></g>
            <path d="M59.4921724,76.6849565 L73.0381034,76.6849565 L73.0381034,22.3673043 L59.4921724,22.3673043 L59.4921724,76.6849565 Z M66.2651379,0 C68.6411379,0 70.6757586,0.865565217 72.3758276,2.59669565 C74.0758966,4.32782609 74.925931,6.42304348 74.925931,8.88578261 C74.925931,11.3176087 74.0827241,13.3887826 72.3997241,15.1027391 C70.7201379,16.8166957 68.706,17.6719565 66.3641379,17.6719565 C63.9574138,17.6719565 61.9023103,16.7995217 60.2056552,15.0512174 C58.5055862,13.3063478 57.6555517,11.1836522 57.6555517,8.68656522 C57.6555517,6.28908696 58.4987586,4.24195652 60.1783448,2.54517391 C61.8613448,0.848391304 63.8925517,0 66.2651379,0 L66.2651379,0 Z" id="Fill-3" fill="#000000" mask="url(#mask-2)"></path>
            <path d="M85.3448276,22.3662739 L98.8907586,22.3662739 L98.8907586,27.9340565 C101.963172,25.3270565 104.745414,23.5169261 107.240897,22.4967957 C109.732966,21.4766652 112.286483,20.9683174 114.894621,20.9683174 C120.244034,20.9683174 124.787793,22.8505783 128.519069,26.6082304 C131.659759,29.806013 133.22669,34.5322739 133.22669,40.787013 L133.22669,76.6839261 L119.830966,76.6839261 L119.830966,52.8980565 C119.830966,46.4166217 119.540793,42.1094043 118.963862,39.9832739 C118.386931,37.8537087 117.379862,36.2359261 115.942655,35.1196217 C114.508862,34.0067522 112.73369,33.4503174 110.623966,33.4503174 C107.88269,33.4503174 105.530586,34.3708391 103.567655,36.2187522 C101.604724,38.0632304 100.242621,40.6152739 99.4847586,43.8714478 C99.0887586,45.5682304 98.8907586,49.240013 98.8907586,54.8936652 L98.8907586,76.6839261 L85.3448276,76.6839261 L85.3448276,22.3662739 Z" id="Fill-5" fill="#000000" mask="url(#mask-2)"></path>
            <path d="M167.865424,33.5492391 C163.680114,33.5492391 160.201459,35.0399348 157.432872,38.0178913 C154.660872,40.9958478 153.278286,44.8153261 153.278286,49.4763261 C153.278286,54.1682391 154.684769,58.0289348 157.504562,61.058413 C160.324355,64.0878913 163.792769,65.6026304 167.916631,65.6026304 C172.170217,65.6026304 175.696666,64.1119348 178.495976,61.1339783 C181.2987,58.1560217 182.701769,54.2506739 182.701769,49.4248043 C182.701769,44.6985435 181.2987,40.8721957 178.495976,37.9423261 C175.696666,35.0158913 172.153148,33.5492391 167.865424,33.5492391 L167.865424,33.5492391 Z M182.107769,22.365587 L195.6537,22.365587 L195.6537,76.6866739 L182.107769,76.6866739 L182.107769,70.9437174 C179.462079,73.4717174 176.809562,75.295587 174.153631,76.4118913 C171.490872,77.5247609 168.609631,78.0811957 165.503079,78.0811957 C158.532114,78.0811957 152.499941,75.3608478 147.41339,69.9201522 C142.323424,64.4794565 139.780148,57.7129348 139.780148,49.6240217 C139.780148,41.2362826 142.241493,34.3667174 147.164183,29.0050217 C152.086872,23.6467609 158.067838,20.9676304 165.107079,20.9676304 C168.346769,20.9676304 171.385045,21.5858913 174.225321,22.8155435 C177.065597,24.0486304 179.694217,25.8931087 182.107769,28.3558478 L182.107769,22.365587 Z" id="Fill-6" fill="#000000" mask="url(#mask-2)"></path>
        </g>
    </g>
</svg>
