<?xml version="1.0" encoding="UTF-8" standalone="no"?>
<svg width="763px" height="243px" viewBox="0 0 763 243" version="1.1" xmlns="http://www.w3.org/2000/svg" xmlns:xlink="http://www.w3.org/1999/xlink">
    <!-- Generator: Sketch 39.1 (31720) - http://www.bohemiancoding.com/sketch -->
    <title>Page 1</title>
    <desc>Created with Sketch.</desc>
    <defs></defs>
    <g id="Page-1" stroke="none" stroke-width="1" fill="none" fill-rule="evenodd">
        <g id="Desktop-HD" transform="translate(-50.000000, -94.000000)">
            <g id="Page-1" transform="translate(50.000000, 94.000000)">
                <path d="M255.083899,125.386034 C255.083899,129.21223 254.230182,133.084779 252.522747,137.010704 C250.809705,140.935224 248.851342,144.611126 246.646255,148.031386 C243.834175,152.257901 240.468369,157.013958 236.551643,162.298155 C232.633514,167.582351 228.287826,172.940993 223.51598,178.375484 C218.745536,183.81138 213.62183,189.12086 208.147665,194.303924 C202.673499,199.488392 196.998872,204.09275 191.12238,208.116999 C185.245888,212.144057 179.243232,215.390143 173.120017,217.853854 C166.992597,220.321779 160.915643,221.553635 154.889154,221.553635 C148.355202,221.553635 143.008604,220.193958 138.840949,217.477415 C134.671892,214.759467 131.257022,211.187508 128.594938,206.758727 C125.932854,202.331351 123.873558,197.273299 122.417052,191.585976 C120.960545,185.900057 119.633008,180.087721 118.42743,174.14897 C117.015782,166.902513 115.637778,160.764305 114.280802,155.730132 C112.925228,150.700172 111.519188,146.597265 110.062681,143.427028 C108.606175,140.256791 107.072567,137.967253 105.468868,136.558415 C103.862366,135.149577 102.154931,134.444455 100.346564,134.444455 C96.8265563,134.444455 93.1649637,136.004993 89.3477673,139.124664 C85.5263655,142.245739 81.5129123,146.445565 77.2947912,151.729762 C73.0752683,157.013958 68.6286481,163.079126 63.9577343,169.922455 C59.2868206,176.76719 54.393015,183.861947 49.2693086,191.208132 C46.1544316,195.638317 42.9400242,199.915398 39.6260866,204.040779 C36.3107472,208.16897 33.0725086,211.943195 29.9071655,215.363455 C26.7432242,218.786525 23.7545123,221.730617 20.9424316,224.195733 C18.128949,226.662253 15.6701306,228.448935 13.5603692,229.554375 C11.3496756,229.052924 9.38991046,228.373086 7.68387743,227.516265 C5.97504073,226.662253 4.56900037,225.303982 3.46575633,223.440045 C2.35970862,221.578918 1.50599119,219.088519 0.904604037,215.967444 C0.301815046,212.849178 0.000420550459,208.772958 0.000420550459,203.738785 C0.000420550459,199.915398 0.226115963,195.184623 0.677506789,189.547866 C1.13029945,183.912513 1.73308844,178.049612 2.48587376,171.960565 C3.23865908,165.871519 4.04191046,159.934172 4.89702972,154.145716 C5.74934532,148.360068 6.62969761,143.403149 7.5338811,139.274958 C8.13667009,136.558415 8.61189211,133.840467 8.9651545,131.122519 C9.31561321,128.405976 9.66607193,125.86501 10.0193343,123.499623 C10.369793,121.134236 10.7216536,119.021681 11.0735141,117.157745 C11.4239728,115.298022 11.9034004,113.761363 12.5047875,112.553386 C14.5136169,108.428005 16.5224462,105.080785 18.5326774,102.514536 C20.540105,99.9482879 22.8503288,98.6644613 25.463349,98.6644613 C26.2651985,98.6644613 27.3460132,98.7669988 28.7029894,98.9664555 C30.0585637,99.1687214 31.3636719,99.5971318 32.619716,100.250282 C33.8743582,100.904837 34.979004,101.834698 35.9350554,103.042675 C36.8883031,104.250652 37.3663288,105.81119 37.3663288,107.722883 C37.3663288,112.553386 36.5616756,118.139577 34.9551728,124.480051 C33.3472683,130.820525 31.7393637,137.312698 30.1342628,143.955166 C29.5314738,146.673114 28.7772866,149.767502 27.8731031,153.239733 C26.9703215,156.711964 26.1404352,160.260045 25.3876499,163.882571 C24.6348646,167.506502 23.9802077,171.054583 23.4292866,174.526814 C22.8755618,177.999045 22.6008022,181.044271 22.6008022,183.659681 C22.6008022,184.064213 22.5741673,184.717363 22.5251031,185.623346 C22.4732352,186.527924 22.4227692,187.485877 22.373705,188.491588 C22.3232389,189.498704 22.2994077,190.453849 22.2994077,191.359831 C22.2994077,192.265814 22.398938,192.970935 22.6008022,193.472386 C25.9147398,191.15897 29.4291398,187.536444 33.1468059,182.603403 C36.8630701,177.673172 40.6045673,172.313126 44.3726994,166.524669 C48.1380279,160.739022 51.8318628,154.95197 55.4471949,149.163513 C59.0639288,143.377866 62.474593,138.471513 65.6932059,134.444455 C69.0071435,130.118213 72.1164132,126.292016 75.0336316,122.97008 C77.9466444,119.649548 80.9605894,116.85575 84.0740646,114.591496 C87.1833343,112.327242 90.5253086,110.617814 94.0915765,109.458999 C97.6578444,108.302993 101.798865,107.722883 106.52445,107.722883 C111.742079,107.722883 116.089169,109.057276 119.554505,111.723253 C123.019841,114.392039 125.882388,117.889554 128.143547,122.215797 C130.403305,126.544849 132.187841,131.527051 133.494351,137.160999 C134.795254,142.799161 135.904105,148.535646 136.808288,154.37186 C137.809199,160.612606 138.863378,166.325213 139.97223,171.506872 C141.078277,176.69134 142.557213,181.12012 144.414644,184.791808 C146.273477,188.46771 148.611738,191.335953 151.423819,193.397941 C154.231694,195.461334 157.847026,196.492328 162.271217,196.492328 C168.299107,196.492328 174.198028,194.832062 179.973588,191.510126 C185.749147,188.189594 192.103665,183.357687 199.034336,177.017213 C210.58125,166.551357 220.452971,156.586953 228.639687,147.125403 C236.825,137.666664 244.331826,129.111097 251.167173,121.461513 C251.467166,121.965773 252.193316,122.418062 253.348428,122.819785 C254.50354,123.222912 255.083899,124.078328 255.083899,125.386034" id="Fill-1" fill="#231814"></path>
                <path d="M285.156201,12.0769595 C285.156201,18.6196994 283.445963,24.2058902 280.033897,28.8341272 C276.718557,33.4651734 271.844377,35.7785896 265.418366,35.7785896 C261.400708,35.7785896 256.928854,35.1746012 252.008414,33.9680289 C247.187504,32.760052 244.776348,30.7977919 244.776348,28.0798439 C244.776348,23.1496127 246.30575,18.4441214 249.372964,13.9647746 C252.435974,9.48683237 256.127005,5.8376185 260.446058,3.01853757 C263.96186,1.00711561 266.221618,-5.68434189e-14 267.226733,-5.68434189e-14 C272.951827,-5.68434189e-14 277.371812,0.780971098 280.485287,2.34010405 C283.597361,3.90064162 285.156201,7.14672832 285.156201,12.0769595 M381.507115,141.841769 L381.507115,142.143763 C381.507115,144.358855 380.501999,147.27626 378.49317,150.900191 C376.481537,154.522717 373.797023,158.598936 370.432619,163.12885 C367.065412,167.657358 363.17532,172.487861 358.755335,177.621763 C354.333948,182.75426 349.716304,187.938728 344.893992,193.170954 C339.168898,199.209434 333.216708,205.021769 327.040223,210.60796 C320.862337,216.19415 314.157361,221.604763 306.925295,226.836988 C292.860686,237.305653 280.307254,242.537879 269.257992,242.537879 C257.104084,242.537879 247.659922,238.461659 240.932517,230.30922 C234.202308,222.057052 229.632326,212.094052 227.22117,200.41741 C224.811416,188.844711 223.605838,176.918046 223.605838,164.637416 C223.605838,159.504919 224.208627,151.504179 225.414205,140.633792 C226.015592,135.199301 226.618381,130.519092 227.22117,126.593168 C227.823959,122.668647 228.477214,119.49841 229.180935,117.082457 C230.586975,112.353087 233.549052,108.226301 238.06997,104.703503 C242.687614,100.979844 247.509926,99.1173121 252.534102,99.1173121 C255.246652,99.1173121 256.602227,101.683561 256.602227,106.817462 C256.602227,110.240532 256.275599,114.114486 255.622344,118.440728 C254.967687,122.76978 254.289199,127.046861 253.588282,131.273376 C252.283174,139.226358 251.328524,146.346399 250.725735,152.636306 C250.122946,158.927618 249.821552,164.387393 249.821552,169.01563 C249.821552,179.282029 251.227592,189.548428 254.041074,199.813422 C256.850352,210.381815 261.926396,215.666012 269.257992,215.666012 C276.691922,215.666012 285.327225,212.948064 295.173713,207.513572 C300.092752,204.695896 305.017397,201.576225 309.93924,198.153156 C314.858278,194.731491 319.782924,190.906699 324.704766,186.67878 C329.827071,182.452266 334.649383,178.200468 339.168898,173.921983 C343.688414,169.646306 348.209331,165.241405 352.728847,160.712896 C357.249764,156.182983 361.24219,151.956468 364.707526,148.031948 C368.172862,144.106023 371.209236,140.483497 373.822256,137.161561 C374.02412,136.759838 374.425045,136.005555 375.027834,134.897306 C375.630623,133.790462 376.181544,133.23704 376.684803,133.23704 L376.986197,133.387335 C377.790851,133.387335 378.39364,133.665451 378.794564,134.217468 C379.194087,134.772295 379.64688,135.602428 380.150139,136.709272 C381.152451,138.924364 381.605243,140.633792 381.507115,141.841769" id="Fill-3" fill="#231814"></path>
                <path d="M620.618648,132.179639 C620.618648,134.092738 620.292021,136.029714 619.638766,137.991975 C618.984109,139.954235 618.182259,141.916495 617.229011,143.88016 C616.271558,145.84242 615.194949,147.755518 613.989371,149.616645 C612.783793,151.479177 611.628681,153.265859 610.524035,154.975287 C607.608219,159.5052 604.196153,164.109558 600.278024,168.789766 C596.361298,173.469975 592.165606,178.025171 587.697958,182.452547 C583.227507,186.881327 578.632292,191.057275 573.910912,194.9832 C569.188131,198.90772 564.569085,202.379951 560.049569,205.399894 C556.434237,207.814443 552.991331,210.080102 549.729261,212.192657 C546.464388,214.306616 543.174281,216.118582 539.860343,217.628553 C536.545004,219.137119 533.079668,220.345096 529.464336,221.251079 C525.847602,222.157061 521.877606,222.60935 517.561356,222.60935 C509.221841,222.60935 502.441166,220.496795 497.220732,216.268876 C494.60631,214.156321 492.324123,211.414495 490.36576,208.041992 C488.405995,204.670894 486.697158,200.921951 485.242054,196.793761 C483.785547,192.668379 482.530905,188.29157 481.475323,183.660524 C480.421143,179.030882 479.539389,174.450402 478.838472,169.921894 C477.93569,164.286541 477.080571,159.229894 476.27732,154.749142 C475.471265,150.2712 474.544652,146.496975 473.490472,143.426466 C472.43489,140.358766 471.155015,137.991975 469.648043,136.331709 C468.14107,134.670038 466.182707,133.839905 463.771551,133.839905 C461.863654,133.839905 460.055287,134.042171 458.347852,134.443894 C456.637613,134.848425 454.857283,135.651871 452.999852,136.859847 C451.138215,138.067824 449.104153,139.780061 446.897665,141.992345 C444.686971,144.207437 442.099184,147.126246 439.137107,150.748772 C436.17503,154.372703 432.783991,158.801483 428.968197,164.033709 C425.148197,169.268743 420.680549,175.508084 415.558244,182.754541 C413.046156,186.277339 410.081276,190.151292 406.66921,194.379212 C403.252938,198.605726 399.760967,202.632784 396.197503,206.456171 C392.631235,210.282368 389.137863,213.653466 385.725797,216.570871 C382.310927,219.491084 379.296982,221.353616 376.685364,222.157061 C367.846795,220.245368 363.42681,209.224686 363.42681,189.095015 C363.42681,183.761657 364.029599,175.658379 365.235177,164.789397 C365.836564,159.857761 366.537481,154.69998 367.343536,149.314651 C368.146788,143.930726 369.151903,138.546801 370.357481,133.161472 C371.563059,127.777547 372.941063,122.543917 374.501305,117.460582 C376.057342,112.378651 377.890942,107.67316 380.000703,103.344108 C381.001613,101.332686 382.057195,99.7482694 383.164644,98.5894543 C384.26929,97.4334486 385.399169,96.5766277 386.554281,96.0232058 C387.706589,95.4697838 388.912167,95.1172231 390.169613,94.9655237 C391.425657,94.8152289 392.706934,94.7393792 394.012043,94.7393792 C395.617143,94.7393792 397.048417,95.8476277 398.305863,98.0613156 C399.561907,100.276408 400.189929,103.344108 400.189929,107.270032 C400.189929,109.684582 399.986663,111.95024 399.58714,114.062795 C399.184813,116.176755 398.631088,118.341281 397.930171,120.554969 C397.22645,122.770061 396.473665,125.159327 395.669011,127.725576 C394.864358,130.291824 394.062509,133.235917 393.259257,136.557853 C392.656468,139.275801 391.97798,142.294339 391.225195,145.616275 C390.471008,148.936807 389.768688,152.30931 389.115433,155.730975 C388.460777,159.154044 387.909855,162.499859 387.458465,165.769824 C387.005672,169.042599 386.779977,171.986691 386.779977,174.602102 C386.779977,176.414067 387.081371,178.276599 387.68416,180.188292 C390.494839,179.886298 395.116688,175.658379 401.545503,167.50594 C404.860843,163.380558 408.500006,158.85205 412.4686,153.919009 C416.437195,148.988778 420.731015,143.554287 425.351463,137.614131 C428.764931,133.186755 432.154567,129.061373 435.521775,125.235177 C438.886178,121.41179 442.376747,118.06457 445.993481,115.196327 C449.608813,112.32668 453.451243,110.062425 457.519367,108.40216 C461.587492,106.741894 466.081775,105.910356 471.003617,105.910356 C476.225452,105.910356 480.57114,107.043888 484.036476,109.308142 C487.501811,111.572397 490.290061,114.693472 492.399822,118.668558 C494.508182,122.64505 496.14132,127.399703 497.296432,132.933923 C498.44874,138.470951 499.379558,144.558593 500.083279,151.201061 C500.686068,156.839223 501.263624,162.425414 501.815947,167.959634 C502.366868,173.495258 503.447683,178.452177 505.055588,182.830391 C506.660688,187.2072 508.972314,190.755281 511.986259,193.473229 C515.000204,196.189772 519.316454,197.549449 524.943419,197.549449 C529.26107,197.549449 533.780586,196.543738 538.503367,194.529506 C543.224747,192.518084 548.197055,189.725691 553.420292,186.150923 C558.640725,182.578963 564.041995,178.376327 569.617092,173.54442 C575.192189,168.713917 580.939712,163.42972 586.868072,157.693235 C589.179698,155.480951 591.712813,152.687154 594.477232,149.314651 C597.240248,145.943553 599.951397,142.698871 602.613481,139.577795 C605.272762,136.458125 607.759617,133.790743 610.071243,131.575651 C612.381466,129.363368 614.237496,128.255119 615.64634,128.255119 C616.249129,128.255119 617.229011,128.555709 618.584586,129.159697 C619.94016,129.763686 620.618648,130.772206 620.618648,132.179639" id="Fill-5" fill="#231814"></path>
                <g id="Group-9" transform="translate(581.359633, 73.982965)" fill="#231814">
                    <path d="M97.115964,52.0069162 C97.115964,44.4584653 95.9860851,39.023974 93.7263273,35.7020376 C91.4651677,32.3815058 88.8787824,30.7198353 85.9657695,30.7198353 C83.4550833,30.7198353 80.919164,31.1988121 78.3580117,32.1539566 C75.7968594,33.1119104 73.3604705,34.3437659 71.0502466,35.853737 C68.7372191,37.3623035 66.6288594,39.023974 64.722364,40.8345347 C62.813065,42.6465 61.2570283,44.4093035 60.0514503,46.1187312 C57.6402943,49.3409393 55.1015714,53.0140318 52.4422906,57.1394133 C49.7802062,61.267604 47.11672,65.5938468 44.4574393,70.1237601 C41.7953549,74.6522688 39.2594356,79.283315 36.8482796,84.012685 C34.4371237,88.7434595 32.303531,93.3478179 30.444698,97.8257601 C28.5844631,102.306512 27.1055273,106.582188 25.9994796,110.658408 C24.8934319,114.734627 24.3425108,118.383841 24.3425108,121.60324 C24.3425108,126.335419 25.2466943,130.133523 27.0550613,133.001766 C28.8634283,135.870009 32.2754943,137.30413 37.2996705,137.30413 C39.0085072,137.30413 41.5191934,136.223974 44.833131,134.058043 C48.1484705,131.896327 51.6895053,129.151691 55.4562356,125.831159 C59.2229659,122.509223 62.9139971,118.91198 66.530731,115.036621 C70.1460631,111.162668 73.1067383,107.464292 75.4197659,103.94009 C77.9290503,100.217835 80.4663714,96.1416156 83.0289255,91.7114306 C85.5900778,87.2840549 87.9255347,82.7555462 90.0338943,78.1245 C92.1436558,73.496263 93.8510906,68.9410665 95.1576007,64.4617197 C96.4613072,59.9837775 97.115964,55.8331127 97.115964,52.0069162 M181.339604,119.338986 C181.339604,120.95009 181.012977,122.787338 180.361124,124.849327 C179.705065,126.914124 178.67752,129.001396 177.27148,131.113951 C175.464514,134.236431 173.075788,137.431951 170.115113,140.700512 C167.151634,143.973286 163.837696,146.942662 160.170496,149.608639 C156.501894,152.27602 152.509469,154.465829 148.193219,156.175257 C143.874166,157.887494 139.400911,158.741506 134.783267,158.741506 C128.756779,158.741506 123.558775,157.383234 119.189256,154.665286 C114.819737,151.948743 111.053006,148.248962 107.889065,143.570159 C104.725124,138.889951 102.110702,133.430176 100.05421,127.189431 C97.9949145,120.95009 96.309909,114.356783 95.0062026,107.412321 C90.5848154,113.855332 85.3391494,120.244968 79.2621952,126.585442 C73.1824374,132.925916 66.9064228,138.638523 60.4285439,143.720454 C53.9492631,148.803789 47.5681108,152.929171 41.293498,156.099408 C35.0146796,159.269645 29.4648154,160.855465 24.6439053,160.855465 C21.4280961,160.855465 18.3384521,160.05202 15.3777769,158.439512 C12.414298,156.831217 9.80267963,154.665286 7.54292183,151.948743 C5.28316404,149.230795 3.49722642,146.112529 2.19492183,142.588327 C0.888411743,139.066934 0.235156697,135.34187 0.235156697,131.415945 C0.235156697,127.491425 0.560382385,123.366043 1.21503927,119.036991 C1.86829431,114.710749 2.97013651,110.054419 4.53037872,105.072217 C6.08641541,100.090014 8.09384294,94.682211 10.5568668,88.8431879 C13.017087,83.006974 16.056265,76.6145289 19.6715971,69.6700665 C23.6878539,61.8196214 28.4611017,54.3989913 33.9857328,47.4025578 C39.5075604,40.4089335 45.1345255,34.2679162 50.8610209,28.9837197 C56.5861145,23.7009277 62.0322429,19.5249798 67.2078172,16.4530665 C72.3805879,13.3853671 76.5720741,0.136950867 79.7892851,0.136950867 C80.6934686,0.136950867 81.7224154,0.340621387 82.8775273,0.740939306 C84.0312374,1.1454711 85.2354136,13.2828295 86.4942613,13.7365231 C87.7489035,14.1888121 88.9544815,14.5933439 90.1095934,14.9445 C91.2633035,15.2970607 92.2417842,15.4726387 93.0478393,15.4726387 C93.8510906,15.4726387 94.6529402,15.2970607 95.4589952,14.9445 C96.2622466,14.5933439 97.0640961,14.1888121 97.8687494,13.7365231 C98.6734026,13.2828295 99.4738503,1.1454711 100.279905,0.740939306 C101.083157,0.340621387 101.885006,0.136950867 102.691061,0.136950867 C103.896639,0.136950867 105.198944,12.2532399 106.607788,13.056685 C108.013828,13.8629393 109.370804,14.8953382 110.675913,16.1524769 C111.979619,17.4110202 113.137535,18.8451416 114.141248,20.454841 C115.14356,22.0659451 115.848683,23.625078 116.25101,25.1350491 C116.650533,26.9456098 117.177623,28.2814075 117.83228,29.1354191 C118.485535,29.9922399 119.135986,30.7718064 119.792045,31.4755231 C120.443898,32.1806445 120.997623,33.0107775 121.449014,33.965922 C121.900404,34.9238757 122.127502,36.4085636 122.127502,38.4199855 C122.127502,39.4271012 121.772837,41.5410607 121.07192,44.7604595 C120.369601,47.9826676 119.588779,51.7316098 118.736463,56.0072861 C117.882746,60.2857717 117.101924,64.7398353 116.401006,69.3680723 C115.698687,73.9991185 115.346826,78.2256329 115.346826,82.0504249 C115.346826,92.8196792 115.949615,101.626673 117.155193,108.468598 C118.360771,115.314737 120.01774,120.723945 122.127502,124.699032 C124.235861,128.675523 126.722716,131.415945 129.585263,132.925916 C132.44781,134.435887 135.484184,135.190171 138.699993,135.190171 C146.331582,135.190171 152.585168,133.88387 157.459348,131.26565 C162.330724,128.65024 166.672206,124.773477 170.492206,119.64098 C171.596852,118.233546 172.548698,116.975003 173.354753,115.866754 C174.158004,114.761315 174.959854,114.206488 175.764507,114.206488 C177.171949,114.206488 178.451825,114.761315 179.606937,115.866754 C180.760647,116.975003 181.339604,118.131009 181.339604,119.338986" id="Fill-7"></path>
                </g>
                <path d="M390.019617,22.6447908 L384.922545,9.9132763 L379.773606,22.6447908 L390.019617,22.6447908 Z M406.015954,35.7794324 L395.268087,35.7794324 L392.430773,28.7085538 L377.313386,28.7085538 L374.425606,35.7794324 L363.677738,35.7794324 L379.071287,0.905420809 L390.672872,0.905420809 L406.015954,35.7794324 Z" id="Fill-10" fill="#000000"></path>
                <path d="M430.072422,11.9259624 C430.072422,10.316263 429.545332,9.19256358 428.48975,8.55486416 C427.435571,7.91716474 425.718323,7.59831503 423.342213,7.59831503 L421.132921,7.59831503 L421.132921,16.0021821 L423.392679,16.0021821 C425.953831,16.0021821 427.707527,15.7212572 428.655167,15.1594075 C429.600004,14.5975578 430.072422,13.520211 430.072422,11.9259624 L430.072422,11.9259624 Z M444.336092,35.7792919 L433.061134,35.7792919 L430.32335,29.5891127 C429.319637,27.3248584 428.415453,25.6688064 427.6108,24.619552 C426.807549,23.5717023 426.025325,22.9002919 425.262727,22.6067254 C424.500128,22.3145636 423.518844,22.167078 422.313266,22.167078 L421.132921,22.167078 L421.132921,35.7792919 L410.635982,35.7792919 L410.635982,0.905280347 L428.48975,0.905280347 C431.369119,0.905280347 433.729809,1.49241329 435.57182,2.66667919 C437.412429,3.84094509 438.739967,5.26663873 439.553031,6.94376012 C440.363292,8.62228613 440.769824,10.2151301 440.769824,11.7251012 C440.769824,13.4865 440.429178,14.9754017 439.753494,16.1904017 C439.073604,17.408211 438.358668,18.2917197 437.605883,18.8451416 C436.853097,19.3985636 436.004987,19.9267023 435.069963,20.4309624 C436.190029,21.0841127 437.11524,21.8608699 437.845596,22.7584249 C438.571747,23.6559798 439.564246,25.472159 440.82029,28.2055578 L444.336092,35.7792919 Z" id="Fill-12" fill="#000000"></path>
                <path d="M480.270306,33.1623364 C478.82922,33.9166197 477.357293,34.5206081 475.850321,34.9743017 C474.343348,35.4265908 472.823759,35.751059 471.294357,35.9420879 C469.759348,36.1345214 468.175275,36.2314405 466.533726,36.2314405 C463.504361,36.2314405 460.789007,35.8128624 458.386262,34.9743017 C455.983517,34.135741 453.898989,32.8982671 452.131275,31.2632844 C450.364963,29.6268971 449.045836,27.7152035 448.164082,25.5253942 C447.287935,23.3369896 446.846357,20.9336775 446.846357,18.3168624 C446.846357,15.3151803 447.365036,12.6857237 448.403796,10.4284925 C449.442556,8.17407052 450.894857,6.29889711 452.762101,4.8057815 C454.626541,3.3126659 456.751723,2.21003584 459.140449,1.49648671 C461.523568,0.784342197 464.03846,0.42756763 466.685124,0.42756763 C470.636897,0.42756763 475.112956,1.30826705 480.12031,3.0696659 L480.12031,12.3289491 C478.393249,11.2558162 476.691422,10.3624751 475.010622,9.64892601 C473.325616,8.9367815 471.346225,8.58000694 469.071047,8.58000694 C467.043994,8.58000694 465.152919,8.98172948 463.395018,9.78798382 C461.637117,10.5928335 460.222666,11.7418162 459.151664,13.2349318 C458.080662,14.7280474 457.543759,16.4725908 457.543759,18.4685618 C457.543759,20.2299607 458.011972,21.843874 458.951201,23.3117064 C459.889029,24.7795387 461.189932,25.9453769 462.856713,26.8092208 C464.520691,27.6730647 466.39915,28.1042844 468.493491,28.1042844 C470.184104,28.1042844 471.782196,27.9006139 473.289168,27.489059 C474.796141,27.077504 476.064801,26.6210012 477.092346,26.116741 C478.124097,25.6138855 479.18108,25.0197295 480.270306,24.330059 L480.270306,33.1623364 Z" id="Fill-14" fill="#000000"></path>
                <polygon id="Fill-16" fill="#000000" points="524.089982 35.779011 513.618275 35.779011 513.618275 22.1667971 497.823802 22.1667971 497.823802 35.779011 487.326862 35.779011 487.326862 0.904999422 497.823802 0.904999422 497.823802 13.7123636 513.618275 13.7123636 513.618275 0.904999422 524.089982 0.904999422"></polygon>
                <polygon id="Fill-18" fill="#000000" points="559.070247 35.779011 532.829301 35.779011 532.829301 0.904999422 558.642688 0.904999422 558.642688 7.90002832 543.324838 7.90002832 543.324838 14.2910688 557.940368 14.2910688 557.940368 21.3113809 543.324838 21.3113809 543.324838 28.7586988 559.070247 28.7586988"></polygon>
                <polygon id="Fill-20" fill="#000000" points="599.474773 9.38471618 586.718076 9.38471618 586.718076 35.779011 576.246369 35.779011 576.246369 9.38471618 563.489672 9.38471618 563.489672 0.904999422 599.474773 0.904999422"></polygon>
                <polygon id="Fill-22" fill="#000000" points="639.552671 0.905280347 625.917023 19.8016908 625.917023 35.7792919 615.420084 35.7792919 615.420084 20.002552 601.533508 0.905280347 612.432774 0.905280347 620.417625 11.875396 628.427709 0.905280347"></polygon>
                <path d="M663.659745,11.9259624 C663.659745,10.2656965 663.171906,9.12935549 662.18922,8.51693931 C661.212141,7.90452312 659.457044,7.59831503 656.929535,7.59831503 L654.720244,7.59831503 L654.720244,16.0021821 L656.980001,16.0021821 C658.722482,16.0021821 660.059833,15.894026 660.99766,15.6749046 C661.93689,15.4571879 662.613976,15.0554653 663.031723,14.4669277 C663.449469,13.8811994 663.659745,13.0328064 663.659745,11.9259624 M674.357146,11.875396 C674.357146,13.1676503 674.135657,14.4290029 673.691275,15.662263 C673.248295,16.8955231 672.533359,18.0445058 671.545066,19.109211 C670.556772,20.1753208 669.220823,21.0391647 667.540023,21.7007428 C665.85642,22.3651301 663.877029,22.6952168 661.600449,22.6952168 L654.720244,22.6952168 L654.720244,35.7792919 L644.223304,35.7792919 L644.223304,0.905280347 L661.600449,0.905280347 C663.877029,0.905280347 665.85642,1.24098555 667.540023,1.91099133 C669.220823,2.58240173 670.556772,3.45607803 671.545066,4.52780636 C672.533359,5.60234393 673.248295,6.76818208 673.691275,8.02532081 C674.135657,9.28386416 674.357146,10.5676908 674.357146,11.875396" id="Fill-24" fill="#000000"></path>
                <polygon id="Fill-26" fill="#000000" points="706.42468 35.779011 680.183733 35.779011 680.183733 0.904999422 705.99712 0.904999422 705.99712 7.90002832 690.67927 7.90002832 690.67927 14.2910688 705.294801 14.2910688 705.294801 21.3113809 690.67927 21.3113809 690.67927 28.7586988 706.42468 28.7586988"></polygon>
            </g>
        </g>
    </g>
</svg>