<?xml version="1.0" encoding="UTF-8" standalone="no"?>
<svg width="425px" height="150px" viewBox="0 0 425 150" version="1.1" xmlns="http://www.w3.org/2000/svg" xmlns:xlink="http://www.w3.org/1999/xlink">
    <!-- Generator: Sketch 39.1 (31720) - http://www.bohemiancoding.com/sketch -->
    <title>Page 1</title>
    <desc>Created with Sketch.</desc>
    <defs>
        <polygon id="path-1" points="0 149.748189 425 149.748189 425 0.000850704225 0 0.000850704225"></polygon>
    </defs>
    <g id="Page-1" stroke="none" stroke-width="1" fill="none" fill-rule="evenodd">
        <g id="Desktop-HD" transform="translate(-154.000000, -39.000000)">
            <g id="Page-1" transform="translate(154.000000, 39.000000)">
                <path d="M0,42.8995254 L26.09075,42.8995254 L26.09075,53.5567225 C32.0365,48.5843563 37.36175,45.1198634 42.153625,43.1653704 C46.9455,41.2130042 51.915875,40.2346944 56.88625,40.2346944 C67.17975,40.2346944 75.966625,43.8757085 83.153375,51.0705394 C89.188375,57.1998634 92.205875,66.2598634 92.205875,78.2484127 L92.205875,147.083145 L66.47,147.083145 L66.47,101.519427 C66.47,89.0842577 65.936625,80.8260465 64.784875,76.7384127 C63.631,72.6529056 61.767375,69.5457085 58.92625,67.4125676 C56.08725,65.2815535 52.714875,64.2160465 48.63275,64.2160465 C43.3075,64.2160465 38.78125,65.9918915 35.054,69.5457085 C31.2375,73.0973986 28.664125,77.9825676 27.155375,84.2012155 C26.356375,87.4870606 26.0015,94.5032437 26.0015,105.339089 L26.0015,147.083145 L0,147.083145 L0,42.8995254 L0,42.8995254 Z" id="Fill-1" fill="#231814"></path>
                <mask id="mask-2" fill="white">
                    <use xlink:href="#path-1"></use>
                </mask>
                <g id="Clip-4"></g>
                <path d="M106.84925,147.083358 L132.94,147.083358 L132.94,42.899738 L106.84925,42.899738 L106.84925,147.083358 Z M119.894625,0.000850704225 C124.510125,0.000850704225 128.41375,1.68737183 131.696875,4.9732169 C134.982125,8.26118873 136.578,12.3466958 136.578,17.0532169 C136.578,21.6725408 134.982125,25.6687239 131.696875,28.954569 C128.41375,32.2404141 124.59725,33.929062 120.071,33.929062 C115.457625,33.929062 111.46475,32.2404141 108.1795,28.8652451 C104.896375,25.4900761 103.298375,21.404569 103.298375,16.6980479 C103.298375,12.0787239 104.896375,8.17186479 108.1795,4.88601972 C111.46475,1.59804789 115.368375,0.000850704225 119.894625,0.000850704225 L119.894625,0.000850704225 Z" id="Fill-3" fill="#231814" mask="url(#mask-2)"></path>
                <path d="M156.723638,42.8995254 L182.814388,42.8995254 L182.814388,53.5567225 C188.760138,48.5843563 194.085388,45.1198634 198.877263,43.1653704 C203.669138,41.2130042 208.639512,40.2346944 213.609888,40.2346944 C223.903388,40.2346944 232.690263,43.8757085 239.877013,51.0705394 C245.912013,57.1998634 248.929513,66.2598634 248.929513,78.2484127 L248.929513,147.083145 L223.104388,147.083145 L223.104388,101.519427 C223.104388,89.0842577 222.573138,80.8260465 221.419263,76.7384127 C220.265388,72.6529056 218.401763,69.5457085 215.560638,67.4125676 C212.721638,65.2815535 209.349263,64.2160465 205.267138,64.2160465 C199.941888,64.2160465 195.415638,65.9918915 191.688388,69.5457085 C187.874013,73.0973986 185.298513,77.9825676 183.791888,84.2012155 C182.992887,87.4870606 182.638013,94.5032437 182.638013,105.339089 L182.638013,147.083145 L156.545138,147.083145 L156.545138,42.8995254 L156.723638,42.8995254 Z" id="Fill-5" fill="#231814" mask="url(#mask-2)"></path>
                <path d="M315.754813,64.3047324 C307.679813,64.3047324 301.022188,67.1460845 295.609813,72.8309155 C290.284563,78.5157465 287.621938,85.8870986 287.621938,94.7684507 C287.621938,103.739127 290.373813,111.20193 295.786188,116.973958 C301.200688,122.748113 307.945438,125.678789 315.844063,125.678789 C324.008313,125.678789 330.842313,122.83531 336.254688,117.152606 C341.669188,111.467775 344.329688,103.917775 344.329688,94.6812535 C344.329688,85.6212535 341.669188,78.2499014 336.254688,72.6543944 C330.842313,67.1460845 324.008313,64.3047324 315.754813,64.3047324 L315.754813,64.3047324 Z M343.177938,42.8988873 L369.268688,42.8988873 L369.268688,147.084634 L343.177938,147.084634 L343.177938,136.070141 C338.118313,140.95531 332.971563,144.419803 327.824813,146.550817 C322.675938,148.681831 317.174313,149.747338 311.139313,149.747338 C297.739063,149.747338 286.113188,144.507 276.263813,134.115648 C266.412313,123.724296 261.531188,110.668113 261.531188,95.2129437 C261.531188,79.1367606 266.235938,65.9912535 275.730438,55.6892254 C285.227063,45.3871972 296.763688,40.2340563 310.342438,40.2340563 C316.553813,40.2340563 322.410313,41.3888873 327.911938,43.7878732 C333.415688,46.1847324 338.473188,49.6492254 343.088688,54.4450704 L343.088688,42.8988873 L343.177938,42.8988873 Z" id="Fill-6" fill="#231814" mask="url(#mask-2)"></path>
                <path d="M409.91335,119.727475 C414.084725,119.727475 417.633475,121.148151 420.561725,124.078827 C423.4921,127.01163 425.00085,130.473996 425.00085,134.648827 C425.00085,138.823658 423.4921,142.375348 420.561725,145.308151 C417.633475,148.238827 414.084725,149.748827 409.91335,149.748827 C405.741975,149.748827 402.193225,148.238827 399.264975,145.308151 C396.3346,142.375348 394.82585,138.823658 394.82585,134.648827 C394.82585,130.473996 396.3346,127.01163 399.264975,124.078827 C402.28035,121.237475 405.831225,119.727475 409.91335,119.727475" id="Fill-7" fill="#231814" mask="url(#mask-2)"></path>
            </g>
        </g>
    </g>
</svg>