<?xml version="1.0" encoding="utf-8"?>
<!-- Generator: Adobe Illustrator 20.0.0, SVG Export Plug-In . SVG Version: 6.00 Build 0)  -->
<svg version="1.1" id="レイヤー_1" xmlns="http://www.w3.org/2000/svg" xmlns:xlink="http://www.w3.org/1999/xlink" x="0px"
	 y="0px" viewBox="0 0 258 155.9" style="enable-background:new 0 0 258 155.9;" xml:space="preserve">
<style type="text/css">
	.st0{fill:#202020;}
</style>
<g>
	<path class="st0" d="M124.4,26.8c0,1.6,0,3.3-0.1,5.1c-0.1,1.8-0.2,3.5-0.5,5.1c-0.3,1.6-0.7,3.2-1.4,4.7c-0.6,1.5-1.5,2.7-2.6,3.8
		c-1.2,1.2-2.8,2.2-4.7,2.9c-1.9,0.7-3.9,1.1-6.1,1.1c-2.4,0-4.4-0.4-6.2-1.1c-1.7-0.7-3.4-1.9-4.9-3.6v4.2H87.3v-60.5h11V8.6
		c1.5-1.6,3.1-2.8,4.8-3.4c1.7-0.7,3.7-1,5.9-1c2.2,0,4.2,0.4,6.1,1.1c1.9,0.7,3.5,1.7,4.7,2.9c1.1,1.1,1.9,2.4,2.6,3.9
		c0.6,1.4,1.1,3,1.4,4.6c0.3,1.6,0.5,3.3,0.5,5.1C124.3,23.4,124.4,25.1,124.4,26.8z M113.3,26.8c0-1.8-0.1-3.5-0.3-5
		c-0.2-1.5-0.5-2.9-1-4c-0.5-1.1-1.3-2-2.3-2.7c-1-0.7-2.3-1-4-1c-1.6,0-3,0.3-4,1c-1,0.7-1.7,1.5-2.3,2.7c-0.5,1.1-0.8,2.5-1,4
		c-0.2,1.5-0.3,3.2-0.3,5c0,1.8,0.1,3.5,0.3,5.1c0.2,1.6,0.5,2.9,1,4c0.5,1.1,1.3,2,2.3,2.7c1,0.7,2.3,1,4,1c1.6,0,3-0.3,4-1
		c1-0.7,1.7-1.5,2.3-2.7c0.5-1.1,0.9-2.5,1-4C113.2,30.3,113.3,28.6,113.3,26.8z"/>
	<path class="st0" d="M153.9,16.7c-0.8-0.9-1.7-1.5-2.6-2c-0.8-0.5-2-0.7-3.3-0.7c-0.8,0-1.7,0.2-2.6,0.5c-0.8,0.3-1.6,0.8-2.3,1.5
		c-0.7,0.7-1.2,1.5-1.7,2.5c-0.4,1-0.6,2.2-0.6,3.7v26.7h-11V4.7h10.8v4.2c1.1-1.3,2.6-2.4,4.6-3.4c2-0.9,4.2-1.4,6.5-1.4
		c2.2,0,4.1,0.3,5.7,0.9c1.6,0.6,3.2,1.7,4.8,3.2L153.9,16.7z"/>
	<path class="st0" d="M185.2,48.9v-3.8c-1.5,1.5-3,2.6-4.6,3.2c-1.6,0.7-3.7,1-6.2,1c-4.9,0-8.7-1.3-11.3-3.9
		c-1.2-1.2-2.1-2.7-2.7-4.4c-0.6-1.7-0.9-3.5-0.9-5.5c0-1.8,0.3-3.4,0.9-5c0.6-1.6,1.6-2.9,2.8-4.1c1.2-1.2,2.8-2.1,4.7-2.8
		c1.9-0.7,4.1-1,6.7-1H185v-2.2c0-2.4-0.6-4.2-1.9-5.3s-3.4-1.7-6.3-1.7c-1.1,0-2,0.1-2.8,0.2c-0.8,0.1-1.5,0.4-2.2,0.6
		c-0.7,0.3-1.3,0.7-1.8,1.1c-0.6,0.5-1.1,1-1.7,1.7l-7.1-6.9c2.2-2.4,4.4-4,6.8-4.8c2.4-0.9,5.5-1.3,9.1-1.3
		c6.2,0,10.9,1.3,14.1,3.9c3.2,2.6,4.8,6.5,4.8,11.7v29.2H185.2z M185,30.2h-8.8c-2,0-3.5,0.4-4.6,1.3c-1.1,0.9-1.6,2.1-1.6,3.7
		c0,1.5,0.5,2.8,1.6,3.7c1,0.9,2.6,1.4,4.8,1.4c1.5,0,2.8-0.1,3.9-0.3c1.1-0.2,2.1-0.8,3.1-1.8c1.1-1,1.6-2.9,1.6-5.6V30.2z"/>
	<path class="st0" d="M228.6,48.9V22.2c0-1.5-0.2-2.8-0.6-3.8s-1-1.8-1.7-2.5c-0.7-0.6-1.5-1.1-2.4-1.4c-0.9-0.3-1.7-0.4-2.6-0.4
		c-0.9,0-1.7,0.1-2.6,0.4c-0.9,0.3-1.7,0.7-2.4,1.4c-0.7,0.6-1.3,1.4-1.7,2.5c-0.5,1-0.7,2.3-0.7,3.8v26.8h-11V4.7h10.8v4.1
		c1.5-1.5,3.2-2.7,5.1-3.4c1.9-0.8,3.9-1.1,6-1.1c2.2,0,4.2,0.3,6,1c1.8,0.7,3.3,1.6,4.5,2.9c1.8,1.8,3,3.8,3.6,5.8
		c0.6,2.1,0.9,4.3,0.9,6.8v28.3H228.6z"/>
	<path class="st0" d="M270.9,48.9v-4.2c-1.5,1.7-3.1,2.9-4.8,3.6c-1.7,0.7-3.7,1.1-6.1,1.1c-2.2,0-4.2-0.4-6.1-1.1
		c-1.9-0.7-3.5-1.7-4.8-2.9c-1.1-1.1-2-2.4-2.6-3.8c-0.6-1.5-1-3-1.3-4.7c-0.3-1.6-0.5-3.3-0.5-5.1c-0.1-1.8-0.1-3.5-0.1-5.1
		c0-1.6,0-3.3,0.1-5.1c0.1-1.7,0.2-3.4,0.5-5.1c0.3-1.6,0.7-3.2,1.3-4.6c0.6-1.4,1.5-2.7,2.6-3.9c1.2-1.2,2.8-2.2,4.7-2.9
		c1.9-0.7,3.9-1.1,6.1-1.1c2.3,0,4.3,0.3,6,1c1.7,0.7,3.3,1.8,4.8,3.4v-20.1h11.1v60.5H270.9z M270.6,26.8c0-1.8-0.1-3.5-0.3-5
		c-0.2-1.5-0.5-2.9-1.1-4c-0.5-1.1-1.3-2-2.3-2.7c-1-0.7-2.3-1-4-1c-1.6,0-3,0.3-4,1c-1,0.7-1.7,1.5-2.3,2.7c-0.5,1.1-0.9,2.5-1,4
		c-0.2,1.5-0.3,3.2-0.3,5c0,1.8,0.1,3.5,0.3,5.1c0.2,1.6,0.5,2.9,1,4c0.5,1.1,1.3,2,2.3,2.7c1,0.7,2.3,1,4,1c1.6,0,3-0.3,4-1
		c1-0.7,1.8-1.5,2.3-2.7c0.5-1.1,0.9-2.5,1.1-4C270.6,30.3,270.6,28.6,270.6,26.8z"/>
	<path class="st0" d="M336.9,35c0,2.4-0.5,4.6-1.4,6.4c-1,1.8-2.3,3.3-4,4.5s-3.7,2.1-6,2.7c-2.3,0.6-4.7,0.9-7.4,0.9
		c-1.8,0-3.5-0.1-5.1-0.2c-1.6-0.1-3.3-0.4-4.8-0.9c-1.6-0.4-3.1-1.1-4.6-1.9c-1.5-0.8-2.9-1.9-4.3-3.3l7.2-7.2c1.8,1.8,3.8,3,6,3.4
		c2.2,0.5,4.1,0.7,5.8,0.7c1,0,1.9-0.1,2.8-0.3c0.9-0.2,1.8-0.4,2.5-0.8s1.3-0.8,1.8-1.4c0.5-0.6,0.7-1.3,0.7-2.1
		c0-1.1-0.3-2.1-1-2.8c-0.7-0.7-1.9-1.1-3.7-1.3l-7-0.7c-4-0.4-7.2-1.5-9.5-3.5c-2.3-1.9-3.4-4.9-3.4-9c0-2.3,0.5-4.3,1.4-6
		c0.9-1.8,2.2-3.2,3.7-4.4c1.6-1.2,3.4-2.1,5.4-2.7c2.1-0.6,4.2-0.9,6.5-0.9c3.5,0,6.6,0.4,9.4,1.1c2.8,0.7,5.3,2.1,7.5,4.1
		l-6.8,6.9c-1.3-1.1-2.9-1.9-4.7-2.3c-1.8-0.4-3.7-0.6-5.6-0.6c-2.2,0-3.8,0.4-4.8,1.3c-1,0.8-1.5,1.8-1.5,3c0,0.4,0.1,0.8,0.2,1.2
		c0.1,0.4,0.3,0.8,0.7,1.1c0.3,0.3,0.8,0.7,1.4,0.9c0.6,0.3,1.4,0.5,2.3,0.5l7,0.7c4.4,0.5,7.7,1.8,9.9,4
		C335.9,28.3,336.9,31.3,336.9,35z"/>
	<path class="st0" d="M354.1,48.9c-2.3,0-4.2-0.4-5.8-1.1c-1.6-0.7-2.9-1.7-4-2.9c-1-1.2-1.8-2.5-2.3-4c-0.5-1.5-0.7-3-0.7-4.6V14.3
		h-4.7V5.9h4.7V-7.2h11.1V5.9h7.8v8.4h-7.8v21.2c0,2.7,1.3,4,3.8,4h4v9.4H354.1z"/>
	<path class="st0" d="M387.5,48.9v-3.8c-1.5,1.5-3,2.6-4.6,3.2c-1.6,0.7-3.7,1-6.2,1c-4.9,0-8.7-1.3-11.3-3.9
		c-1.2-1.2-2.1-2.7-2.7-4.4c-0.6-1.7-0.9-3.5-0.9-5.5c0-1.8,0.3-3.4,0.9-5c0.6-1.6,1.6-2.9,2.8-4.1c1.2-1.2,2.8-2.1,4.7-2.8
		c1.9-0.7,4.1-1,6.7-1h10.5v-2.2c0-2.4-0.6-4.2-1.9-5.3s-3.4-1.7-6.3-1.7c-1.1,0-2,0.1-2.8,0.2c-0.8,0.1-1.5,0.4-2.2,0.6
		c-0.7,0.3-1.3,0.7-1.8,1.1c-0.6,0.5-1.1,1-1.7,1.7l-7.1-6.9c2.2-2.4,4.4-4,6.8-4.8c2.4-0.9,5.5-1.3,9.1-1.3
		c6.2,0,10.9,1.3,14.1,3.9c3.2,2.6,4.8,6.5,4.8,11.7v29.2H387.5z M387.3,30.2h-8.8c-2,0-3.5,0.4-4.6,1.3c-1.1,0.9-1.6,2.1-1.6,3.7
		c0,1.5,0.5,2.8,1.6,3.7c1,0.9,2.6,1.4,4.8,1.4c1.5,0,2.8-0.1,3.9-0.3c1.1-0.2,2.1-0.8,3.1-1.8c1.1-1,1.6-2.9,1.6-5.6V30.2z"/>
	<path class="st0" d="M419,48.9c-2.3,0-4.2-0.4-5.8-1.1c-1.6-0.7-2.9-1.7-4-2.9c-1-1.2-1.8-2.5-2.3-4c-0.5-1.5-0.7-3-0.7-4.6V14.3
		h-4.7V5.9h4.7V-7.2h11.1V5.9h7.8v8.4h-7.8v21.2c0,2.7,1.3,4,3.8,4h4v9.4H419z"/>
	<path class="st0" d="M438.4,30.2c0,2.9,0.8,5.3,2.5,7.1c1.7,1.8,4.1,2.8,7.2,2.8c2.4,0,4.4-0.3,5.8-1c1.4-0.7,2.8-1.7,4.2-3.1
		l6.7,6.5c-1.1,1.1-2.3,2.1-3.4,3c-1.1,0.9-2.4,1.6-3.7,2.2c-1.3,0.6-2.8,1-4.4,1.4c-1.6,0.3-3.4,0.5-5.4,0.5c-2.6,0-5.1-0.3-7.6-1
		c-2.5-0.7-4.6-1.9-6.5-3.6c-1.9-1.7-3.4-4.1-4.6-7c-1.2-2.9-1.7-6.6-1.7-11.1c0-3.6,0.5-6.8,1.4-9.6s2.3-5.2,4-7.1
		c1.7-1.9,3.7-3.4,6.1-4.4c2.4-1,5-1.5,7.9-1.5c3.1,0,5.8,0.5,8.2,1.6c2.4,1.1,4.4,2.6,6.1,4.4c1.6,1.9,2.9,4.1,3.7,6.7
		c0.9,2.6,1.3,5.4,1.3,8.5v4.9H438.4z M455.2,22.7c-0.1-1-0.2-1.8-0.3-2.5c-0.1-0.7-0.4-1.5-0.7-2.3c-0.6-1.3-1.5-2.4-2.8-3.3
		c-1.2-0.9-2.8-1.3-4.6-1.3s-3.4,0.4-4.6,1.3c-1.2,0.9-2.1,2-2.8,3.3c-0.3,0.8-0.6,1.5-0.7,2.3c-0.1,0.7-0.2,1.5-0.3,2.5H455.2z"/>
	<path class="st0" d="M505.9,47.3c0,2.7-0.5,5.1-1.4,7.4c-0.9,2.2-2.2,4.2-3.9,5.8c-1.7,1.6-3.8,2.9-6.2,3.8c-2.4,0.9-5.1,1.4-8,1.4
		c-3.4,0-6.3-0.4-8.8-1.2c-2.5-0.8-4.9-2.3-7.2-4.5l6.9-7c1.2,1.2,2.5,2.1,3.9,2.6c1.3,0.5,2.9,0.8,4.8,0.8c1.6,0,3-0.3,4.2-0.8
		c1.1-0.5,2.1-1.2,2.8-2.1c0.7-0.9,1.2-1.8,1.5-2.9c0.3-1.1,0.5-2.2,0.5-3.4v-4.5c-1.5,1.6-3.1,2.8-4.8,3.4c-1.7,0.7-3.6,1-5.8,1
		c-2.2,0-4.1-0.3-6-1c-1.8-0.7-3.3-1.6-4.6-2.9c-1-1-1.8-2.2-2.5-3.4c-0.6-1.2-1.1-2.6-1.4-4c-0.3-1.4-0.5-3-0.6-4.7
		c-0.1-1.7-0.1-3.5-0.1-5.4c0-1.9,0-3.7,0.1-5.4c0.1-1.7,0.3-3.2,0.6-4.7c0.3-1.4,0.7-2.8,1.4-4c0.6-1.2,1.4-2.4,2.5-3.4
		c1.2-1.2,2.8-2.2,4.6-2.9c1.8-0.7,3.8-1,6-1c2.4,0,4.4,0.4,6,1.1c1.6,0.7,3.2,1.9,4.8,3.6V4.7h10.7V47.3z M494.9,25.6
		c0-1.5-0.1-2.9-0.2-4.3c-0.1-1.4-0.5-2.6-1-3.7c-0.5-1-1.2-1.9-2.2-2.6c-1-0.7-2.3-1-3.9-1c-1.6,0-2.9,0.3-3.9,1
		c-1,0.7-1.7,1.5-2.2,2.6c-0.5,1-0.8,2.3-0.9,3.7c-0.1,1.4-0.2,2.8-0.2,4.3c0,1.5,0.1,2.9,0.2,4.3c0.1,1.4,0.5,2.6,0.9,3.7
		c0.5,1.1,1.2,1.9,2.2,2.6c1,0.7,2.3,1,3.9,1c1.6,0,2.9-0.3,3.9-1c1-0.7,1.7-1.5,2.2-2.6c0.5-1.1,0.8-2.3,1-3.7
		C494.8,28.5,494.9,27,494.9,25.6z"/>
	<path class="st0" d="M529.7,56.1c-1,2.5-2.1,4.4-3.3,5.7c-1.3,1.3-2.8,2.2-4.4,2.7c-1.6,0.5-3.3,0.7-5.1,0.7h-4.3v-9.9h2.5
		c1.6,0,2.8-0.3,3.5-0.8c0.8-0.5,1.4-1.6,2-3.2l1.9-5.4L507.4,4.7H519l9.2,27.4L537,4.7h11.6L529.7,56.1z"/>
	<path class="st0" d="M587.4,48.9v-3.8c-1.5,1.5-3,2.6-4.6,3.2c-1.6,0.7-3.7,1-6.2,1c-4.9,0-8.7-1.3-11.3-3.9
		c-1.2-1.2-2.1-2.7-2.7-4.4c-0.6-1.7-0.9-3.5-0.9-5.5c0-1.8,0.3-3.4,0.9-5c0.6-1.6,1.6-2.9,2.8-4.1c1.2-1.2,2.8-2.1,4.7-2.8
		c1.9-0.7,4.1-1,6.7-1h10.5v-2.2c0-2.4-0.6-4.2-1.9-5.3s-3.4-1.7-6.3-1.7c-1.1,0-2,0.1-2.8,0.2c-0.8,0.1-1.5,0.4-2.2,0.6
		c-0.7,0.3-1.3,0.7-1.8,1.1c-0.6,0.5-1.1,1-1.7,1.7l-7.1-6.9c2.2-2.4,4.4-4,6.8-4.8c2.4-0.9,5.5-1.3,9.1-1.3
		c6.2,0,10.9,1.3,14.1,3.9c3.2,2.6,4.8,6.5,4.8,11.7v29.2H587.4z M587.2,30.2h-8.8c-2,0-3.5,0.4-4.6,1.3c-1.1,0.9-1.6,2.1-1.6,3.7
		c0,1.5,0.5,2.8,1.6,3.7c1,0.9,2.6,1.4,4.8,1.4c1.5,0,2.8-0.1,3.9-0.3c1.1-0.2,2.1-0.8,3.1-1.8c1.1-1,1.6-2.9,1.6-5.6V30.2z"/>
	<path class="st0" d="M630.8,48.9V22.2c0-1.5-0.2-2.8-0.6-3.8s-1-1.8-1.7-2.5c-0.7-0.6-1.5-1.1-2.4-1.4c-0.9-0.3-1.7-0.4-2.6-0.4
		c-0.9,0-1.7,0.1-2.6,0.4c-0.9,0.3-1.7,0.7-2.4,1.4c-0.7,0.6-1.3,1.4-1.7,2.5c-0.5,1-0.7,2.3-0.7,3.8v26.8h-11V4.7h10.8v4.1
		c1.5-1.5,3.2-2.7,5.1-3.4c1.9-0.8,3.9-1.1,6-1.1c2.2,0,4.2,0.3,6,1c1.8,0.7,3.3,1.6,4.5,2.9c1.8,1.8,3,3.8,3.6,5.8
		c0.6,2.1,0.9,4.3,0.9,6.8v28.3H630.8z"/>
	<path class="st0" d="M673.1,48.9v-4.2c-1.5,1.7-3.1,2.9-4.8,3.6c-1.7,0.7-3.7,1.1-6.1,1.1c-2.2,0-4.2-0.4-6.1-1.1
		c-1.9-0.7-3.5-1.7-4.8-2.9c-1.1-1.1-2-2.4-2.6-3.8c-0.6-1.5-1-3-1.3-4.7c-0.3-1.6-0.5-3.3-0.5-5.1c-0.1-1.8-0.1-3.5-0.1-5.1
		c0-1.6,0-3.3,0.1-5.1c0.1-1.7,0.2-3.4,0.5-5.1c0.3-1.6,0.7-3.2,1.3-4.6c0.6-1.4,1.5-2.7,2.6-3.9c1.2-1.2,2.8-2.2,4.7-2.9
		c1.9-0.7,3.9-1.1,6.1-1.1c2.3,0,4.3,0.3,6,1c1.7,0.7,3.3,1.8,4.8,3.4v-20.1h11.1v60.5H673.1z M672.9,26.8c0-1.8-0.1-3.5-0.3-5
		c-0.2-1.5-0.5-2.9-1.1-4c-0.5-1.1-1.3-2-2.3-2.7c-1-0.7-2.3-1-4-1c-1.6,0-3,0.3-4,1c-1,0.7-1.7,1.5-2.3,2.7c-0.5,1.1-0.9,2.5-1,4
		c-0.2,1.5-0.3,3.2-0.3,5c0,1.8,0.1,3.5,0.3,5.1c0.2,1.6,0.5,2.9,1,4c0.5,1.1,1.3,2,2.3,2.7c1,0.7,2.3,1,4,1c1.6,0,3-0.3,4-1
		c1-0.7,1.8-1.5,2.3-2.7c0.5-1.1,0.9-2.5,1.1-4C672.8,30.3,672.9,28.6,672.9,26.8z"/>
	<path class="st0" d="M111.8,141.1V137c-1.5,1.7-3.1,2.9-4.8,3.6c-1.7,0.7-3.7,1.1-6.1,1.1c-2.2,0-4.2-0.4-6.1-1.1
		c-1.9-0.7-3.5-1.7-4.8-2.9c-1.1-1.1-2-2.4-2.6-3.8c-0.6-1.5-1-3-1.3-4.7c-0.3-1.6-0.5-3.3-0.5-5.1c-0.1-1.8-0.1-3.5-0.1-5.1
		s0-3.3,0.1-5.1c0.1-1.7,0.2-3.4,0.5-5.1c0.3-1.6,0.7-3.2,1.3-4.6c0.6-1.4,1.5-2.7,2.6-3.9c1.2-1.2,2.8-2.2,4.7-2.9
		c1.9-0.7,3.9-1.1,6.1-1.1c2.3,0,4.3,0.3,6,1c1.7,0.7,3.3,1.8,4.8,3.4V80.6h11v60.5H111.8z M111.5,118.9c0-1.8-0.1-3.5-0.3-5
		c-0.2-1.5-0.5-2.9-1.1-4c-0.5-1.1-1.3-2-2.3-2.7c-1-0.7-2.3-1-4-1c-1.6,0-3,0.3-4,1c-1,0.7-1.7,1.5-2.3,2.7c-0.5,1.1-0.9,2.5-1,4
		s-0.3,3.2-0.3,5s0.1,3.5,0.3,5.1c0.2,1.6,0.5,2.9,1,4c0.5,1.1,1.3,2,2.3,2.7c1,0.7,2.3,1,4,1c1.6,0,3-0.3,4-1
		c1-0.7,1.8-1.5,2.3-2.7c0.5-1.1,0.9-2.5,1.1-4C111.4,122.4,111.5,120.8,111.5,118.9z"/>
	<path class="st0" d="M138.6,122.4c0,2.9,0.8,5.3,2.5,7.1c1.7,1.8,4.1,2.8,7.2,2.8c2.4,0,4.4-0.3,5.8-1c1.4-0.7,2.8-1.7,4.2-3.1
		l6.7,6.5c-1.1,1.1-2.3,2.1-3.4,3c-1.1,0.9-2.4,1.6-3.7,2.2c-1.3,0.6-2.8,1-4.4,1.4c-1.6,0.3-3.4,0.5-5.4,0.5c-2.6,0-5.1-0.3-7.6-1
		c-2.5-0.7-4.6-1.9-6.5-3.6s-3.4-4.1-4.6-7c-1.2-2.9-1.7-6.6-1.7-11.1c0-3.6,0.5-6.8,1.4-9.6c0.9-2.8,2.3-5.2,4-7.1
		c1.7-1.9,3.7-3.4,6.1-4.4c2.3-1,5-1.5,7.9-1.5c3.1,0,5.8,0.5,8.2,1.6c2.4,1.1,4.4,2.5,6.1,4.4c1.6,1.9,2.9,4.1,3.7,6.7
		c0.9,2.6,1.3,5.4,1.3,8.5v4.9H138.6z M155.4,114.9c-0.1-1-0.2-1.8-0.3-2.5c-0.1-0.7-0.4-1.5-0.7-2.3c-0.6-1.3-1.5-2.4-2.8-3.3
		c-1.2-0.9-2.8-1.3-4.6-1.3c-1.9,0-3.4,0.4-4.6,1.3c-1.2,0.9-2.1,2-2.8,3.3c-0.3,0.8-0.6,1.5-0.7,2.3c-0.1,0.7-0.2,1.5-0.3,2.5
		H155.4z"/>
	<path class="st0" d="M204.7,127.2c0,2.4-0.5,4.6-1.4,6.4c-1,1.8-2.3,3.3-4,4.5c-1.7,1.2-3.7,2.1-6,2.7c-2.3,0.6-4.7,0.9-7.4,0.9
		c-1.8,0-3.5-0.1-5.1-0.2c-1.6-0.1-3.3-0.4-4.8-0.9c-1.6-0.4-3.1-1.1-4.6-1.9c-1.5-0.8-2.9-1.9-4.3-3.3l7.2-7.2c1.8,1.8,3.8,3,6,3.4
		c2.2,0.5,4.1,0.7,5.8,0.7c1,0,1.9-0.1,2.8-0.3c0.9-0.2,1.8-0.4,2.5-0.8s1.3-0.8,1.8-1.4c0.5-0.6,0.7-1.3,0.7-2.1
		c0-1.1-0.3-2.1-1-2.8c-0.7-0.7-1.9-1.2-3.7-1.3l-7-0.7c-4-0.4-7.2-1.5-9.5-3.5c-2.3-1.9-3.4-4.9-3.4-9c0-2.3,0.5-4.3,1.4-6
		c0.9-1.8,2.2-3.2,3.7-4.4c1.6-1.2,3.4-2.1,5.4-2.7s4.2-0.9,6.5-0.9c3.5,0,6.6,0.4,9.4,1.1c2.8,0.7,5.3,2.1,7.5,4.1l-6.8,6.9
		c-1.3-1.1-2.9-1.9-4.7-2.3c-1.8-0.4-3.7-0.6-5.6-0.6c-2.2,0-3.8,0.4-4.8,1.3c-1,0.8-1.5,1.8-1.5,3c0,0.4,0.1,0.8,0.2,1.2
		c0.1,0.4,0.3,0.8,0.7,1.1c0.3,0.3,0.8,0.7,1.4,0.9c0.6,0.3,1.4,0.5,2.3,0.5l7,0.7c4.4,0.5,7.7,1.8,9.9,4
		C203.6,120.5,204.7,123.4,204.7,127.2z"/>
	<path class="st0" d="M208.7,89.3v-9H220v9H208.7z M208.9,141.1V96.8h11v44.3H208.9z"/>
	<path class="st0" d="M241,141.1c-2.3,0-4.2-0.4-5.8-1.1c-1.6-0.7-2.9-1.7-4-2.9c-1-1.2-1.8-2.5-2.3-4c-0.5-1.5-0.7-3-0.7-4.6v-21.9
		h-4.7v-8.4h4.7V85h11.1v13.1h7.8v8.4h-7.8v21.2c0,2.7,1.3,4,3.8,4h4v9.3H241z"/>
	<path class="st0" d="M274.4,141.1v-3.8c-1.5,1.5-3,2.5-4.6,3.2c-1.6,0.7-3.7,1-6.2,1c-4.9,0-8.7-1.3-11.3-3.9
		c-1.2-1.2-2.1-2.7-2.7-4.4c-0.6-1.7-0.9-3.5-0.9-5.5c0-1.8,0.3-3.4,0.9-5c0.6-1.6,1.6-2.9,2.8-4.1c1.2-1.2,2.8-2.1,4.7-2.8
		c1.9-0.7,4.1-1,6.7-1h10.5v-2.2c0-2.4-0.6-4.2-1.9-5.3c-1.3-1.1-3.4-1.7-6.3-1.7c-1.1,0-2,0.1-2.8,0.2c-0.8,0.1-1.5,0.4-2.2,0.6
		c-0.7,0.3-1.3,0.7-1.8,1.1c-0.6,0.5-1.1,1-1.7,1.7l-7.1-6.9c2.2-2.4,4.4-4,6.8-4.8c2.4-0.9,5.5-1.3,9.1-1.3
		c6.2,0,10.9,1.3,14.1,3.9c3.2,2.6,4.8,6.5,4.8,11.7v29.2H274.4z M274.1,122.4h-8.8c-2,0-3.5,0.4-4.6,1.3c-1.1,0.9-1.6,2.1-1.6,3.7
		c0,1.5,0.5,2.8,1.6,3.7c1,0.9,2.6,1.4,4.8,1.4c1.5,0,2.8-0.1,3.9-0.3c1.1-0.2,2.1-0.8,3.1-1.8c1.1-1,1.6-2.9,1.6-5.6V122.4z"/>
	<path class="st0" d="M304.5,141.1c-2.3,0-4.2-0.4-5.9-1.1c-1.6-0.7-3-1.7-4-2.9c-1-1.2-1.8-2.5-2.3-4c-0.5-1.5-0.7-3-0.7-4.6V80.6
		h11v47.2c0,1.3,0.3,2.3,0.9,3s1.6,1,3,1h4.2v9.3H304.5z"/>
	<path class="st0" d="M354.8,140.1c-2.4,1-5.1,1.5-8.1,1.5c-2.2,0-4.5-0.3-6.8-1c-2.4-0.7-4.5-1.9-6.4-3.6s-3.5-4.1-4.7-7
		c-1.2-2.9-1.9-6.6-1.9-11.1s0.6-8.2,1.9-11.1c1.2-2.9,2.8-5.2,4.7-6.9s4-2.9,6.4-3.6c2.4-0.7,4.6-1,6.8-1c3.1,0,5.8,0.5,8.1,1.4
		c2.4,1,4.5,2.5,6.5,4.5l-7.5,7.5c-1.1-1.2-2.2-2.1-3.3-2.7c-1.1-0.5-2.4-0.8-3.8-0.8c-2.6,0-4.7,1-6.3,2.9
		c-0.8,1.1-1.5,2.4-1.9,3.9s-0.6,3.5-0.6,5.9c0,4.5,0.8,7.8,2.5,9.9c1.6,1.9,3.7,2.9,6.3,2.9c1.5,0,2.7-0.3,3.8-0.8
		c1.1-0.5,2.2-1.4,3.3-2.7l7.5,7.4C359.4,137.6,357.2,139.2,354.8,140.1z"/>
	<path class="st0" d="M388.9,108.9c-0.8-0.9-1.7-1.5-2.5-2c-0.8-0.5-2-0.7-3.3-0.7c-0.8,0-1.7,0.2-2.5,0.5c-0.8,0.3-1.6,0.8-2.3,1.5
		c-0.7,0.7-1.2,1.5-1.7,2.5c-0.4,1-0.6,2.2-0.6,3.7v26.7h-11V96.8h10.8v4.2c1.1-1.3,2.6-2.4,4.6-3.4c2-0.9,4.2-1.4,6.5-1.4
		c2.2,0,4.1,0.3,5.7,0.9c1.6,0.6,3.2,1.7,4.8,3.2L388.9,108.9z"/>
	<path class="st0" d="M404.4,122.4c0,2.9,0.8,5.3,2.5,7.1c1.7,1.8,4.1,2.8,7.2,2.8c2.4,0,4.4-0.3,5.8-1c1.4-0.7,2.8-1.7,4.2-3.1
		l6.7,6.5c-1.1,1.1-2.3,2.1-3.4,3c-1.1,0.9-2.4,1.6-3.7,2.2c-1.3,0.6-2.8,1-4.4,1.4c-1.6,0.3-3.4,0.5-5.4,0.5c-2.6,0-5.1-0.3-7.6-1
		c-2.5-0.7-4.6-1.9-6.5-3.6s-3.4-4.1-4.6-7c-1.2-2.9-1.7-6.6-1.7-11.1c0-3.6,0.5-6.8,1.4-9.6c0.9-2.8,2.3-5.2,4-7.1
		c1.7-1.9,3.7-3.4,6.1-4.4c2.4-1,5-1.5,7.9-1.5c3.1,0,5.8,0.5,8.2,1.6c2.4,1.1,4.4,2.5,6.1,4.4c1.6,1.9,2.9,4.1,3.7,6.7
		c0.9,2.6,1.3,5.4,1.3,8.5v4.9H404.4z M421.3,114.9c-0.1-1-0.2-1.8-0.3-2.5c-0.1-0.7-0.4-1.5-0.7-2.3c-0.6-1.3-1.5-2.4-2.8-3.3
		c-1.2-0.9-2.8-1.3-4.6-1.3s-3.4,0.4-4.6,1.3c-1.2,0.9-2.1,2-2.8,3.3c-0.3,0.8-0.6,1.5-0.7,2.3c-0.1,0.7-0.2,1.5-0.3,2.5H421.3z"/>
	<path class="st0" d="M459.9,141.1v-3.8c-1.5,1.5-3,2.5-4.6,3.2c-1.6,0.7-3.7,1-6.2,1c-4.9,0-8.7-1.3-11.3-3.9
		c-1.2-1.2-2.1-2.7-2.7-4.4c-0.6-1.7-0.9-3.5-0.9-5.5c0-1.8,0.3-3.4,0.9-5c0.6-1.6,1.6-2.9,2.8-4.1c1.2-1.2,2.8-2.1,4.7-2.8
		c1.9-0.7,4.1-1,6.7-1h10.5v-2.2c0-2.4-0.6-4.2-1.9-5.3c-1.3-1.1-3.4-1.7-6.3-1.7c-1.1,0-2,0.1-2.8,0.2c-0.8,0.1-1.5,0.4-2.2,0.6
		c-0.7,0.3-1.3,0.7-1.8,1.1c-0.6,0.5-1.1,1-1.7,1.7l-7.1-6.9c2.2-2.4,4.4-4,6.8-4.8c2.4-0.9,5.5-1.3,9.1-1.3
		c6.2,0,10.9,1.3,14.1,3.9c3.2,2.6,4.8,6.5,4.8,11.7v29.2H459.9z M459.7,122.4h-8.8c-2,0-3.5,0.4-4.6,1.3c-1.1,0.9-1.6,2.1-1.6,3.7
		c0,1.5,0.5,2.8,1.6,3.7c1,0.9,2.6,1.4,4.8,1.4c1.5,0,2.8-0.1,3.9-0.3c1.1-0.2,2.1-0.8,3.1-1.8c1.1-1,1.6-2.9,1.6-5.6V122.4z"/>
	<path class="st0" d="M491.4,141.1c-2.3,0-4.2-0.4-5.8-1.1c-1.6-0.7-2.9-1.7-4-2.9c-1-1.2-1.8-2.5-2.3-4c-0.5-1.5-0.7-3-0.7-4.6
		v-21.9h-4.7v-8.4h4.7V85h11.1v13.1h7.8v8.4h-7.8v21.2c0,2.7,1.3,4,3.8,4h4v9.3H491.4z"/>
	<path class="st0" d="M502.2,89.3v-9h11.3v9H502.2z M502.4,141.1V96.8h11v44.3H502.4z"/>
	<path class="st0" d="M556.2,118.9c0,4-0.3,7.4-1,10.1c-0.7,2.7-2,5.1-4,7.2c-1.4,1.5-3.2,2.7-5.4,3.8c-2.3,1.1-5,1.6-8.3,1.6
		c-3.3,0-6-0.5-8.3-1.6c-2.2-1.1-4-2.4-5.4-3.8c-2-2.1-3.3-4.5-4-7.2c-0.7-2.7-1-6-1-10.1s0.3-7.4,1-10c0.7-2.7,2-5,4-7.1
		c1.4-1.5,3.2-2.7,5.4-3.8c2.2-1.1,5-1.6,8.3-1.6c3.3,0,6.1,0.5,8.3,1.6c2.3,1.1,4.1,2.4,5.4,3.8c2,2.1,3.3,4.5,4,7.1
		C555.9,111.6,556.2,114.9,556.2,118.9z M545.2,118.9c0-2.3-0.1-4.4-0.4-6.2c-0.3-1.8-1-3.3-2.1-4.5c-1.3-1.3-3-2-5.2-2
		c-2.1,0-3.8,0.7-5.1,2c-1.1,1.1-1.8,2.6-2.1,4.5c-0.3,1.8-0.4,3.9-0.4,6.2c0,2.3,0.1,4.4,0.4,6.3c0.3,1.9,1,3.4,2.1,4.5
		c1.3,1.3,3,2,5.1,2c2.2,0,3.9-0.7,5.2-2c1.1-1.1,1.8-2.6,2.1-4.5C545.1,123.4,545.2,121.3,545.2,118.9z"/>
	<path class="st0" d="M587.4,141.1v-26.8c0-1.5-0.2-2.8-0.6-3.8c-0.4-1-1-1.8-1.7-2.5c-0.7-0.6-1.5-1.1-2.4-1.4
		c-0.9-0.3-1.7-0.4-2.6-0.4c-0.9,0-1.7,0.1-2.6,0.4c-0.9,0.3-1.7,0.7-2.4,1.4c-0.7,0.6-1.3,1.4-1.7,2.5c-0.5,1-0.7,2.3-0.7,3.8v26.8
		h-11V96.8h10.8v4.1c1.5-1.5,3.2-2.7,5.1-3.4c1.9-0.8,3.9-1.1,6-1.1c2.2,0,4.2,0.3,6,1c1.8,0.7,3.3,1.6,4.5,2.9
		c1.8,1.8,3,3.8,3.6,5.8c0.6,2.1,0.9,4.3,0.9,6.8v28.3H587.4z"/>
</g>
</svg>
