<?xml version="1.0" encoding="utf-8"?>
<!-- Generator: Adobe Illustrator 20.0.0, SVG Export Plug-In . SVG Version: 6.00 Build 0)  -->
<svg version="1.1" id="レイヤー_1" xmlns="http://www.w3.org/2000/svg" xmlns:xlink="http://www.w3.org/1999/xlink" x="0px"
	 y="0px" viewBox="0 0 1280 1024" style="enable-background:new 0 0 1280 1024;" xml:space="preserve">
<g>
	<path d="M131.5,215.5c11.1,0,20.7,4,28.7,12.1c8,8.1,12,17.9,12,29.5c0,11.5-4,21.2-11.9,29.2c-7.9,8-17.5,11.9-28.8,11.9
		c-11.8,0-21.6-4.1-29.5-12.3c-7.8-8.2-11.7-17.9-11.7-29.1c0-7.5,1.8-14.4,5.5-20.8c3.6-6.3,8.6-11.3,15-15
		C117.3,217.4,124.2,215.5,131.5,215.5z M131.4,230.2c-7.3,0-13.4,2.5-18.4,7.6c-5,5.1-7.4,11.5-7.4,19.3c0,8.7,3.1,15.6,9.4,20.7
		c4.9,4,10.4,5.9,16.7,5.9c7.1,0,13.2-2.6,18.2-7.7c5-5.1,7.5-11.5,7.5-19c0-7.5-2.5-13.8-7.6-19
		C144.7,232.8,138.6,230.2,131.4,230.2z"/>
	<path d="M183.6,238h12.5v7.3c1.4-2.9,3.2-5.1,5.4-6.6c2.2-1.5,4.7-2.2,7.4-2.2c1.9,0,3.9,0.5,5.9,1.5l-4.5,12.6
		c-1.7-0.9-3.1-1.3-4.2-1.3c-2.2,0-4.1,1.4-5.7,4.2s-2.3,8.2-2.3,16.4l0.1,2.8v23.5h-14.5V238z"/>
	<path d="M229.9,214c2.6,0,4.8,0.9,6.6,2.8c1.8,1.9,2.7,4.1,2.7,6.7c0,2.6-0.9,4.8-2.7,6.7c-1.8,1.8-4,2.8-6.5,2.8
		c-2.6,0-4.8-0.9-6.6-2.8c-1.8-1.9-2.7-4.1-2.7-6.8c0-2.6,0.9-4.8,2.7-6.6S227.4,214,229.9,214z M222.6,238h14.6v58.2h-14.6V238z"/>
	<path d="M293.6,238h14.6v49.9c0,9.8-2,17.1-5.9,21.7c-5.3,6.3-13.3,9.4-24,9.4c-5.7,0-10.5-0.7-14.4-2.1c-3.9-1.4-7.2-3.5-9.8-6.3
		c-2.7-2.8-4.7-6.1-5.9-10.1h16.1c1.4,1.6,3.3,2.9,5.5,3.7c2.2,0.8,4.9,1.3,8,1.3c3.9,0,7.1-0.6,9.5-1.8c2.4-1.2,4.1-2.8,5.1-4.7
		c1-1.9,1.5-5.2,1.5-10c-2.6,2.6-5.3,4.4-8.1,5.5c-2.8,1.1-6,1.7-9.6,1.7c-7.8,0-14.4-2.8-19.8-8.5c-5.4-5.6-8.1-12.8-8.1-21.4
		c0-9.2,2.9-16.7,8.6-22.3c5.2-5.1,11.3-7.6,18.5-7.6c3.4,0,6.5,0.6,9.5,1.8c3,1.2,6,3.3,9,6.1V238z M278.4,250.1
		c-4.6,0-8.4,1.5-11.4,4.6c-3,3.1-4.5,7-4.5,11.6c0,4.9,1.5,8.8,4.6,11.9c3.1,3.1,6.9,4.7,11.6,4.7c4.5,0,8.3-1.5,11.2-4.5
		c2.9-3,4.4-7,4.4-11.9c0-4.9-1.5-8.8-4.4-11.8C286.9,251.6,283.1,250.1,278.4,250.1z"/>
	<path d="M330.8,214c2.6,0,4.8,0.9,6.6,2.8c1.8,1.9,2.7,4.1,2.7,6.7c0,2.6-0.9,4.8-2.7,6.7c-1.8,1.8-4,2.8-6.5,2.8
		c-2.6,0-4.8-0.9-6.6-2.8c-1.8-1.9-2.7-4.1-2.7-6.8c0-2.6,0.9-4.8,2.7-6.6S328.2,214,330.8,214z M323.5,238h14.6v58.2h-14.6V238z"/>
	<path d="M355.7,238h14.6v6c3.3-2.8,6.3-4.7,9-5.8c2.7-1.1,5.4-1.6,8.3-1.6c5.8,0,10.7,2,14.7,6c3.4,3.4,5.1,8.5,5.1,15.2v38.5
		h-14.4v-25.5c0-6.9-0.3-11.6-0.9-13.8c-0.6-2.3-1.7-4-3.3-5.2c-1.5-1.2-3.5-1.8-5.7-1.8c-3,0-5.5,1-7.6,3c-2.1,2-3.6,4.7-4.4,8.2
		c-0.4,1.8-0.6,5.8-0.6,11.8v23.4h-14.6V238z"/>
	<path d="M460.1,238h14.6v58.2h-14.6v-6.2c-2.9,2.7-5.7,4.7-8.6,5.9s-6,1.8-9.3,1.8c-7.5,0-14-2.9-19.5-8.8
		c-5.5-5.8-8.2-13.1-8.2-21.8c0-9,2.7-16.4,8-22.1c5.3-5.7,11.8-8.6,19.4-8.6c3.5,0,6.8,0.7,9.8,2c3.1,1.3,5.9,3.3,8.5,5.9V238z
		 M444.7,250c-4.5,0-8.3,1.6-11.3,4.8c-3,3.2-4.5,7.3-4.5,12.3c0,5,1.5,9.2,4.6,12.4c3,3.2,6.8,4.9,11.2,4.9c4.6,0,8.4-1.6,11.4-4.8
		c3-3.2,4.5-7.4,4.5-12.5c0-5.1-1.5-9.2-4.5-12.3C453.2,251.5,449.4,250,444.7,250z"/>
	<path d="M492.3,215.5h14.6v80.7h-14.6V215.5z"/>
	<path d="M552.5,217.5h43v14.7h-28.1v14.2h28.1v14.4h-28.1v20.7h28.1v14.7h-43V217.5z"/>
	<path d="M602.6,238h17l11.5,15.9l11.5-15.9h16.7l-19.8,27.4l22.4,30.8h-17l-13.8-19.1l-13.8,19.1h-16.7l22.1-30.6L602.6,238z"/>
	<path d="M681.5,238v6.4c2.6-2.6,5.5-4.6,8.6-5.9c3.1-1.3,6.4-2,9.8-2c7.6,0,14.1,2.9,19.4,8.6c5.3,5.7,8,13.1,8,22.1
		c0,8.7-2.7,15.9-8.2,21.8c-5.5,5.8-12,8.8-19.5,8.8c-3.4,0-6.5-0.6-9.4-1.8s-5.8-3.1-8.6-5.9v27.5H667V238H681.5z M696.9,250
		c-4.6,0-8.4,1.6-11.5,4.7c-3,3.1-4.5,7.2-4.5,12.3c0,5.2,1.5,9.4,4.5,12.5c3,3.2,6.9,4.8,11.5,4.8c4.5,0,8.2-1.6,11.3-4.9
		c3.1-3.2,4.6-7.4,4.6-12.4c0-5-1.5-9.1-4.5-12.3C705.2,251.6,701.4,250,696.9,250z"/>
	<path d="M793.3,271.3h-46.9c0.7,4.1,2.5,7.4,5.4,9.9c2.9,2.4,6.7,3.7,11.3,3.7c5.5,0,10.1-1.9,14.1-5.7l12.3,5.8
		c-3.1,4.4-6.7,7.6-11,9.7c-4.3,2.1-9.4,3.1-15.3,3.1c-9.1,0-16.6-2.9-22.3-8.6c-5.7-5.8-8.6-13-8.6-21.6c0-8.9,2.9-16.3,8.6-22.1
		c5.7-5.9,12.9-8.8,21.5-8.8c9.2,0,16.6,2.9,22.4,8.8c5.7,5.9,8.6,13.6,8.6,23.3L793.3,271.3z M778.7,259.8c-1-3.2-2.9-5.9-5.7-7.9
		s-6.1-3.1-9.9-3.1c-4.1,0-7.6,1.1-10.7,3.4c-1.9,1.4-3.7,3.9-5.4,7.5H778.7z"/>
	<path d="M803.9,238h12.5v7.3c1.4-2.9,3.2-5.1,5.4-6.6c2.2-1.5,4.7-2.2,7.4-2.2c1.9,0,3.9,0.5,5.9,1.5l-4.5,12.6
		c-1.7-0.9-3.1-1.3-4.2-1.3c-2.2,0-4.1,1.4-5.7,4.2s-2.3,8.2-2.3,16.4l0.1,2.8v23.5h-14.5V238z"/>
	<path d="M852.4,214c2.6,0,4.8,0.9,6.6,2.8c1.8,1.9,2.7,4.1,2.7,6.7c0,2.6-0.9,4.8-2.7,6.7c-1.8,1.8-4,2.8-6.5,2.8
		c-2.6,0-4.8-0.9-6.6-2.8c-1.8-1.9-2.7-4.1-2.7-6.8c0-2.6,0.9-4.8,2.7-6.6S849.9,214,852.4,214z M845.1,238h14.6v58.2h-14.6V238z"/>
	<path d="M933.6,271.3h-46.9c0.7,4.1,2.5,7.4,5.4,9.9c2.9,2.4,6.7,3.7,11.3,3.7c5.5,0,10.1-1.9,14.1-5.7l12.3,5.8
		c-3.1,4.4-6.7,7.6-11,9.7c-4.3,2.1-9.4,3.1-15.3,3.1c-9.1,0-16.6-2.9-22.3-8.6c-5.7-5.8-8.6-13-8.6-21.6c0-8.9,2.9-16.3,8.6-22.1
		c5.7-5.9,12.9-8.8,21.5-8.8c9.2,0,16.6,2.9,22.4,8.8c5.7,5.9,8.6,13.6,8.6,23.3L933.6,271.3z M918.9,259.8c-1-3.2-2.9-5.9-5.7-7.9
		s-6.1-3.1-9.9-3.1c-4.1,0-7.6,1.1-10.7,3.4c-1.9,1.4-3.7,3.9-5.4,7.5H918.9z"/>
	<path d="M941,238h14.6v6c3.3-2.8,6.3-4.7,9-5.8c2.7-1.1,5.4-1.6,8.3-1.6c5.8,0,10.7,2,14.7,6c3.4,3.4,5.1,8.5,5.1,15.2v38.5h-14.4
		v-25.5c0-6.9-0.3-11.6-0.9-13.8c-0.6-2.3-1.7-4-3.3-5.2c-1.5-1.2-3.5-1.8-5.7-1.8c-3,0-5.5,1-7.6,3c-2.1,2-3.6,4.7-4.4,8.2
		c-0.4,1.8-0.6,5.8-0.6,11.8v23.4H941V238z"/>
	<path d="M1061.6,249.8l-12.2,6.7c-2.3-2.4-4.5-4-6.8-5c-2.2-0.9-4.8-1.4-7.8-1.4c-5.5,0-9.9,1.6-13.3,4.9
		c-3.4,3.3-5.1,7.4-5.1,12.5c0,5,1.6,9,4.9,12.1c3.2,3.1,7.5,4.7,12.8,4.7c6.5,0,11.6-2.2,15.3-6.7l11.5,7.9
		c-6.2,8.1-15.1,12.2-26.4,12.2c-10.2,0-18.3-3-24.1-9.1c-5.8-6.1-8.7-13.2-8.7-21.3c0-5.6,1.4-10.8,4.2-15.6
		c2.8-4.7,6.8-8.5,11.8-11.2c5-2.7,10.7-4.1,16.9-4.1c5.8,0,11,1.2,15.6,3.5S1058.6,245.5,1061.6,249.8z"/>
	<path d="M1124.3,271.3h-46.9c0.7,4.1,2.5,7.4,5.4,9.9c2.9,2.4,6.7,3.7,11.3,3.7c5.5,0,10.1-1.9,14.1-5.7l12.3,5.8
		c-3.1,4.4-6.7,7.6-11,9.7c-4.3,2.1-9.4,3.1-15.3,3.1c-9.1,0-16.6-2.9-22.3-8.6c-5.7-5.8-8.6-13-8.6-21.6c0-8.9,2.9-16.3,8.6-22.1
		c5.7-5.9,12.9-8.8,21.5-8.8c9.2,0,16.6,2.9,22.4,8.8c5.7,5.9,8.6,13.6,8.6,23.3L1124.3,271.3z M1109.7,259.8
		c-1-3.2-2.9-5.9-5.7-7.9c-2.8-2-6.1-3.1-9.9-3.1c-4.1,0-7.6,1.1-10.7,3.4c-1.9,1.4-3.7,3.9-5.4,7.5H1109.7z"/>
	<path d="M94.6,357.6h5.2c0-7.6,0.2-12.1,0.4-13.5c0.4-3.2,1.7-5.8,4-7.6c2.3-1.9,5.6-2.8,9.8-2.8c3,0,6.5,0.7,10.3,2.1v11.1
		c-2.1-0.6-3.8-0.9-5.2-0.9c-1.7,0-3,0.4-3.7,1.1c-0.6,0.5-0.9,1.6-0.9,3.3l-0.1,7.3h9.3v12.4h-9.3v45.9H99.8v-45.9h-5.2V357.6z"/>
	<path d="M157.4,356.1c5.5,0,10.7,1.4,15.5,4.1c4.8,2.7,8.6,6.5,11.3,11.2c2.7,4.7,4.1,9.8,4.1,15.3c0,5.5-1.4,10.6-4.1,15.4
		c-2.7,4.8-6.4,8.5-11.2,11.2s-9.9,4-15.6,4c-8.3,0-15.5-3-21.4-8.9c-5.9-5.9-8.9-13.2-8.9-21.6c0-9.1,3.3-16.7,10-22.7
		C143,358.7,149.8,356.1,157.4,356.1z M157.6,369.8c-4.5,0-8.3,1.6-11.3,4.7c-3,3.2-4.5,7.2-4.5,12.1c0,5.1,1.5,9.2,4.5,12.3
		c3,3.1,6.8,4.7,11.3,4.7c4.6,0,8.4-1.6,11.4-4.8c3-3.2,4.6-7.3,4.6-12.3c0-5-1.5-9.1-4.5-12.2C166.1,371.4,162.2,369.8,157.6,369.8
		z"/>
	<path d="M196.7,357.6h12.5v7.3c1.4-2.9,3.2-5.1,5.4-6.6c2.2-1.5,4.7-2.2,7.4-2.2c1.9,0,3.9,0.5,5.9,1.5l-4.5,12.6
		c-1.7-0.9-3.1-1.3-4.2-1.3c-2.2,0-4.1,1.4-5.7,4.2s-2.3,8.2-2.3,16.4l0.1,2.8v23.5h-14.5V357.6z"/>
	<path d="M302.3,357.6h14.6v58.2h-14.6v-6.2c-2.9,2.7-5.7,4.7-8.6,5.9s-6,1.8-9.3,1.8c-7.5,0-14-2.9-19.5-8.8
		c-5.5-5.8-8.2-13.1-8.2-21.8c0-9,2.7-16.4,8-22.1c5.3-5.7,11.8-8.6,19.4-8.6c3.5,0,6.8,0.7,9.8,2c3.1,1.3,5.9,3.3,8.5,5.9V357.6z
		 M286.9,369.5c-4.5,0-8.3,1.6-11.3,4.8c-3,3.2-4.5,7.3-4.5,12.3c0,5,1.5,9.2,4.6,12.4c3,3.2,6.8,4.9,11.2,4.9
		c4.6,0,8.4-1.6,11.4-4.8c3-3.2,4.5-7.4,4.5-12.5c0-5.1-1.5-9.2-4.5-12.3C295.4,371.1,291.5,369.5,286.9,369.5z"/>
	<path d="M327.9,335.1h14.6v80.7h-14.6V335.1z"/>
	<path d="M358.5,335.1h14.6v80.7h-14.6V335.1z"/>
	<path d="M418.1,337.1h15V388c0,4.4,0.4,7.5,1.2,9.3c0.8,1.8,2,3.3,3.8,4.4c1.8,1.1,3.9,1.6,6.4,1.6c2.6,0,4.9-0.6,6.8-1.8
		c1.9-1.2,3.2-2.8,4-4.6c0.7-1.9,1.1-5.4,1.1-10.7v-49h15V384c0,7.9-0.4,13.4-1.3,16.5c-0.9,3.1-2.6,6-5.1,8.9
		c-2.5,2.9-5.4,5-8.7,6.3c-3.3,1.4-7.1,2.1-11.5,2.1c-5.7,0-10.7-1.3-14.9-3.9c-4.2-2.6-7.3-5.9-9.1-9.8c-1.8-3.9-2.7-10.6-2.7-20
		V337.1z"/>
	<path d="M518.5,365.7l-9,9c-3.7-3.6-7-5.5-10-5.5c-1.6,0-2.9,0.3-3.9,1c-0.9,0.7-1.4,1.6-1.4,2.6c0,0.8,0.3,1.5,0.9,2.2
		c0.6,0.7,2,1.6,4.4,2.7l5.4,2.7c5.6,2.8,9.5,5.6,11.6,8.5c2.1,2.9,3.2,6.3,3.2,10.2c0,5.2-1.9,9.5-5.7,13
		c-3.8,3.5-8.9,5.2-15.3,5.2c-8.5,0-15.3-3.3-20.3-10l9-9.8c1.7,2,3.7,3.6,6,4.8s4.3,1.8,6.1,1.8c1.9,0,3.5-0.5,4.7-1.4
		c1.2-0.9,1.8-2,1.8-3.2c0-2.2-2.1-4.4-6.4-6.6l-4.9-2.5c-9.4-4.7-14.1-10.7-14.1-17.8c0-4.6,1.8-8.5,5.3-11.8
		c3.5-3.3,8.1-4.9,13.6-4.9c3.8,0,7.3,0.8,10.7,2.5C513.3,360.2,516.2,362.6,518.5,365.7z"/>
	<path d="M585,390.9h-46.9c0.7,4.1,2.5,7.4,5.4,9.9c2.9,2.4,6.7,3.7,11.3,3.7c5.5,0,10.1-1.9,14.1-5.7l12.3,5.8
		c-3.1,4.4-6.7,7.6-11,9.7c-4.3,2.1-9.4,3.1-15.3,3.1c-9.1,0-16.6-2.9-22.3-8.6c-5.7-5.8-8.6-13-8.6-21.6c0-8.9,2.9-16.3,8.6-22.1
		c5.7-5.9,12.9-8.8,21.5-8.8c9.2,0,16.6,2.9,22.4,8.8c5.7,5.9,8.6,13.6,8.6,23.3L585,390.9z M570.4,379.4c-1-3.2-2.9-5.9-5.7-7.9
		c-2.8-2-6.1-3.1-9.9-3.1c-4.1,0-7.6,1.1-10.7,3.4c-1.9,1.4-3.7,3.9-5.4,7.5H570.4z"/>
	<path d="M593.4,357.6h12.5v7.3c1.4-2.9,3.2-5.1,5.4-6.6c2.2-1.5,4.7-2.2,7.4-2.2c1.9,0,3.9,0.5,5.9,1.5l-4.5,12.6
		c-1.7-0.9-3.1-1.3-4.2-1.3c-2.2,0-4.1,1.4-5.7,4.2c-1.6,2.8-2.3,8.2-2.3,16.4l0.1,2.8v23.5h-14.5V357.6z"/>
</g>
</svg>
