<?xml version="1.0" encoding="utf-8"?>
<!-- Generator: Adobe Illustrator 20.0.0, SVG Export Plug-In . SVG Version: 6.00 Build 0)  -->
<svg version="1.1" id="レイヤー_1" xmlns="http://www.w3.org/2000/svg" xmlns:xlink="http://www.w3.org/1999/xlink" x="0px"
	 y="0px" viewBox="0 0 1280 1024" style="enable-background:new 0 0 1280 1024;" xml:space="preserve">
<style type="text/css">
	.st0{fill:#202020;}
</style>
<g>
	<path class="st0" d="M291.2,411.3c0,1.6,0,3.3-0.1,5c-0.1,1.7-0.2,3.4-0.5,5c-0.3,1.6-0.7,3.1-1.3,4.6c-0.6,1.4-1.4,2.7-2.5,3.7
		c-1.2,1.2-2.8,2.2-4.6,2.9c-1.9,0.7-3.8,1-5.9,1c-2.3,0-4.3-0.3-6-1c-1.7-0.7-3.3-1.9-4.8-3.5v4.1h-10.5v-59.1h10.8v19.7
		c1.4-1.6,3-2.7,4.6-3.4c1.7-0.6,3.6-1,5.8-1c2.1,0,4.1,0.3,5.9,1c1.9,0.7,3.4,1.6,4.6,2.9c1.1,1.1,1.9,2.4,2.5,3.8
		c0.6,1.4,1.1,2.9,1.3,4.5c0.3,1.6,0.4,3.3,0.5,4.9C291.2,408.1,291.2,409.7,291.2,411.3z M280.5,411.3c0-1.8-0.1-3.4-0.2-4.9
		s-0.5-2.8-1-3.9c-0.5-1.1-1.2-2-2.2-2.6c-1-0.6-2.3-1-3.9-1c-1.6,0-2.9,0.3-3.9,1c-1,0.6-1.7,1.5-2.2,2.6c-0.5,1.1-0.8,2.4-1,3.9
		s-0.2,3.1-0.2,4.9c0,1.8,0.1,3.4,0.2,4.9c0.2,1.5,0.5,2.8,1,3.9c0.5,1.1,1.2,2,2.2,2.6c1,0.6,2.3,1,3.9,1c1.6,0,2.9-0.3,3.9-1
		c1-0.6,1.7-1.5,2.2-2.6c0.5-1.1,0.8-2.4,1-3.9C280.4,414.8,280.5,413.1,280.5,411.3z"/>
	<path class="st0" d="M320,401.5c-0.8-0.8-1.7-1.5-2.5-1.9c-0.8-0.4-1.9-0.7-3.2-0.7c-0.8,0-1.7,0.2-2.5,0.5
		c-0.8,0.3-1.6,0.8-2.2,1.5s-1.2,1.5-1.6,2.5s-0.6,2.2-0.6,3.6V433h-10.8v-43.2h10.5v4.2c1.1-1.3,2.5-2.4,4.5-3.3
		c1.9-0.9,4.1-1.4,6.4-1.4c2.1,0,4,0.3,5.6,0.9c1.6,0.6,3.2,1.7,4.6,3.2L320,401.5z"/>
	<path class="st0" d="M350.7,433v-3.7c-1.4,1.4-2.9,2.5-4.5,3.2c-1.6,0.7-3.6,1-6.1,1c-4.8,0-8.5-1.3-11-3.8c-1.2-1.2-2-2.7-2.7-4.3
		c-0.6-1.7-0.9-3.5-0.9-5.4c0-1.7,0.3-3.3,0.9-4.9c0.6-1.5,1.5-2.8,2.7-4c1.2-1.1,2.8-2,4.6-2.7c1.9-0.7,4-1,6.5-1h10.2v-2.2
		c0-2.4-0.6-4.1-1.9-5.2c-1.2-1.1-3.3-1.6-6.2-1.6c-1.1,0-2,0.1-2.7,0.2c-0.8,0.1-1.5,0.3-2.1,0.6c-0.6,0.3-1.2,0.6-1.8,1.1
		c-0.6,0.4-1.1,1-1.7,1.7l-6.9-6.7c2.1-2.3,4.3-3.9,6.7-4.7c2.4-0.8,5.3-1.2,8.9-1.2c6.1,0,10.7,1.3,13.8,3.8
		c3.1,2.5,4.6,6.4,4.6,11.5V433H350.7z M350.4,414.7h-8.5c-1.9,0-3.4,0.4-4.5,1.3c-1.1,0.9-1.6,2.1-1.6,3.6c0,1.5,0.5,2.7,1.5,3.6
		c1,0.9,2.6,1.4,4.7,1.4c1.5,0,2.8-0.1,3.8-0.3c1.1-0.2,2-0.8,3-1.7c1.1-1,1.6-2.8,1.6-5.5V414.7z"/>
	<path class="st0" d="M393,433v-26.1c0-1.5-0.2-2.7-0.6-3.7s-1-1.8-1.7-2.4c-0.7-0.6-1.5-1.1-2.3-1.3c-0.9-0.3-1.7-0.4-2.5-0.4
		c-0.8,0-1.7,0.1-2.5,0.4c-0.9,0.3-1.6,0.7-2.3,1.3c-0.7,0.6-1.3,1.4-1.7,2.4c-0.4,1-0.7,2.2-0.7,3.7V433h-10.8v-43.2h10.5v4
		c1.4-1.5,3.1-2.6,5-3.4c1.9-0.7,3.8-1.1,5.8-1.1c2.2,0,4.1,0.3,5.8,1c1.7,0.7,3.2,1.6,4.4,2.8c1.8,1.8,2.9,3.7,3.5,5.7
		c0.6,2,0.9,4.2,0.9,6.6V433H393z"/>
	<path class="st0" d="M434.3,433v-4.1c-1.5,1.7-3.1,2.8-4.7,3.5s-3.7,1-6,1c-2.1,0-4.1-0.3-6-1c-1.9-0.7-3.4-1.6-4.6-2.9
		c-1.1-1.1-2-2.3-2.5-3.7c-0.6-1.4-1-3-1.3-4.6c-0.3-1.6-0.4-3.3-0.5-5c-0.1-1.7-0.1-3.4-0.1-5c0-1.6,0-3.2,0.1-4.9
		c0.1-1.7,0.2-3.3,0.5-4.9c0.3-1.6,0.7-3.1,1.3-4.5s1.4-2.7,2.5-3.8c1.2-1.2,2.8-2.2,4.6-2.9c1.9-0.7,3.8-1,5.9-1
		c2.2,0,4.2,0.3,5.9,1c1.7,0.6,3.2,1.8,4.7,3.4v-19.7h10.8V433H434.3z M434.1,411.3c0-1.8-0.1-3.4-0.2-4.9s-0.5-2.8-1-3.9
		c-0.5-1.1-1.3-2-2.2-2.6c-1-0.6-2.3-1-3.9-1c-1.6,0-2.9,0.3-3.9,1c-1,0.6-1.7,1.5-2.2,2.6c-0.5,1.1-0.8,2.4-1,3.9s-0.2,3.1-0.2,4.9
		c0,1.8,0.1,3.4,0.2,4.9c0.2,1.5,0.5,2.8,1,3.9c0.5,1.1,1.2,2,2.2,2.6c1,0.6,2.3,1,3.9,1c1.6,0,2.9-0.3,3.9-1c1-0.6,1.7-1.5,2.2-2.6
		c0.5-1.1,0.9-2.4,1-3.9C434,414.8,434.1,413.1,434.1,411.3z"/>
	<path class="st0" d="M498.8,419.4c0,2.4-0.5,4.5-1.4,6.2c-0.9,1.8-2.2,3.2-3.9,4.4c-1.7,1.2-3.6,2-5.9,2.6
		c-2.2,0.6-4.6,0.9-7.2,0.9c-1.7,0-3.4-0.1-5-0.2c-1.6-0.1-3.2-0.4-4.7-0.9c-1.5-0.4-3-1.1-4.5-1.9c-1.4-0.8-2.9-1.9-4.2-3.2l7.1-7
		c1.8,1.8,3.7,2.9,5.9,3.4c2.1,0.5,4,0.7,5.7,0.7c0.9,0,1.9-0.1,2.8-0.2c0.9-0.2,1.7-0.4,2.4-0.8c0.7-0.4,1.3-0.8,1.7-1.4
		c0.4-0.6,0.7-1.2,0.7-2.1c0-1.1-0.3-2-1-2.7c-0.7-0.7-1.9-1.1-3.6-1.3l-6.8-0.7c-3.9-0.4-7-1.5-9.3-3.4c-2.2-1.9-3.4-4.8-3.4-8.8
		c0-2.2,0.5-4.2,1.4-5.9s2.1-3.2,3.7-4.3c1.5-1.2,3.3-2.1,5.3-2.7c2-0.6,4.1-0.9,6.3-0.9c3.4,0,6.4,0.4,9.2,1.1c2.8,0.7,5.2,2,7.3,4
		l-6.6,6.7c-1.3-1.1-2.8-1.9-4.6-2.3c-1.8-0.4-3.6-0.6-5.5-0.6c-2.2,0-3.7,0.4-4.7,1.2c-1,0.8-1.5,1.8-1.5,2.9
		c0,0.4,0.1,0.8,0.2,1.2c0.1,0.4,0.3,0.8,0.7,1.1c0.3,0.3,0.8,0.6,1.4,0.9c0.6,0.3,1.3,0.4,2.3,0.5l6.8,0.7c4.3,0.4,7.5,1.8,9.7,3.9
		C497.8,412.8,498.8,415.7,498.8,419.4z"/>
	<path class="st0" d="M515.6,433c-2.2,0-4.1-0.4-5.7-1.1c-1.6-0.7-2.9-1.7-3.9-2.8c-1-1.2-1.8-2.5-2.2-3.9c-0.5-1.5-0.7-3-0.7-4.5
		v-21.4h-4.6V391h4.6v-12.8h10.8V391h7.6v8.2h-7.6V420c0,2.6,1.2,3.9,3.7,3.9h3.9v9.1H515.6z"/>
	<path class="st0" d="M549.8,401.5c-0.8-0.8-1.7-1.5-2.5-1.9c-0.8-0.4-1.9-0.7-3.2-0.7c-0.8,0-1.7,0.2-2.5,0.5
		c-0.8,0.3-1.6,0.8-2.2,1.5s-1.2,1.5-1.6,2.5s-0.6,2.2-0.6,3.6V433h-10.8v-43.2h10.5v4.2c1.1-1.3,2.5-2.4,4.5-3.3
		c1.9-0.9,4.1-1.4,6.4-1.4c2.1,0,4,0.3,5.6,0.9c1.6,0.6,3.2,1.7,4.6,3.2L549.8,401.5z"/>
	<path class="st0" d="M580.4,433v-3.7c-1.4,1.4-2.9,2.5-4.5,3.2c-1.6,0.7-3.6,1-6.1,1c-4.8,0-8.5-1.3-11-3.8c-1.2-1.2-2-2.7-2.7-4.3
		c-0.6-1.7-0.9-3.5-0.9-5.4c0-1.7,0.3-3.3,0.9-4.9c0.6-1.5,1.5-2.8,2.7-4c1.2-1.1,2.8-2,4.6-2.7c1.9-0.7,4-1,6.5-1h10.2v-2.2
		c0-2.4-0.6-4.1-1.9-5.2c-1.2-1.1-3.3-1.6-6.2-1.6c-1.1,0-2,0.1-2.7,0.2c-0.8,0.1-1.5,0.3-2.1,0.6c-0.6,0.3-1.2,0.6-1.8,1.1
		c-0.6,0.4-1.1,1-1.7,1.7l-6.9-6.7c2.1-2.3,4.3-3.9,6.7-4.7c2.4-0.8,5.3-1.2,8.9-1.2c6.1,0,10.7,1.3,13.8,3.8
		c3.1,2.5,4.6,6.4,4.6,11.5V433H580.4z M580.2,414.7h-8.5c-1.9,0-3.4,0.4-4.5,1.3c-1.1,0.9-1.6,2.1-1.6,3.6c0,1.5,0.5,2.7,1.5,3.6
		c1,0.9,2.6,1.4,4.7,1.4c1.5,0,2.8-0.1,3.8-0.3c1.1-0.2,2-0.8,3-1.7c1.1-1,1.6-2.8,1.6-5.5V414.7z"/>
	<path class="st0" d="M611.1,433c-2.2,0-4.1-0.4-5.7-1.1c-1.6-0.7-2.9-1.7-3.9-2.8c-1-1.2-1.8-2.5-2.2-3.9c-0.5-1.5-0.7-3-0.7-4.5
		v-21.4H594V391h4.6v-12.8h10.8V391h7.6v8.2h-7.6V420c0,2.6,1.2,3.9,3.7,3.9h3.9v9.1H611.1z"/>
	<path class="st0" d="M630,414.7c0,2.8,0.8,5.1,2.4,6.9c1.6,1.8,4,2.7,7,2.7c2.4,0,4.3-0.3,5.6-1c1.4-0.7,2.8-1.7,4.2-3.1l6.6,6.4
		c-1.1,1.1-2.2,2.1-3.3,2.9c-1.1,0.8-2.3,1.5-3.6,2.1c-1.3,0.6-2.7,1-4.3,1.3c-1.5,0.3-3.3,0.5-5.2,0.5c-2.5,0-5-0.3-7.4-1
		c-2.4-0.7-4.5-1.8-6.4-3.5c-1.9-1.7-3.3-4-4.5-6.8c-1.1-2.8-1.7-6.5-1.7-10.8c0-3.5,0.5-6.7,1.4-9.4s2.2-5,3.9-6.9
		c1.7-1.9,3.6-3.3,5.9-4.3c2.3-1,4.9-1.5,7.7-1.5c3,0,5.7,0.5,8,1.6c2.4,1.1,4.3,2.5,5.9,4.3c1.6,1.8,2.8,4,3.7,6.5
		c0.8,2.5,1.2,5.3,1.2,8.3v4.8H630z M646.5,407.4c-0.1-0.9-0.2-1.8-0.3-2.4c-0.1-0.7-0.4-1.4-0.7-2.2c-0.6-1.3-1.5-2.3-2.7-3.2
		c-1.2-0.9-2.7-1.3-4.5-1.3c-1.8,0-3.3,0.4-4.5,1.3c-1.2,0.9-2.1,1.9-2.7,3.2c-0.3,0.8-0.6,1.5-0.7,2.2c-0.1,0.7-0.2,1.5-0.3,2.4
		H646.5z"/>
	<path class="st0" d="M696,431.4c0,2.6-0.4,5-1.3,7.2c-0.9,2.2-2.2,4.1-3.8,5.7c-1.7,1.6-3.7,2.8-6,3.7c-2.4,0.9-5,1.3-7.8,1.3
		c-3.3,0-6.2-0.4-8.6-1.2c-2.4-0.8-4.8-2.3-7.1-4.4l6.7-6.8c1.2,1.2,2.5,2,3.8,2.5c1.3,0.5,2.9,0.8,4.7,0.8c1.6,0,3-0.3,4.1-0.8
		c1.1-0.5,2-1.2,2.7-2c0.7-0.8,1.2-1.8,1.5-2.9c0.3-1.1,0.5-2.2,0.5-3.3v-4.4c-1.4,1.6-3,2.7-4.6,3.4c-1.7,0.6-3.5,1-5.6,1
		c-2.1,0-4-0.3-5.8-1c-1.8-0.7-3.3-1.6-4.5-2.8c-1-1-1.8-2.1-2.4-3.3c-0.6-1.2-1.1-2.5-1.3-3.9c-0.3-1.4-0.5-2.9-0.5-4.6
		c-0.1-1.7-0.1-3.4-0.1-5.3c0-1.9,0-3.6,0.1-5.3c0.1-1.6,0.3-3.2,0.5-4.6c0.3-1.4,0.7-2.7,1.3-3.9c0.6-1.2,1.4-2.3,2.4-3.3
		c1.2-1.2,2.7-2.2,4.5-2.8c1.8-0.7,3.7-1,5.9-1c2.3,0,4.3,0.3,5.9,1c1.6,0.7,3.2,1.9,4.6,3.5v-4.1H696V431.4z M685.2,410.2
		c0-1.4-0.1-2.8-0.2-4.2c-0.1-1.4-0.5-2.5-1-3.6c-0.5-1-1.2-1.9-2.2-2.5c-0.9-0.6-2.2-1-3.8-1c-1.6,0-2.9,0.3-3.8,1
		c-0.9,0.6-1.6,1.5-2.1,2.5c-0.5,1-0.8,2.2-0.9,3.6c-0.1,1.4-0.2,2.8-0.2,4.2c0,1.4,0.1,2.8,0.2,4.2c0.1,1.4,0.4,2.6,0.9,3.6
		c0.5,1.1,1.2,1.9,2.1,2.5c0.9,0.6,2.2,1,3.8,1c1.6,0,2.9-0.3,3.8-1c0.9-0.6,1.7-1.5,2.2-2.5c0.5-1.1,0.8-2.3,1-3.6
		C685.2,413,685.2,411.6,685.2,410.2z"/>
	<path class="st0" d="M719.3,440c-0.9,2.5-2,4.3-3.2,5.6c-1.3,1.3-2.7,2.1-4.3,2.6c-1.6,0.5-3.3,0.7-5,0.7h-4.2v-9.7h2.5
		c1.5,0,2.7-0.2,3.4-0.7s1.4-1.5,2-3.2l1.8-5.3l-14.8-40.2h11.4l9,26.7l8.6-26.7h11.4L719.3,440z"/>
	<path class="st0" d="M775.6,433v-3.7c-1.4,1.4-2.9,2.5-4.5,3.2s-3.6,1-6.1,1c-4.8,0-8.5-1.3-11-3.8c-1.2-1.2-2-2.7-2.7-4.3
		c-0.6-1.7-0.9-3.5-0.9-5.4c0-1.7,0.3-3.3,0.9-4.9c0.6-1.5,1.5-2.8,2.7-4c1.2-1.1,2.8-2,4.6-2.7c1.9-0.7,4-1,6.5-1h10.2v-2.2
		c0-2.4-0.6-4.1-1.9-5.2c-1.2-1.1-3.3-1.6-6.2-1.6c-1.1,0-2,0.1-2.7,0.2c-0.8,0.1-1.5,0.3-2.1,0.6c-0.6,0.3-1.2,0.6-1.8,1.1
		c-0.6,0.4-1.1,1-1.7,1.7l-6.9-6.7c2.1-2.3,4.3-3.9,6.7-4.7c2.4-0.8,5.3-1.2,8.9-1.2c6.1,0,10.7,1.3,13.8,3.8
		c3.1,2.5,4.6,6.4,4.6,11.5V433H775.6z M775.4,414.7h-8.5c-1.9,0-3.4,0.4-4.5,1.3c-1.1,0.9-1.6,2.1-1.6,3.6c0,1.5,0.5,2.7,1.5,3.6
		c1,0.9,2.6,1.4,4.7,1.4c1.5,0,2.8-0.1,3.8-0.3c1-0.2,2-0.8,3-1.7c1.1-1,1.6-2.8,1.6-5.5V414.7z"/>
	<path class="st0" d="M818,433v-26.1c0-1.5-0.2-2.7-0.6-3.7s-1-1.8-1.7-2.4c-0.7-0.6-1.5-1.1-2.3-1.3c-0.9-0.3-1.7-0.4-2.5-0.4
		s-1.7,0.1-2.5,0.4c-0.9,0.3-1.6,0.7-2.3,1.3c-0.7,0.6-1.3,1.4-1.7,2.4c-0.4,1-0.7,2.2-0.7,3.7V433h-10.8v-43.2h10.5v4
		c1.4-1.5,3.1-2.6,5-3.4c1.9-0.7,3.8-1.1,5.8-1.1c2.2,0,4.1,0.3,5.8,1c1.7,0.7,3.2,1.6,4.4,2.8c1.8,1.8,2.9,3.7,3.5,5.7
		c0.6,2,0.9,4.2,0.9,6.6V433H818z"/>
	<path class="st0" d="M859.3,433v-4.1c-1.5,1.7-3.1,2.8-4.7,3.5c-1.7,0.7-3.7,1-6,1c-2.1,0-4.1-0.3-6-1c-1.9-0.7-3.4-1.6-4.6-2.9
		c-1.1-1.1-2-2.3-2.5-3.7c-0.6-1.4-1-3-1.3-4.6c-0.3-1.6-0.4-3.3-0.5-5c-0.1-1.7-0.1-3.4-0.1-5c0-1.6,0-3.2,0.1-4.9
		c0.1-1.7,0.2-3.3,0.5-4.9c0.3-1.6,0.7-3.1,1.3-4.5s1.4-2.7,2.5-3.8c1.2-1.2,2.8-2.2,4.6-2.9c1.9-0.7,3.8-1,5.9-1
		c2.2,0,4.2,0.3,5.9,1c1.7,0.6,3.2,1.8,4.7,3.4v-19.7h10.8V433H859.3z M859,411.3c0-1.8-0.1-3.4-0.2-4.9s-0.5-2.8-1-3.9
		c-0.5-1.1-1.3-2-2.2-2.6c-1-0.6-2.3-1-3.9-1c-1.6,0-2.9,0.3-3.9,1c-1,0.6-1.7,1.5-2.2,2.6c-0.5,1.1-0.8,2.4-1,3.9s-0.2,3.1-0.2,4.9
		c0,1.8,0.1,3.4,0.2,4.9c0.2,1.5,0.5,2.8,1,3.9c0.5,1.1,1.2,2,2.2,2.6c1,0.6,2.3,1,3.9,1c1.6,0,2.9-0.3,3.9-1c1-0.6,1.7-1.5,2.2-2.6
		c0.5-1.1,0.9-2.4,1-3.9C859,414.8,859,413.1,859,411.3z"/>
	<path class="st0" d="M279,523.2v-4.1c-1.5,1.7-3.1,2.8-4.7,3.5c-1.7,0.7-3.7,1-6,1c-2.1,0-4.1-0.3-6-1c-1.9-0.7-3.4-1.6-4.6-2.9
		c-1.1-1-2-2.3-2.5-3.7c-0.6-1.4-1-3-1.3-4.6c-0.3-1.6-0.4-3.3-0.5-5c-0.1-1.7-0.1-3.4-0.1-5c0-1.6,0-3.2,0.1-4.9
		c0.1-1.7,0.2-3.3,0.5-4.9c0.3-1.6,0.7-3.1,1.3-4.5s1.4-2.7,2.5-3.8c1.2-1.2,2.8-2.2,4.6-2.9c1.9-0.7,3.8-1,5.9-1
		c2.2,0,4.2,0.3,5.9,1c1.7,0.6,3.2,1.8,4.7,3.4v-19.7h10.8v59.1H279z M278.7,501.5c0-1.8-0.1-3.4-0.2-4.9s-0.5-2.8-1-3.9
		c-0.5-1.1-1.3-2-2.2-2.6c-1-0.6-2.3-1-3.9-1c-1.6,0-2.9,0.3-3.9,1c-1,0.6-1.7,1.5-2.2,2.6c-0.5,1.1-0.8,2.4-1,3.9s-0.2,3.1-0.2,4.9
		c0,1.8,0.1,3.4,0.2,4.9c0.2,1.5,0.5,2.8,1,3.9c0.5,1.1,1.2,2,2.2,2.6c1,0.6,2.3,1,3.9,1c1.6,0,2.9-0.3,3.9-1c1-0.6,1.7-1.5,2.2-2.6
		c0.5-1.1,0.9-2.4,1-3.9C278.6,504.9,278.7,503.3,278.7,501.5z"/>
	<path class="st0" d="M305.1,504.9c0,2.8,0.8,5.1,2.4,6.9c1.6,1.8,4,2.7,7,2.7c2.4,0,4.3-0.3,5.6-1c1.4-0.7,2.8-1.7,4.1-3.1l6.6,6.4
		c-1.1,1.1-2.2,2.1-3.3,2.9c-1.1,0.8-2.3,1.5-3.6,2.1c-1.3,0.6-2.7,1-4.3,1.3c-1.5,0.3-3.3,0.5-5.2,0.5c-2.5,0-5-0.3-7.4-1
		c-2.4-0.7-4.5-1.8-6.4-3.5c-1.9-1.7-3.3-4-4.5-6.8c-1.1-2.8-1.7-6.5-1.7-10.8c0-3.5,0.5-6.7,1.4-9.4s2.2-5,3.9-6.9
		c1.7-1.9,3.6-3.3,5.9-4.3c2.3-1,4.9-1.5,7.7-1.5c3,0,5.7,0.5,8,1.6c2.4,1.1,4.3,2.5,5.9,4.3c1.6,1.8,2.8,4,3.7,6.5
		c0.8,2.5,1.2,5.3,1.2,8.3v4.8H305.1z M321.5,497.5c-0.1-0.9-0.2-1.8-0.3-2.4c-0.1-0.7-0.4-1.4-0.7-2.2c-0.6-1.3-1.5-2.3-2.7-3.2
		c-1.2-0.9-2.7-1.3-4.5-1.3c-1.8,0-3.3,0.4-4.5,1.3c-1.2,0.9-2.1,1.9-2.7,3.2c-0.3,0.8-0.6,1.5-0.7,2.2c-0.1,0.7-0.2,1.5-0.3,2.4
		H321.5z"/>
	<path class="st0" d="M371.1,521.6c0,2.6-0.4,5-1.3,7.2c-0.9,2.2-2.2,4.1-3.8,5.7c-1.7,1.6-3.7,2.8-6,3.7c-2.4,0.9-5,1.3-7.8,1.3
		c-3.3,0-6.2-0.4-8.6-1.2c-2.4-0.8-4.8-2.3-7.1-4.4l6.7-6.8c1.2,1.2,2.5,2,3.8,2.5c1.3,0.5,2.9,0.8,4.7,0.8c1.6,0,3-0.3,4.1-0.8
		c1.1-0.5,2-1.2,2.7-2c0.7-0.8,1.2-1.8,1.5-2.9c0.3-1.1,0.5-2.2,0.5-3.3V517c-1.4,1.6-3,2.7-4.6,3.4c-1.7,0.6-3.5,1-5.6,1
		c-2.1,0-4-0.3-5.8-1c-1.8-0.7-3.3-1.6-4.5-2.8c-1-1-1.8-2.1-2.4-3.3c-0.6-1.2-1.1-2.5-1.3-3.9c-0.3-1.4-0.5-2.9-0.5-4.6
		c-0.1-1.7-0.1-3.4-0.1-5.3c0-1.9,0-3.6,0.1-5.3c0.1-1.6,0.3-3.2,0.5-4.6c0.3-1.4,0.7-2.7,1.3-3.9c0.6-1.2,1.4-2.3,2.4-3.3
		c1.2-1.2,2.7-2.2,4.5-2.8c1.8-0.7,3.7-1,5.9-1c2.3,0,4.3,0.3,5.9,1c1.6,0.7,3.2,1.9,4.6,3.5v-4.1h10.5V521.6z M360.3,500.4
		c0-1.4-0.1-2.8-0.2-4.2c-0.1-1.4-0.5-2.5-1-3.6c-0.5-1-1.2-1.9-2.2-2.5c-0.9-0.6-2.2-1-3.8-1c-1.6,0-2.9,0.3-3.8,1
		c-0.9,0.6-1.6,1.5-2.1,2.5c-0.5,1-0.8,2.2-0.9,3.6c-0.1,1.4-0.2,2.8-0.2,4.2c0,1.4,0.1,2.8,0.2,4.2c0.1,1.4,0.4,2.6,0.9,3.6
		c0.5,1.1,1.2,1.9,2.1,2.5c0.9,0.6,2.2,1,3.8,1c1.6,0,2.9-0.3,3.8-1c0.9-0.6,1.7-1.5,2.2-2.5c0.5-1.1,0.8-2.3,1-3.6
		C360.2,503.2,360.3,501.8,360.3,500.4z"/>
	<path class="st0" d="M378.1,472.6v-8.8h11v8.8H378.1z M378.2,523.2v-43.2H389v43.2H378.2z"/>
	<path class="st0" d="M409.6,523.2c-2.2,0-4.1-0.4-5.7-1.1c-1.6-0.7-2.9-1.7-3.9-2.8c-1-1.2-1.8-2.5-2.2-3.9c-0.5-1.5-0.7-3-0.7-4.5
		v-21.4h-4.6v-8.2h4.6v-12.8h10.8v12.8h7.6v8.2h-7.6v20.8c0,2.6,1.2,3.9,3.7,3.9h3.9v9.1H409.6z"/>
	<path class="st0" d="M442.2,523.2v-3.7c-1.4,1.4-2.9,2.5-4.5,3.2c-1.6,0.7-3.6,1-6.1,1c-4.8,0-8.5-1.3-11-3.8
		c-1.2-1.2-2-2.7-2.7-4.3c-0.6-1.7-0.9-3.5-0.9-5.4c0-1.7,0.3-3.3,0.9-4.9c0.6-1.5,1.5-2.8,2.7-4c1.2-1.1,2.8-2,4.6-2.7
		c1.9-0.7,4-1,6.5-1H442v-2.2c0-2.4-0.6-4.1-1.9-5.2c-1.2-1.1-3.3-1.6-6.2-1.6c-1.1,0-2,0.1-2.7,0.2c-0.8,0.1-1.5,0.3-2.1,0.6
		c-0.6,0.3-1.2,0.6-1.8,1.1c-0.6,0.4-1.1,1-1.7,1.7l-6.9-6.7c2.1-2.3,4.3-3.9,6.7-4.7c2.4-0.8,5.3-1.2,8.9-1.2
		c6.1,0,10.7,1.3,13.8,3.8c3.1,2.5,4.6,6.4,4.6,11.5v28.5H442.2z M442,504.9h-8.5c-1.9,0-3.4,0.4-4.5,1.3c-1.1,0.9-1.6,2.1-1.6,3.6
		c0,1.5,0.5,2.7,1.5,3.6c1,0.9,2.6,1.4,4.7,1.4c1.5,0,2.8-0.1,3.8-0.3c1.1-0.2,2-0.8,3-1.7c1.1-1,1.6-2.8,1.6-5.5V504.9z"/>
	<path class="st0" d="M471.6,523.2c-2.2,0-4.1-0.4-5.7-1.1c-1.6-0.7-2.9-1.7-3.9-2.8c-1-1.2-1.8-2.5-2.2-3.9c-0.5-1.5-0.7-3-0.7-4.5
		v-46.7h10.8v46.1c0,1.3,0.3,2.2,0.9,2.9s1.6,1,2.9,1h4.1v9.1H471.6z"/>
	<path class="st0" d="M520.8,522.2c-2.3,1-4.9,1.5-7.9,1.5c-2.2,0-4.4-0.3-6.7-1c-2.3-0.7-4.4-1.8-6.2-3.5c-1.9-1.7-3.4-4-4.6-6.8
		c-1.2-2.8-1.8-6.5-1.8-10.8c0-4.4,0.6-8,1.8-10.8c1.2-2.8,2.8-5.1,4.6-6.8c1.9-1.7,3.9-2.8,6.2-3.5c2.3-0.7,4.5-1,6.7-1
		c3,0,5.6,0.5,7.9,1.4c2.3,0.9,4.4,2.4,6.3,4.4l-7.3,7.3c-1.1-1.2-2.2-2.1-3.2-2.6c-1.1-0.5-2.3-0.8-3.7-0.8c-2.5,0-4.6,0.9-6.1,2.8
		c-0.8,1.1-1.4,2.3-1.8,3.8c-0.4,1.5-0.6,3.4-0.6,5.7c0,4.4,0.8,7.6,2.4,9.6c1.5,1.9,3.6,2.8,6.1,2.8c1.4,0,2.7-0.3,3.7-0.8
		c1.1-0.5,2.1-1.4,3.2-2.6l7.3,7.2C525.2,519.8,523.1,521.3,520.8,522.2z"/>
	<path class="st0" d="M554,491.7c-0.8-0.8-1.7-1.5-2.5-1.9c-0.8-0.4-1.9-0.7-3.2-0.7c-0.8,0-1.7,0.2-2.5,0.5
		c-0.8,0.3-1.6,0.8-2.2,1.5s-1.2,1.5-1.6,2.5s-0.6,2.2-0.6,3.6v26.1h-10.8v-43.2h10.5v4.2c1.1-1.3,2.5-2.4,4.5-3.3
		c1.9-0.9,4.1-1.4,6.4-1.4c2.1,0,4,0.3,5.6,0.9c1.6,0.6,3.2,1.7,4.6,3.2L554,491.7z"/>
	<path class="st0" d="M569.2,504.9c0,2.8,0.8,5.1,2.4,6.9c1.6,1.8,4,2.7,7,2.7c2.4,0,4.3-0.3,5.6-1c1.4-0.7,2.8-1.7,4.1-3.1l6.6,6.4
		c-1.1,1.1-2.2,2.1-3.3,2.9c-1.1,0.8-2.3,1.5-3.6,2.1c-1.3,0.6-2.7,1-4.3,1.3c-1.5,0.3-3.3,0.5-5.2,0.5c-2.5,0-5-0.3-7.4-1
		c-2.4-0.7-4.5-1.8-6.4-3.5c-1.9-1.7-3.3-4-4.5-6.8c-1.1-2.8-1.7-6.5-1.7-10.8c0-3.5,0.5-6.7,1.4-9.4s2.2-5,3.9-6.9
		c1.7-1.9,3.6-3.3,5.9-4.3c2.3-1,4.9-1.5,7.7-1.5c3,0,5.7,0.5,8,1.6c2.4,1.1,4.3,2.5,5.9,4.3c1.6,1.8,2.8,4,3.7,6.5
		c0.8,2.5,1.2,5.3,1.2,8.3v4.8H569.2z M585.6,497.5c-0.1-0.9-0.2-1.8-0.3-2.4c-0.1-0.7-0.4-1.4-0.7-2.2c-0.6-1.3-1.5-2.3-2.7-3.2
		c-1.2-0.9-2.7-1.3-4.5-1.3c-1.8,0-3.3,0.4-4.5,1.3c-1.2,0.9-2.1,1.9-2.7,3.2c-0.3,0.8-0.6,1.5-0.7,2.2c-0.1,0.7-0.2,1.5-0.3,2.4
		H585.6z"/>
	<path class="st0" d="M623.4,523.2v-3.7c-1.4,1.4-2.9,2.5-4.5,3.2c-1.6,0.7-3.6,1-6.1,1c-4.8,0-8.5-1.3-11-3.8
		c-1.2-1.2-2-2.7-2.7-4.3c-0.6-1.7-0.9-3.5-0.9-5.4c0-1.7,0.3-3.3,0.9-4.9c0.6-1.5,1.5-2.8,2.7-4c1.2-1.1,2.8-2,4.6-2.7
		c1.9-0.7,4-1,6.5-1h10.2v-2.2c0-2.4-0.6-4.1-1.9-5.2c-1.2-1.1-3.3-1.6-6.2-1.6c-1.1,0-2,0.1-2.7,0.2c-0.8,0.1-1.5,0.3-2.1,0.6
		c-0.6,0.3-1.2,0.6-1.8,1.1c-0.6,0.4-1.1,1-1.7,1.7l-6.9-6.7c2.1-2.3,4.3-3.9,6.7-4.7c2.4-0.8,5.3-1.2,8.9-1.2
		c6.1,0,10.7,1.3,13.8,3.8c3.1,2.5,4.6,6.4,4.6,11.5v28.5H623.4z M623.2,504.9h-8.5c-1.9,0-3.4,0.4-4.5,1.3
		c-1.1,0.9-1.6,2.1-1.6,3.6c0,1.5,0.5,2.7,1.5,3.6c1,0.9,2.6,1.4,4.7,1.4c1.5,0,2.8-0.1,3.8-0.3c1.1-0.2,2-0.8,3-1.7
		c1.1-1,1.6-2.8,1.6-5.5V504.9z"/>
	<path class="st0" d="M654.1,523.2c-2.2,0-4.1-0.4-5.7-1.1c-1.6-0.7-2.9-1.7-3.9-2.8c-1-1.2-1.8-2.5-2.2-3.9c-0.5-1.5-0.7-3-0.7-4.5
		v-21.4H637v-8.2h4.6v-12.8h10.8v12.8h7.6v8.2h-7.6v20.8c0,2.6,1.2,3.9,3.7,3.9h3.9v9.1H654.1z"/>
	<path class="st0" d="M664.7,472.6v-8.8h11v8.8H664.7z M664.8,523.2v-43.2h10.8v43.2H664.8z"/>
	<path class="st0" d="M717.4,501.5c0,3.9-0.3,7.2-1,9.8c-0.7,2.6-2,5-3.9,7c-1.3,1.4-3.1,2.7-5.3,3.7c-2.2,1.1-4.9,1.6-8.1,1.6
		c-3.2,0-5.9-0.5-8.1-1.6c-2.2-1.1-3.9-2.3-5.3-3.7c-1.9-2-3.2-4.4-3.9-7c-0.7-2.6-1-5.9-1-9.8c0-3.9,0.3-7.2,1-9.8
		c0.7-2.6,2-4.9,3.9-7c1.3-1.4,3.1-2.7,5.3-3.7c2.2-1.1,4.9-1.6,8.1-1.6c3.2,0,5.9,0.5,8.1,1.6c2.2,1.1,4,2.3,5.3,3.7
		c1.9,2,3.2,4.4,3.9,7C717.1,494.3,717.4,497.6,717.4,501.5z M706.7,501.5c0-2.3-0.1-4.3-0.4-6.1c-0.3-1.8-1-3.2-2.1-4.4
		c-1.3-1.3-3-1.9-5.1-1.9c-2,0-3.7,0.6-5,1.9c-1.1,1.1-1.8,2.6-2.1,4.4c-0.3,1.8-0.4,3.8-0.4,6.1c0,2.3,0.1,4.3,0.4,6.1
		c0.3,1.8,1,3.3,2.1,4.4c1.3,1.3,2.9,1.9,5,1.9c2.1,0,3.8-0.6,5.1-1.9c1.1-1.1,1.8-2.6,2.1-4.4C706.5,505.8,706.7,503.8,706.7,501.5
		z"/>
	<path class="st0" d="M747.9,523.2V497c0-1.5-0.2-2.7-0.6-3.7s-1-1.8-1.7-2.4c-0.7-0.6-1.5-1.1-2.3-1.3c-0.9-0.3-1.7-0.4-2.5-0.4
		s-1.7,0.1-2.5,0.4c-0.9,0.3-1.6,0.7-2.3,1.3c-0.7,0.6-1.3,1.4-1.7,2.4c-0.4,1-0.7,2.2-0.7,3.7v26.1h-10.8v-43.2h10.5v4
		c1.4-1.5,3.1-2.6,5-3.4c1.9-0.7,3.8-1.1,5.8-1.1c2.2,0,4.1,0.3,5.8,1c1.7,0.7,3.2,1.6,4.4,2.8c1.8,1.8,2.9,3.7,3.5,5.7
		c0.6,2,0.9,4.2,0.9,6.6v27.6H747.9z"/>
</g>
</svg>
