<?xml version="1.0" encoding="UTF-8" standalone="no"?>
<svg viewBox="0 0 46 46" version="1.1" xmlns="http://www.w3.org/2000/svg" xmlns:xlink="http://www.w3.org/1999/xlink">
    <!-- Generator: Sketch 39.1 (31720) - http://www.bohemiancoding.com/sketch -->
    <title>Icon</title>
    <desc>Created with Sketch.</desc>
    <defs></defs>
    <g id="Page-1" stroke="none" fill="none" fill-rule="evenodd" stroke-linecap="round" stroke-linejoin="round">
        <g id="Artboard-1" transform="translate(-885.000000, -1451.000000)">
            <g id="Icon" transform="translate(887.000000, 1453.000000)">
                <path d="M42,41 C42,41.552 41.552,42 41,42 L1,42 C0.448,42 0,41.552 0,41 L0,1 C0,0.448 0.448,0 1,0 L41,0 C41.552,0 42,0.448 42,1 L42,41 L42,41 Z" id="Stroke-366"></path>
                <path d="M1.9091,41.5 L13.1931,22.409" id="Stroke-368"></path>
                <path d="M24.8182,41.5 L13.5342,22.409" id="Stroke-370"></path>
                <path d="M26.7273,40.5455 L33.3093,31.0005" id="Stroke-372"></path>
                <path d="M40.0909,40.5455 L33.5089,31.0005" id="Stroke-374"></path>
                <path d="M34.3636,14.7727 C34.3636,17.9357 31.7996,20.4997 28.6366,20.4997 C25.4736,20.4997 22.9086,17.9357 22.9086,14.7727 C22.9086,11.6097 25.4736,9.0457 28.6366,9.0457 C31.7996,9.0457 34.3636,11.6097 34.3636,14.7727 L34.3636,14.7727 Z" id="Stroke-376"></path>
            </g>
        </g>
    </g>
</svg>
