<?xml version="1.0" encoding="UTF-8" standalone="no"?>
<svg viewBox="0 0 367 70" version="1.1" xmlns="http://www.w3.org/2000/svg" xmlns:xlink="http://www.w3.org/1999/xlink">
    <!-- Generator: Sketch 39.1 (31720) - http://www.bohemiancoding.com/sketch -->
    <title>service</title>
    <desc>Created with Sketch.</desc>
    <defs></defs>
    <g id="Page-1" stroke="none" stroke-width="1" fill="none" fill-rule="evenodd">
        <g id="service">
            <g id="Page-1">
                <g id="service">
                    <g id="Group">
                        <path d="M43.3100358,53.2642857 C43.3100358,55.8 42.7948029,58.3357143 41.7643369,60.3642857 C40.733871,62.3928571 39.188172,63.9142857 37.1272401,65.4357143 C35.0663082,66.9571429 33.0053763,67.9714286 30.4292115,68.4785714 C27.8530466,68.9857143 24.7616487,69.4928571 22.1854839,69.4928571 L16.5179211,69.4928571 C14.4569892,69.4928571 12.9112903,68.9857143 10.8503584,68.4785714 C8.78942652,67.9714286 7.2437276,67.4642857 5.69802867,66.45 C4.15232975,65.4357143 2.09139785,64.4214286 0.545698925,62.9 L8.78942652,54.7857143 C10.8503584,56.8142857 13.4265233,58.3357143 15.4874552,58.8428571 C18.0636201,59.35 20.124552,59.8571429 22.1854839,59.8571429 C23.2159498,59.8571429 24.2464158,59.8571429 25.2768817,59.35 C26.3073477,59.35 27.3378136,58.8428571 28.3682796,58.3357143 C29.3987455,57.8285714 29.9139785,57.3214286 30.4292115,56.8142857 C30.9444444,56.3071429 31.4596774,55.2928571 31.4596774,54.2785714 C31.4596774,52.7571429 30.9444444,51.7428571 30.4292115,51.2357143 C29.3987455,50.2214286 28.3682796,49.7142857 26.3073477,49.7142857 L18.0636201,48.7 C13.4265233,48.1928571 9.81989247,47.1785714 7.2437276,44.6428571 C4.66756272,42.6142857 3.1218638,39.0642857 3.1218638,34.5 C3.1218638,31.9642857 3.63709677,29.4285714 4.66756272,27.4 C5.69802867,25.3714286 7.2437276,23.85 8.78942652,22.3285714 C10.3351254,20.8071429 12.9112903,19.7928571 14.9722222,19.2857143 C17.5483871,18.7785714 19.609319,18.2714286 22.7007168,18.2714286 C26.8225806,18.2714286 30.4292115,18.7785714 33.5206093,19.2857143 C36.6120072,20.3 39.703405,21.8214286 42.2795699,23.85 L34.5510753,31.4571429 C33.0053763,29.9357143 31.4596774,29.4285714 29.3987455,28.9214286 C27.3378136,28.4142857 25.2768817,28.4142857 22.7007168,28.4142857 C20.124552,28.4142857 18.0636201,28.9214286 17.0331541,29.9357143 C16.0026882,30.95 15.4874552,31.9642857 15.4874552,33.4857143 L15.4874552,35.0071429 C15.4874552,35.5142857 16.0026882,36.0214286 16.5179211,36.5285714 C17.0331541,37.0357143 17.5483871,37.0357143 18.0636201,37.5428571 C18.578853,38.05 19.609319,38.05 20.6397849,38.05 L28.8835125,39.0642857 C34.0358423,39.5714286 37.6424731,41.0928571 40.218638,43.6285714 C42.2795699,45.6571429 43.3100358,48.7 43.3100358,53.2642857 L43.3100358,53.2642857 L43.3100358,53.2642857 Z" id="Shape"></path>
                        <path d="M72.6783154,47.6857143 C72.6783154,50.7285714 73.7087814,53.7714286 75.7697133,55.8 C77.8306452,57.8285714 80.40681,58.8428571 84.0134409,58.8428571 C86.5896057,58.8428571 89.1657706,58.3357143 90.7114695,57.8285714 C92.2571685,56.8142857 93.8028674,55.8 95.3485663,54.2785714 L103.077061,61.8857143 C101.531362,63.4071429 100.500896,64.4214286 98.9551971,65.4357143 C97.4094982,66.45 96.3790323,67.4642857 94.8333333,67.9714286 C93.2876344,68.4785714 91.7419355,68.9857143 89.6810036,69.4928571 C87.6200717,70 85.5591398,70 83.4982079,70 C80.40681,70 77.8306452,69.4928571 74.7392473,68.9857143 C71.6478495,67.9714286 69.5869176,66.9571429 67.0107527,64.9285714 C64.9498208,62.9 62.8888889,60.3642857 61.8584229,56.8142857 C60.312724,53.2642857 59.797491,49.2071429 59.797491,44.1357143 C59.797491,40.0785714 60.312724,36.5285714 61.34319,32.9785714 C62.3736559,29.9357143 63.9193548,26.8928571 65.9802867,24.8642857 C68.0412186,22.8357143 70.1021505,20.8071429 73.1935484,19.7928571 C75.7697133,18.7785714 78.8611111,18.2714286 82.4677419,18.2714286 C86.0743728,18.2714286 89.1657706,18.7785714 91.7419355,20.3 C94.3181004,21.3142857 96.8942652,23.3428571 98.9551971,25.3714286 C101.016129,27.4 102.046595,29.9357143 103.077061,32.9785714 C104.107527,36.0214286 104.62276,39.0642857 104.62276,42.6142857 L104.62276,48.1928571 L72.6783154,48.1928571 L72.6783154,47.6857143 L72.6783154,47.6857143 Z M91.7419355,39.0642857 C91.7419355,38.05 91.7419355,37.0357143 91.2267025,36.0214286 C91.2267025,35.0071429 90.7114695,34.5 90.1962366,33.4857143 C89.6810036,31.9642857 88.6505376,30.95 87.1048387,29.9357143 C85.5591398,28.9214286 84.0134409,28.4142857 81.952509,28.4142857 C79.8915771,28.4142857 77.8306452,28.9214286 76.8001792,29.9357143 C75.2544803,30.95 74.2240143,31.9642857 73.7087814,33.4857143 C73.1935484,34.5 73.1935484,35.0071429 72.6783154,36.0214286 C72.6783154,37.0357143 72.1630824,37.5428571 72.1630824,39.0642857 L91.7419355,39.0642857 L91.7419355,39.0642857 L91.7419355,39.0642857 Z" id="Shape"></path>
                        <path d="M150.993728,32.4714286 C149.963262,31.4571429 148.932796,30.95 147.90233,30.4428571 C147.387097,29.4285714 145.841398,29.4285714 144.295699,29.4285714 C143.265233,29.4285714 142.234767,29.4285714 141.204301,29.9357143 C140.173835,30.4428571 139.143369,30.95 138.628136,31.4571429 C137.59767,32.4714286 137.082437,32.9785714 136.567204,34.5 C136.051971,36.0214286 136.051971,37.0357143 136.051971,38.5571429 L136.051971,68.9857143 L123.171147,68.9857143 L123.171147,18.7785714 L135.536738,18.7785714 L135.536738,23.3428571 C136.567204,21.8214286 138.628136,20.8071429 140.689068,19.2857143 C142.75,18.2714286 145.326165,17.7642857 148.417563,17.7642857 C150.993728,17.7642857 153.054659,18.2714286 155.115591,18.7785714 C157.176523,19.2857143 158.722222,20.8071429 160.783154,22.3285714 L150.993728,32.4714286 L150.993728,32.4714286 L150.993728,32.4714286 Z" id="Shape"></path>
                        <polygon id="Shape" points="202.001792 68.9857143 192.212366 68.9857143 173.663978 18.7785714 187.060036 18.7785714 197.364695 49.7142857 207.669355 18.7785714 221.065412 18.7785714"></polygon>
                        <path d="M237.037634,10.1571429 L237.037634,0.0142857143 L249.918459,0.0142857143 L249.918459,10.1571429 L237.037634,10.1571429 L237.037634,10.1571429 L237.037634,10.1571429 Z M237.037634,68.9857143 L237.037634,18.7785714 L249.918459,18.7785714 L249.918459,68.9857143 L237.037634,68.9857143 L237.037634,68.9857143 L237.037634,68.9857143 Z" id="Shape"></path>
                        <path d="M300.926523,67.9714286 C298.350358,68.9857143 295.258961,69.4928571 291.65233,69.4928571 C289.076165,69.4928571 286.5,68.9857143 283.923835,68.4785714 C281.34767,67.4642857 278.771505,66.45 276.710573,64.4214286 C274.649642,62.3928571 272.58871,59.8571429 271.043011,56.3071429 C269.497312,52.7571429 268.982079,48.7 268.982079,43.6285714 C268.982079,38.5571429 269.497312,34.5 271.043011,30.95 C272.58871,27.4 274.134409,24.8642857 276.710573,23.3428571 C278.771505,21.3142857 281.34767,20.3 283.923835,19.2857143 C286.5,18.2714286 289.076165,18.2714286 291.65233,18.2714286 C295.258961,18.2714286 298.350358,18.7785714 300.926523,19.7928571 C303.502688,20.8071429 306.078853,22.8357143 308.655018,24.8642857 L299.896057,33.4857143 C298.350358,31.9642857 297.319892,30.95 296.289427,30.4428571 C295.258961,29.9357143 293.713262,29.4285714 291.65233,29.4285714 C288.560932,29.4285714 285.984767,30.4428571 284.439068,32.4714286 C283.408602,33.4857143 282.893369,35.0071429 282.378136,37.0357143 C281.862903,38.5571429 281.862903,41.0928571 281.862903,43.6285714 C281.862903,48.7 282.893369,52.25 284.954301,54.7857143 C287.015233,56.8142857 289.076165,57.8285714 292.167563,57.8285714 C293.713262,57.8285714 295.258961,57.3214286 296.804659,56.8142857 C297.835125,56.3071429 299.380824,55.2928571 300.41129,53.7714286 L309.170251,62.3928571 C306.078853,64.9285714 303.502688,66.45 300.926523,67.9714286 L300.926523,67.9714286 L300.926523,67.9714286 Z" id="Shape"></path>
                        <path d="M334.9319,47.6857143 C334.9319,50.7285714 335.962366,53.7714286 338.023297,55.8 C340.084229,57.8285714 342.660394,58.8428571 346.267025,58.8428571 C348.84319,58.8428571 351.419355,58.3357143 352.965054,57.8285714 C354.510753,56.8142857 356.056452,55.8 357.602151,54.2785714 L365.330645,61.8857143 C363.784946,63.4071429 362.75448,64.4214286 361.208781,65.4357143 C359.663082,66.45 358.632616,67.4642857 357.086918,67.9714286 C355.541219,68.4785714 353.99552,68.9857143 351.934588,69.4928571 C349.873656,70 347.812724,70 345.751792,70 C342.660394,70 340.084229,69.4928571 336.992832,68.9857143 C333.901434,67.9714286 331.840502,66.9571429 329.264337,64.9285714 C327.203405,62.9 325.142473,60.3642857 324.112007,56.8142857 C322.566308,53.2642857 322.051075,49.2071429 322.051075,44.1357143 C322.051075,40.0785714 322.566308,36.5285714 323.596774,32.9785714 C324.62724,29.9357143 326.172939,26.8928571 328.233871,24.8642857 C330.294803,22.8357143 332.355735,20.8071429 335.447133,19.7928571 C338.023297,18.7785714 341.114695,18.2714286 344.721326,18.2714286 C348.327957,18.2714286 351.419355,18.7785714 353.99552,20.3 C356.571685,21.3142857 359.147849,23.3428571 361.208781,25.3714286 C363.269713,27.4 364.300179,29.9357143 365.330645,32.9785714 C366.361111,36.0214286 366.876344,39.0642857 366.876344,42.6142857 L366.876344,48.1928571 L334.9319,48.1928571 L334.9319,47.6857143 L334.9319,47.6857143 Z M354.510753,39.0642857 C354.510753,38.05 354.510753,37.0357143 353.99552,36.0214286 C353.99552,35.0071429 353.480287,34.5 352.965054,33.4857143 C352.449821,31.9642857 351.419355,30.95 349.873656,29.9357143 C348.327957,28.9214286 346.782258,28.4142857 344.721326,28.4142857 C342.660394,28.4142857 340.599462,28.9214286 339.568996,29.9357143 C338.023297,30.95 336.992832,31.9642857 336.477599,33.4857143 C335.962366,34.5 335.962366,35.0071429 335.447133,36.0214286 C335.447133,37.0357143 334.9319,37.5428571 334.9319,39.0642857 L354.510753,39.0642857 L354.510753,39.0642857 L354.510753,39.0642857 Z" id="Shape"></path>
                    </g>
                </g>
            </g>
        </g>
    </g>
</svg>
