<?xml version="1.0" encoding="utf-8"?>
<!-- Generator: Adobe Illustrator 20.0.0, SVG Export Plug-In . SVG Version: 6.00 Build 0)  -->
<svg version="1.1" id="レイヤー_1" xmlns="http://www.w3.org/2000/svg" xmlns:xlink="http://www.w3.org/1999/xlink" x="0px"
	 y="0px" viewBox="0 0 258 155.9" style="enable-background:new 0 0 258 155.9;" xml:space="preserve">
<style type="text/css">
	.st0{fill:#202020;}
</style>
<g>
	<path class="st0" d="M67.6,65.7c0,0.5-0.1,1-0.3,1.4c-0.2,0.4-0.5,0.7-0.9,1c-0.4,0.3-0.8,0.5-1.3,0.6c-0.5,0.1-1.1,0.2-1.6,0.2
		c-0.4,0-0.8,0-1.1,0c-0.4,0-0.7-0.1-1.1-0.2c-0.4-0.1-0.7-0.2-1-0.4c-0.3-0.2-0.7-0.4-1-0.7l1.6-1.6c0.4,0.4,0.9,0.7,1.3,0.8
		c0.5,0.1,0.9,0.2,1.3,0.2c0.2,0,0.4,0,0.6-0.1c0.2,0,0.4-0.1,0.6-0.2c0.2-0.1,0.3-0.2,0.4-0.3c0.1-0.1,0.2-0.3,0.2-0.5
		c0-0.3-0.1-0.5-0.2-0.6c-0.2-0.2-0.4-0.3-0.8-0.3l-1.6-0.2c-0.9-0.1-1.6-0.3-2.1-0.8c-0.5-0.4-0.8-1.1-0.8-2c0-0.5,0.1-1,0.3-1.4
		s0.5-0.7,0.8-1c0.3-0.3,0.8-0.5,1.2-0.6c0.5-0.1,0.9-0.2,1.5-0.2c0.8,0,1.5,0.1,2.1,0.2c0.6,0.2,1.2,0.5,1.7,0.9l-1.5,1.5
		c-0.3-0.3-0.6-0.4-1-0.5c-0.4-0.1-0.8-0.1-1.3-0.1c-0.5,0-0.9,0.1-1.1,0.3c-0.2,0.2-0.3,0.4-0.3,0.7c0,0.1,0,0.2,0,0.3
		c0,0.1,0.1,0.2,0.2,0.3c0.1,0.1,0.2,0.1,0.3,0.2c0.1,0.1,0.3,0.1,0.5,0.1l1.6,0.2c1,0.1,1.7,0.4,2.2,0.9
		C67.4,64.2,67.6,64.8,67.6,65.7z"/>
	<path class="st0" d="M73.3,64.6c0,0.6,0.2,1.2,0.6,1.6c0.4,0.4,0.9,0.6,1.6,0.6c0.5,0,1-0.1,1.3-0.2c0.3-0.2,0.6-0.4,0.9-0.7
		l1.5,1.5c-0.3,0.3-0.5,0.5-0.8,0.7c-0.3,0.2-0.5,0.4-0.8,0.5c-0.3,0.1-0.6,0.2-1,0.3c-0.4,0.1-0.8,0.1-1.2,0.1
		c-0.6,0-1.1-0.1-1.7-0.2c-0.6-0.2-1-0.4-1.5-0.8c-0.4-0.4-0.8-0.9-1-1.6c-0.3-0.7-0.4-1.5-0.4-2.5c0-0.8,0.1-1.5,0.3-2.2
		c0.2-0.6,0.5-1.2,0.9-1.6c0.4-0.4,0.8-0.8,1.4-1c0.5-0.2,1.1-0.3,1.8-0.3c0.7,0,1.3,0.1,1.8,0.4c0.5,0.2,1,0.6,1.4,1
		c0.4,0.4,0.6,0.9,0.8,1.5s0.3,1.2,0.3,1.9v1.1H73.3z M77,62.9c0-0.2,0-0.4-0.1-0.6c0-0.2-0.1-0.3-0.2-0.5c-0.1-0.3-0.3-0.5-0.6-0.7
		c-0.3-0.2-0.6-0.3-1-0.3s-0.8,0.1-1,0.3c-0.3,0.2-0.5,0.4-0.6,0.7c-0.1,0.2-0.1,0.3-0.2,0.5c0,0.2-0.1,0.3-0.1,0.6H77z"/>
	<path class="st0" d="M88.5,61.6c-0.2-0.2-0.4-0.3-0.6-0.4C87.8,61,87.5,61,87.2,61c-0.2,0-0.4,0-0.6,0.1c-0.2,0.1-0.4,0.2-0.5,0.3
		c-0.2,0.2-0.3,0.3-0.4,0.6s-0.1,0.5-0.1,0.8v6h-2.5v-9.9h2.4v0.9c0.2-0.3,0.6-0.5,1-0.8c0.4-0.2,0.9-0.3,1.5-0.3
		c0.5,0,0.9,0.1,1.3,0.2c0.4,0.1,0.7,0.4,1.1,0.7L88.5,61.6z"/>
	<path class="st0" d="M98.4,68.8h-1.9l-3.6-9.9h2.6l2,6.1l2-6.1h2.6L98.4,68.8z"/>
	<path class="st0" d="M105.2,57.2v-2h2.5v2H105.2z M105.2,68.8v-9.9h2.5v9.9H105.2z"/>
	<path class="st0" d="M117.6,68.6c-0.5,0.2-1.1,0.3-1.8,0.3c-0.5,0-1-0.1-1.5-0.2c-0.5-0.2-1-0.4-1.4-0.8c-0.4-0.4-0.8-0.9-1.1-1.6
		c-0.3-0.7-0.4-1.5-0.4-2.5c0-1,0.1-1.8,0.4-2.5c0.3-0.7,0.6-1.2,1.1-1.5c0.4-0.4,0.9-0.6,1.4-0.8c0.5-0.2,1-0.2,1.5-0.2
		c0.7,0,1.3,0.1,1.8,0.3c0.5,0.2,1,0.6,1.5,1l-1.7,1.7c-0.3-0.3-0.5-0.5-0.7-0.6c-0.2-0.1-0.5-0.2-0.9-0.2c-0.6,0-1.1,0.2-1.4,0.6
		c-0.2,0.2-0.3,0.5-0.4,0.9c-0.1,0.3-0.1,0.8-0.1,1.3c0,1,0.2,1.7,0.6,2.2c0.4,0.4,0.8,0.6,1.4,0.6c0.3,0,0.6-0.1,0.9-0.2
		c0.2-0.1,0.5-0.3,0.7-0.6l1.7,1.7C118.6,68,118.1,68.3,117.6,68.6z"/>
	<path class="st0" d="M124.2,64.6c0,0.6,0.2,1.2,0.6,1.6c0.4,0.4,0.9,0.6,1.6,0.6c0.5,0,1-0.1,1.3-0.2c0.3-0.2,0.6-0.4,0.9-0.7
		l1.5,1.5c-0.3,0.3-0.5,0.5-0.8,0.7c-0.3,0.2-0.5,0.4-0.8,0.5c-0.3,0.1-0.6,0.2-1,0.3c-0.4,0.1-0.8,0.1-1.2,0.1
		c-0.6,0-1.1-0.1-1.7-0.2c-0.6-0.2-1-0.4-1.5-0.8c-0.4-0.4-0.8-0.9-1-1.6c-0.3-0.7-0.4-1.5-0.4-2.5c0-0.8,0.1-1.5,0.3-2.2
		c0.2-0.6,0.5-1.2,0.9-1.6c0.4-0.4,0.8-0.8,1.4-1c0.5-0.2,1.1-0.3,1.8-0.3c0.7,0,1.3,0.1,1.8,0.4c0.5,0.2,1,0.6,1.4,1
		c0.4,0.4,0.6,0.9,0.8,1.5c0.2,0.6,0.3,1.2,0.3,1.9v1.1H124.2z M128,62.9c0-0.2,0-0.4-0.1-0.6c0-0.2-0.1-0.3-0.2-0.5
		c-0.1-0.3-0.3-0.5-0.6-0.7c-0.3-0.2-0.6-0.3-1-0.3s-0.8,0.1-1,0.3c-0.3,0.2-0.5,0.4-0.6,0.7c-0.1,0.2-0.1,0.3-0.2,0.5
		c0,0.2-0.1,0.3-0.1,0.6H128z"/>
</g>
</svg>
