<?xml version="1.0" encoding="utf-8"?>
<!-- Generator: Adobe Illustrator 20.0.0, SVG Export Plug-In . SVG Version: 6.00 Build 0)  -->
<svg version="1.1" id="レイヤー_1" xmlns="http://www.w3.org/2000/svg" xmlns:xlink="http://www.w3.org/1999/xlink" x="0px"
	 y="0px" viewBox="0 0 258 155.9" style="enable-background:new 0 0 258 155.9;" xml:space="preserve">
<style type="text/css">
	.st0{fill:#202020;}
</style>
<g>
	<path class="st0" d="M68,54h-3.7l-3.8-11.4L56.6,54h-3.7l-5.6-18.2h4.8L55,47l3.7-11.3H62L65.8,47l2.9-11.3h4.8L68,54z"/>
	<path class="st0" d="M94.8,44.8c0,1.7-0.1,3-0.4,4.1c-0.3,1.1-0.8,2.1-1.6,3c-0.6,0.6-1.3,1.1-2.2,1.6c-0.9,0.4-2.1,0.7-3.4,0.7
		c-1.4,0-2.5-0.2-3.4-0.7c-0.9-0.4-1.7-1-2.2-1.6c-0.8-0.9-1.4-1.8-1.6-3c-0.3-1.1-0.4-2.5-0.4-4.1s0.1-3,0.4-4.1
		c0.3-1.1,0.8-2.1,1.6-2.9c0.6-0.6,1.3-1.1,2.2-1.6s2.1-0.7,3.4-0.7c1.4,0,2.5,0.2,3.4,0.7c0.9,0.4,1.7,1,2.2,1.6
		c0.8,0.9,1.4,1.8,1.6,2.9C94.7,41.8,94.8,43.2,94.8,44.8z M90.2,44.8c0-1-0.1-1.8-0.2-2.6c-0.1-0.8-0.4-1.4-0.9-1.8
		c-0.5-0.5-1.2-0.8-2.1-0.8c-0.9,0-1.6,0.3-2.1,0.8c-0.5,0.5-0.8,1.1-0.9,1.8c-0.1,0.8-0.2,1.6-0.2,2.6c0,1,0.1,1.8,0.2,2.6
		s0.4,1.4,0.9,1.9c0.5,0.5,1.2,0.8,2.1,0.8c0.9,0,1.6-0.3,2.1-0.8c0.5-0.5,0.8-1.1,0.9-1.9C90.2,46.7,90.2,45.8,90.2,44.8z"/>
	<path class="st0" d="M112.9,40.7c-0.4-0.4-0.7-0.6-1-0.8c-0.4-0.2-0.8-0.3-1.4-0.3c-0.4,0-0.7,0.1-1,0.2c-0.4,0.1-0.7,0.3-0.9,0.6
		c-0.3,0.3-0.5,0.6-0.7,1c-0.2,0.4-0.3,0.9-0.3,1.5v11H103V35.7h4.4v1.8c0.4-0.5,1.1-1,1.9-1.4c0.8-0.4,1.7-0.6,2.7-0.6
		c0.9,0,1.7,0.1,2.3,0.4c0.7,0.3,1.3,0.7,2,1.3L112.9,40.7z"/>
	<path class="st0" d="M134.3,54l-4.5-7.6l-1.9,2.2V54h-4.5V29.1h4.5v14.1l6.1-7.5h5.5l-6.5,7.4l7,10.9H134.3z"/>
	<path class="st0" d="M161.2,48.2c0,1-0.2,1.9-0.6,2.6c-0.4,0.7-0.9,1.4-1.6,1.9c-0.7,0.5-1.5,0.9-2.5,1.1c-0.9,0.2-2,0.4-3,0.4
		c-0.7,0-1.4,0-2.1-0.1c-0.7-0.1-1.3-0.2-2-0.4c-0.7-0.2-1.3-0.4-1.9-0.8s-1.2-0.8-1.8-1.4l3-3c0.7,0.7,1.6,1.2,2.5,1.4
		c0.9,0.2,1.7,0.3,2.4,0.3c0.4,0,0.8,0,1.2-0.1c0.4-0.1,0.7-0.2,1-0.3c0.3-0.2,0.5-0.3,0.7-0.6s0.3-0.5,0.3-0.9
		c0-0.5-0.1-0.8-0.4-1.1c-0.3-0.3-0.8-0.5-1.5-0.5l-2.9-0.3c-1.7-0.2-3-0.6-3.9-1.4c-0.9-0.8-1.4-2-1.4-3.7c0-0.9,0.2-1.8,0.6-2.5
		c0.4-0.7,0.9-1.3,1.5-1.8c0.6-0.5,1.4-0.9,2.2-1.1c0.9-0.3,1.7-0.4,2.7-0.4c1.4,0,2.7,0.2,3.9,0.5c1.2,0.3,2.2,0.9,3.1,1.7
		l-2.8,2.8c-0.5-0.5-1.2-0.8-1.9-1c-0.7-0.2-1.5-0.3-2.3-0.3c-0.9,0-1.6,0.2-2,0.5c-0.4,0.3-0.6,0.8-0.6,1.2c0,0.2,0,0.3,0.1,0.5
		c0,0.2,0.1,0.3,0.3,0.5c0.1,0.1,0.3,0.3,0.6,0.4c0.2,0.1,0.6,0.2,1,0.2l2.9,0.3c1.8,0.2,3.2,0.7,4.1,1.7
		C160.8,45.5,161.2,46.7,161.2,48.2z"/>
</g>
</svg>
