<?xml version="1.0" encoding="UTF-8" standalone="no"?>
<svg viewBox="0 0 115 26" version="1.1" xmlns="http://www.w3.org/2000/svg" xmlns:xlink="http://www.w3.org/1999/xlink">
    <!-- Generator: Sketch 39.1 (31720) - http://www.bohemiancoding.com/sketch -->
    <title>Group</title>
    <desc>Created with Sketch.</desc>
    <defs></defs>
    <g id="Page-1" stroke="none" stroke-width="1" fill="none" fill-rule="evenodd">
        <g id="Group">
            <polygon id="Shape" points="21 25 17.3 25 13.5 13.6 9.6 25 5.9 25 0.3 6.8 5.1 6.8 8 18 11.7 6.7 15 6.7 18.8 18 21.7 6.7 26.5 6.7"></polygon>
            <path d="M47.8,15.8 C47.8,17.5 47.7,18.8 47.4,19.9 C47.1,21 46.6,22 45.8,22.9 C45.2,23.5 44.5,24 43.6,24.5 C42.7,24.9 41.5,25.2 40.2,25.2 C38.8,25.2 37.7,25 36.8,24.5 C35.9,24.1 35.1,23.5 34.6,22.9 C33.8,22 33.2,21.1 33,19.9 C32.7,18.8 32.6,17.4 32.6,15.8 C32.6,14.2 32.7,12.8 33,11.7 C33.3,10.6 33.8,9.6 34.6,8.8 C35.2,8.2 35.9,7.7 36.8,7.2 C37.7,6.7 38.9,6.5 40.2,6.5 C41.6,6.5 42.7,6.7 43.6,7.2 C44.5,7.6 45.3,8.2 45.8,8.8 C46.6,9.7 47.2,10.6 47.4,11.7 C47.7,12.8 47.8,14.2 47.8,15.8 L47.8,15.8 Z M43.2,15.8 C43.2,14.8 43.1,14 43,13.2 C42.9,12.4 42.6,11.8 42.1,11.4 C41.6,10.9 40.9,10.6 40,10.6 C39.1,10.6 38.4,10.9 37.9,11.4 C37.4,11.9 37.1,12.5 37,13.2 C36.9,14 36.8,14.8 36.8,15.8 C36.8,16.8 36.9,17.6 37,18.4 C37.1,19.2 37.4,19.8 37.9,20.3 C38.4,20.8 39.1,21.1 40,21.1 C40.9,21.1 41.6,20.8 42.1,20.3 C42.6,19.8 42.9,19.2 43,18.4 C43.2,17.7 43.2,16.8 43.2,15.8 L43.2,15.8 Z" id="Shape"></path>
            <path d="M65.9,11.7 C65.5,11.3 65.2,11.1 64.9,10.9 C64.5,10.7 64.1,10.6 63.5,10.6 C63.1,10.6 62.8,10.7 62.5,10.8 C62.1,10.9 61.8,11.1 61.6,11.4 C61.3,11.7 61.1,12 60.9,12.4 C60.7,12.8 60.6,13.3 60.6,13.9 L60.6,24.9 L56,24.9 L56,6.7 L60.4,6.7 L60.4,8.5 C60.8,8 61.5,7.5 62.3,7.1 C63.1,6.7 64,6.5 65,6.5 C65.9,6.5 66.7,6.6 67.3,6.9 C68,7.2 68.6,7.6 69.3,8.2 L65.9,11.7 L65.9,11.7 Z" id="Shape"></path>
            <polygon id="Shape" points="87.3 25 82.8 17.4 80.9 19.6 80.9 25 76.4 25 76.4 0.1 80.9 0.1 80.9 14.2 87 6.7 92.5 6.7 86 14.1 93 25"></polygon>
            <path d="M114.2,19.2 C114.2,20.2 114,21.1 113.6,21.8 C113.2,22.5 112.7,23.2 112,23.7 C111.3,24.2 110.5,24.6 109.5,24.8 C108.6,25 107.5,25.2 106.5,25.2 C105.8,25.2 105.1,25.2 104.4,25.1 C103.7,25 103.1,24.9 102.4,24.7 C101.7,24.5 101.1,24.3 100.5,23.9 C99.9,23.5 99.3,23.1 98.7,22.5 L101.7,19.5 C102.4,20.2 103.3,20.7 104.2,20.9 C105.1,21.1 105.9,21.2 106.6,21.2 C107,21.2 107.4,21.2 107.8,21.1 C108.2,21 108.5,20.9 108.8,20.8 C109.1,20.6 109.3,20.5 109.5,20.2 C109.7,19.9 109.8,19.7 109.8,19.3 C109.8,18.8 109.7,18.5 109.4,18.2 C109.1,17.9 108.6,17.7 107.9,17.7 L105,17.4 C103.3,17.2 102,16.8 101.1,16 C100.2,15.2 99.7,14 99.7,12.3 C99.7,11.4 99.9,10.5 100.3,9.8 C100.7,9.1 101.2,8.5 101.8,8 C102.4,7.5 103.2,7.1 104,6.9 C104.9,6.6 105.7,6.5 106.7,6.5 C108.1,6.5 109.4,6.7 110.6,7 C111.8,7.3 112.8,7.9 113.7,8.7 L110.9,11.5 C110.4,11 109.7,10.7 109,10.5 C108.3,10.3 107.5,10.2 106.7,10.2 C105.8,10.2 105.1,10.4 104.7,10.7 C104.3,11 104.1,11.5 104.1,11.9 C104.1,12.1 104.1,12.2 104.2,12.4 C104.2,12.6 104.3,12.7 104.5,12.9 C104.6,13 104.8,13.2 105.1,13.3 C105.3,13.4 105.7,13.5 106.1,13.5 L109,13.8 C110.8,14 112.2,14.5 113.1,15.5 C113.8,16.5 114.2,17.7 114.2,19.2 L114.2,19.2 Z" id="Shape"></path>
        </g>
    </g>
</svg>
