<svg xmlns="http://www.w3.org/2000/svg" xmlns:xlink="http://www.w3.org/1999/xlink" class="hide"><defs><path id="a" d="M0 149.748h425V.001H0z"/></defs><symbol id="arrow-left" viewBox="0 0 32 32"><path d="M18.299 6.826c-.669.653-7.203 7.514-7.203 7.514a1.756 1.756 0 0 0 0 2.522s6.534 6.861 7.203 7.512c.669.653 1.872.698 2.586 0 .712-.696.768-1.667-.002-2.52l-5.995-6.253 5.995-6.253c.77-.854.714-1.826.002-2.522-.715-.696-1.918-.653-2.586 0z"/></symbol><symbol id="arrow-right" viewBox="0 0 32 32"><path d="M13.701 6.826c.669.653 7.203 7.514 7.203 7.514a1.754 1.754 0 0 1 0 2.522s-6.534 6.861-7.203 7.512c-.669.653-1.87.698-2.586 0-.714-.696-.77-1.667 0-2.52l5.997-6.253-5.995-6.253c-.77-.854-.714-1.826 0-2.522s1.917-.653 2.584 0z"/></symbol><symbol id="arrow-up" viewBox="0 0 32 32"><path d="M24.773 17.899c-.651-.669-7.512-7.203-7.512-7.203a1.751 1.751 0 0 0-2.522 0s-6.861 6.534-7.514 7.203c-.651.669-.696 1.872 0 2.586.698.712 1.669.77 2.522 0L16 14.49l6.251 5.995c.854.77 1.827.712 2.522 0 .698-.715.654-1.918 0-2.586z"/></symbol><symbol id="chat-bubble" viewBox="0 0 32 32"><path d="M16.028 5.111c4.885 0 8.861 3.987 8.861 8.889s-3.976 8.889-8.835 8.889l-.106-.006a9.588 9.588 0 0 0-.293-.017l-.597-.025-6.515 1.953 1.118-4.413-.918-1.328a8.855 8.855 0 0 1-1.576-5.052c0-4.902 3.975-8.889 8.861-8.889zm0-3.555C9.17 1.556 3.611 7.128 3.611 14c0 2.629.818 5.063 2.207 7.072L3.556 30l11.95-3.582c.175.007.345.026.522.026 6.858 0 12.417-5.572 12.417-12.444S22.886 1.556 16.028 1.556z"/></symbol><symbol id="facebook" viewBox="0 0 32 32"><path d="M24 6.206h-4.57c-.541 0-1.144.71-1.144 1.662v3.299H24v4.704h-5.714v14.128h-5.395V15.873H8v-4.706h4.891V8.399c0-3.97 2.755-7.2 6.538-7.2H24v5.006z"/></symbol><symbol id="feedly" viewBox="0 0 32 32"><path d="M16.082 2.796c-.784 0-1.79.349-2.182.74L1.778 15.659C1.363 16.074 1 16.963 1 17.746s.395 1.738.778 2.123c.385.383 7.88 7.879 8.374 8.373.648.648 1.38.961 2.044.961l7.564-.004c.514 0 1.401-.309 2.043-.951l8.404-8.404c.441-.44.793-1.477.793-2.129s-.427-1.715-.792-2.082c-.366-.366-11.796-11.796-12.098-12.096-.3-.301-1.244-.741-2.028-.741zm.214 19.944l1.708 1.707s.132.16.132.318c0 .16-.127.312-.127.312l-1.219 1.219a.205.205 0 0 1-.121.059l-1.323.008-.064-.008-1.301-1.301a.424.424 0 0 1-.132-.312c0-.158.046-.242.13-.326l1.684-1.684c.058-.059.149-.125.334-.125s.299.133.299.133zm.035-7.013l1.707 1.708s.133.158.133.318c-.001.16-.128.311-.128.311l-4.742 4.744a.218.218 0 0 1-.121.059l-1.322.006-.064-.006s-1.268-1.266-1.301-1.301c-.055-.055-.132-.154-.132-.312s.045-.242.13-.328l5.207-5.207c.058-.058.148-.124.334-.124s.299.132.299.132zm-.034-6.978l1.707 1.707s.132.16.132.319-.127.312-.127.312l-8.215 8.214c-.055.054-.121.059-.121.059l-1.323.007-.064-.008-1.3-1.299a.428.428 0 0 1-.132-.312c0-.16.045-.244.13-.328.026-.027 8.621-8.623 8.68-8.68s.148-.123.334-.123c.184 0 .299.132.299.132z"/></symbol><symbol id="gplus" viewBox="0 0 32 32"><title>32</title><g fill-rule="evenodd"><path d="M2.025 16.333c.079-4.714 4.449-8.842 9.202-8.685 2.278-.105 4.419.878 6.163 2.259a32.703 32.703 0 0 1-2.34 2.403c-2.096-1.438-5.078-1.848-7.175-.188-3 2.058-3.137 6.916-.251 9.131 2.806 2.525 8.11 1.272 8.885-2.595-1.758-.026-3.52 0-5.278-.057-.004-1.04-.008-2.08-.004-3.12 2.938-.008 5.877-.013 8.82.01.175 2.446-.15 5.05-1.666 7.073-2.295 3.202-6.903 4.137-10.498 2.765-3.607-1.363-6.162-5.142-5.858-8.996M25.403 12.74h2.621c.005.87.009 1.744.018 2.613.876.01 1.758.01 2.634.018v2.6c-.876.008-1.753.013-2.634.021-.01.874-.013 1.744-.018 2.613H25.4c-.01-.87-.01-1.739-.018-2.608l-2.634-.026v-2.6c.877-.009 1.753-.013 2.634-.018.004-.873.013-1.743.022-2.612"/></g></symbol><symbol id="hatebu" viewBox="0 0 32 32"><path d="M24.682 3.266h5.926v16.585h-5.926V3.266zM31 25.234a3.356 3.356 0 1 1-6.712 0 3.356 3.356 0 0 1 6.712 0zM16.134 14.922c1.302-.634 4.319-1.554 4.113-5.441 0-3.881-3.388-6.206-6.549-6.206L1 3.276v25.299h12.985c.543 0 7.234 0 7.16-7.685-.13-5.067-3.454-5.629-5.011-5.968zM7.468 8.207h3.783c.614 0 2.3.511 2.3 2.505 0 1.539-1.277 2.504-1.891 2.504H7.468V8.207zm4.601 15.283H7.467v-5.571h3.783c.614 0 3.169.511 3.169 2.785s-1.837 2.786-2.35 2.786z"/></symbol><symbol id="humberger" viewBox="0 0 38 26"><title>humberger</title><g stroke="#43484D" stroke-width="4" fill-rule="evenodd" stroke-linecap="round"><path d="M2 2h34M2 13h34M2 24h34"/></g></symbol><symbol id="logo" viewBox="0 0 425 150"><title>Page 1</title><g fill-rule="evenodd"><path d="M0 42.9h26.09v10.657c5.946-4.973 11.272-8.437 16.064-10.392 4.791-1.952 9.762-2.93 14.732-2.93 10.294 0 19.08 3.64 26.267 10.836 6.035 6.129 9.053 15.189 9.053 27.177v68.835H66.47V101.52c0-12.435-.533-20.693-1.685-24.78-1.154-4.086-3.018-7.193-5.859-9.326-2.839-2.131-6.211-3.197-10.293-3.197-5.326 0-9.852 1.776-13.579 5.33-3.817 3.551-6.39 8.437-7.899 14.655-.799 3.286-1.154 10.302-1.154 21.138v41.744H0V42.9z"/><mask id="b"><use xlink:href="#a"/></mask><path d="M106.85 147.083h26.09V42.9h-26.09v104.183zM119.894.001c4.615 0 8.519 1.686 11.802 4.972 3.285 3.288 4.881 7.374 4.881 12.08 0 4.62-1.596 8.616-4.881 11.902-3.283 3.285-7.1 4.974-11.626 4.974-4.613 0-8.606-1.689-11.891-5.064-3.284-3.375-4.882-7.46-4.882-12.167 0-4.62 1.598-8.526 4.882-11.812 3.285-3.288 7.188-4.885 11.715-4.885zM156.724 42.9h26.09v10.657c5.946-4.973 11.271-8.437 16.063-10.392 4.792-1.952 9.763-2.93 14.733-2.93 10.293 0 19.08 3.64 26.267 10.836 6.035 6.129 9.053 15.189 9.053 27.177v68.835h-25.826V101.52c0-12.435-.53-20.693-1.685-24.78-1.154-4.086-3.017-7.193-5.858-9.326-2.84-2.131-6.212-3.197-10.294-3.197-5.325 0-9.851 1.776-13.579 5.33-3.814 3.551-6.39 8.437-7.896 14.655-.8 3.286-1.154 10.302-1.154 21.138v41.744h-26.093V42.9h.179zM315.755 64.305c-8.075 0-14.733 2.841-20.145 8.526-5.325 5.685-7.988 13.056-7.988 21.937 0 8.971 2.752 16.434 8.164 22.206 5.415 5.774 12.16 8.705 20.058 8.705 8.164 0 14.998-2.844 20.41-8.526 5.415-5.685 8.076-13.235 8.076-22.472 0-9.06-2.66-16.431-8.075-22.027-5.413-5.508-12.247-8.35-20.5-8.35zm27.423-21.406h26.09v104.186h-26.09V136.07c-5.06 4.885-10.206 8.35-15.353 10.48-5.15 2.132-10.65 3.197-16.686 3.197-13.4 0-25.026-5.24-34.875-15.631-9.852-10.392-14.733-23.448-14.733-38.903 0-16.076 4.705-29.222 14.2-39.524 9.496-10.302 21.033-15.455 34.611-15.455 6.212 0 12.068 1.155 17.57 3.554 5.504 2.397 10.561 5.861 15.177 10.657V42.9h.089zM409.913 119.727c4.172 0 7.72 1.421 10.649 4.352 2.93 2.933 4.439 6.395 4.439 10.57 0 4.175-1.509 7.726-4.44 10.66-2.928 2.93-6.476 4.44-10.648 4.44-4.171 0-7.72-1.51-10.648-4.44-2.93-2.934-4.44-6.485-4.44-10.66s1.51-7.637 4.44-10.57c3.015-2.842 6.566-4.352 10.648-4.352" mask="url(#b)"/></g></symbol><symbol id="new-window" viewBox="0 0 32 32"><path d="M30.222 1.556H12.444c-.982 0-1.778.796-1.778 1.778v5.333H1.777c-.982 0-1.778.796-1.778 1.778v17.778c0 .982.796 1.778 1.778 1.778h17.778c.982 0 1.778-.796 1.778-1.778V22.89h8.889c.982 0 1.778-.796 1.778-1.778V3.334c0-.982-.796-1.778-1.778-1.778zm-12.444 24a.89.89 0 0 1-.889.889H4.445a.889.889 0 0 1-.889-.889V13.112c0-.491.398-.889.889-.889h12.444c.491 0 .889.398.889.889v12.444zm10.666-7.112a.89.89 0 0 1-.889.889h-6.222v-8.889c0-.982-.796-1.778-1.778-1.778h-5.333V5.999c0-.491.398-.889.889-.889h12.444c.491 0 .889.398.889.889v12.444z"/></symbol><symbol id="pocket" viewBox="0 0 32 32"><path d="M30.307 3.529c-.437-.479-1.08-.813-1.742-.813H3.492c-.781 0-1.536.503-1.942 1.037A2.765 2.765 0 0 0 1 5.262v9.575c0 6.486 5.068 14.447 15.553 14.447 7.358 0 14.447-6.26 14.447-14.502V5.261c0-.672-.287-1.285-.693-1.732zm-5.316 9.857c-.21.212-7.688 7.354-7.688 7.354s-.496.463-1.286.463-1.376-.463-1.376-.463L7.09 13.386c-.17-.165-.705-1.64.406-2.521 1.111-.987 2.506-.351 2.751-.105s5.77 5.537 5.77 5.537l5.765-5.537c.28-.354 1.902-.899 2.837.176.969 1.092.581 2.239.372 2.45z"/></symbol><symbol id="quote" viewBox="0 0 20 32"><path d="M0 16v8h8v-8H4s0-4 4-4V8s-8 0-8 8zm20-4V8s-8 0-8 8v8h8v-8h-4s0-4 4-4z"/></symbol><symbol id="request" viewBox="0 0 13 25"><title>request</title><path d="M.5 25a.5.5 0 0 1-.354-.853L11.793 12.5.146.853A.5.5 0 1 1 .853.147l12 12a.497.497 0 0 1 0 .706l-12 12A.495.495 0 0 1 .5 25" fill-rule="evenodd"/></symbol><symbol id="rss" viewBox="0 0 32 32"><path d="M3.203 4.078v3.789c11.338 0 20.528 9.192 20.528 20.53h3.79c0-13.43-10.888-24.318-24.318-24.318zm0 7.58v3.79c7.152 0 12.95 5.797 12.95 12.949h3.787c0-9.243-7.493-16.739-16.738-16.739zm3.632 9.475a3.634 3.634 0 1 0 .003 7.267 3.634 3.634 0 0 0-.003-7.267z"/></symbol><symbol id="search" viewBox="0 0 32 32"><path d="M12.465 5.111c3.898 0 7.07 3.19 7.07 7.111a7.077 7.077 0 0 1-1.311 4.11l-.696.983-.977.699a6.981 6.981 0 0 1-4.086 1.319c-3.899 0-7.07-3.19-7.07-7.111s3.171-7.111 7.07-7.111zm0-3.555c-5.858 0-10.606 4.776-10.606 10.667S6.607 22.89 12.465 22.89a10.5 10.5 0 0 0 6.135-1.977l8.517 8.566a1.76 1.76 0 0 0 2.505 0 1.787 1.787 0 0 0 0-2.518l-8.517-8.566a10.647 10.647 0 0 0 1.965-6.171c0-5.891-4.748-10.667-10.605-10.667z"/></symbol><symbol id="twitter" viewBox="0 0 32 32"><path d="M30.72 6.469a12.078 12.078 0 0 1-3.47.952 6.049 6.049 0 0 0 2.656-3.341 12.114 12.114 0 0 1-3.834 1.466 6.033 6.033 0 0 0-4.41-1.907 6.04 6.04 0 0 0-5.883 7.414 17.141 17.141 0 0 1-12.448-6.31 6.036 6.036 0 0 0 1.867 8.064 6.016 6.016 0 0 1-2.736-.755v.075a6.047 6.047 0 0 0 4.845 5.923 6.044 6.044 0 0 1-2.728.104c.768 2.4 3 4.146 5.642 4.194a12.11 12.11 0 0 1-7.501 2.586c-.488 0-.968-.029-1.44-.085a17.087 17.087 0 0 0 9.259 2.714c11.109 0 17.184-9.203 17.184-17.186a15.6 15.6 0 0 0-.018-.781 12.272 12.272 0 0 0 3.014-3.126z"/></symbol></svg>