<svg xmlns="http://www.w3.org/2000/svg" xmlns:xlink="http://www.w3.org/1999/xlink" class="hide"><defs><path id="a" d="M0 78.083h195.651V0H0z"/></defs><symbol id="about" viewBox="0 0 177 37"><title>about</title><g fill-rule="evenodd"><path d="M1.3 19.1l-.9-1c2.4-2.3 4.3-3.8 5.7-4.5 1.4-.7 2.6-1.1 3.6-1.1.4 0 .7.1.9.3.2.2.3.4.3.6 0 .2 0 .5-.1.9l-1.3 5.6c1.9-2.1 4.3-4.1 7.1-5.9 1.5-.9 2.8-1.4 3.8-1.4.7 0 1.3.2 1.7.7.4.5.6 1.1.6 2 0 .6-.1 1.2-.2 1.9-.3 1.2-1.1 3.8-2.3 7.9-1.2 3.8-1.8 6.3-1.8 7.5 0 .4.1.7.2.9.1.2.3.3.5.3.5 0 1.4-.5 2.5-1.6l2.4-2.1.7 1c-1.7 1.9-3.5 3.4-5.3 4.5-1.2.7-2.1 1.1-2.9 1.1-.7 0-1.3-.3-1.6-.8-.4-.5-.6-1.3-.6-2.5 0-1.7 1-5.8 3.1-12.3.6-2.3.9-3.7.9-4.1 0-.6-.3-.9-1-.9s-1.7.4-2.9 1.2c-1.7 1.2-3.2 2.5-4.4 4.1-.7 1-1.4 2.6-1.9 4.8L5.9 36H1.7c.8-2.8 1.5-5.5 2-8l2.5-10.6c.1-.4.1-.7.1-.9 0-.5-.2-.8-.6-.8-.3 0-.7.2-1.3.6-1 .8-2.1 1.7-3.1 2.8zM36.3 19l-1.3-.9c1.9-2 3.5-3.5 5.1-4.4 1.5-.9 2.8-1.3 3.9-1.3.6 0 1 .1 1.4.4.3.3.5.6.5 1.1 0 .5-.6 2.8-1.8 6.8-2 6.6-2.9 10.6-2.9 11.9 0 .3.1.5.2.7.1.2.3.3.4.3.6 0 2.1-1.2 4.6-3.5l1.1 1.1c-2.5 2.4-4.4 3.9-5.6 4.6-1.2.7-2.1 1-2.9 1-.6 0-1.2-.2-1.5-.6-.3-.4-.6-1-.6-1.7 0-2.3 1.4-8 4.2-17 .1-.4.2-.8.2-1.1 0-.4-.2-.6-.5-.6-.4 0-.8.1-1.3.4-.6.3-1.6 1.2-3.2 2.8zM47.2.6c.6 0 1 .2 1.4.6.4.4.6.9.6 1.5 0 .8-.3 1.5-.8 2.2-.6.6-1.2.9-1.9.9-.6 0-1-.2-1.4-.6-.4-.4-.6-.9-.6-1.5 0-.8.3-1.5.8-2.1.5-.7 1.1-1 1.9-1zM58.5 19.1l-.9-1c2.4-2.3 4.3-3.8 5.7-4.5 1.4-.7 2.6-1.1 3.6-1.1.4 0 .7.1.9.3.2.2.3.4.3.6 0 .2 0 .5-.1.9l-1.3 5.6c1.9-2.1 4.3-4.1 7.1-5.9 1.5-.9 2.8-1.4 3.8-1.4.7 0 1.3.2 1.7.7.4.5.6 1.1.6 2 0 .6-.1 1.2-.2 1.9-.3 1.2-1.1 3.8-2.3 7.9-1.2 3.8-1.8 6.3-1.8 7.5 0 .4.1.7.2.9.1.2.3.3.5.3.5 0 1.4-.5 2.5-1.6l2.4-2.1.7 1c-1.7 1.9-3.5 3.4-5.3 4.5-1.2.7-2.1 1.1-2.9 1.1-.7 0-1.3-.3-1.6-.8-.4-.5-.6-1.3-.6-2.5 0-1.7 1-5.8 3.1-12.3.6-2.3.9-3.7.9-4.1 0-.6-.3-.9-1-.9s-1.7.4-2.9 1.2c-1.7 1.2-3.2 2.5-4.4 4.1-.7 1-1.4 2.6-1.9 4.8L63 36h-4.1c.8-2.8 1.5-5.5 2-8l2.5-10.6c.1-.4.1-.7.1-.9 0-.5-.2-.8-.6-.8-.3 0-.7.2-1.3.6-1.1.8-2.1 1.7-3.1 2.8zM112 12.1l1.8-.4-2.1 7c-.8 2.8-1.6 6-2.4 9.7-.4 2-.6 3.3-.6 3.8 0 .6.2.9.7.9.3 0 .8-.2 1.4-.6 1.2-.7 2.3-1.5 3.3-2.6l.9 1.1c-2.1 1.9-3.5 3.1-4.1 3.5-1.2.8-2.3 1.4-3.4 1.8-.7.3-1.4.4-2.1.4-.5 0-.8-.1-1.1-.3-.2-.2-.4-.5-.4-1 0-.3.1-.7.2-1.1l1.1-3.8c-1.6 1.9-3.5 3.6-5.7 4.9-1.4.9-2.6 1.3-3.7 1.3s-1.9-.4-2.5-1.1c-.8-1-1.2-2.4-1.2-4 0-2 .5-4.2 1.6-6.6 1-2.4 2.5-4.6 4.2-6.6 1.8-2 3.6-3.4 5.6-4.3 1.5-.7 3.4-1.1 5.8-1.1.6 0 1.2 0 1.8.1l.9-1zm-3.4 4.2c-1-.2-1.8-.3-2.5-.3-1.7 0-3.1.5-4.4 1.4-1.2.9-2.4 2.6-3.5 5s-1.6 4.8-1.6 7.1c0 1.3.2 2.2.6 2.7.4.6 1 .8 1.7.8 1.3 0 2.7-.7 4.1-2.1 1.5-1.4 2.5-3.4 3.2-6l2.4-8.6zM145.5 13.4V9.5h4.9v3.9h-4.9zm.1 22.6V16.7h4.8V36h-4.8zM176.8 29.9c0 1.1-.2 2-.6 2.8-.4.8-1 1.4-1.7 2-.7.6-1.6.9-2.6 1.2-1 .3-2.1.4-3.2.4-.8 0-1.5 0-2.2-.1-.7-.1-1.4-.2-2.1-.4-.7-.2-1.4-.5-2-.8-.6-.4-1.3-.8-1.9-1.4l3.1-3.1c.8.8 1.7 1.3 2.6 1.5.9.2 1.8.3 2.5.3.4 0 .8 0 1.2-.1.4-.1.8-.2 1.1-.4.3-.2.6-.4.8-.6.2-.2.3-.6.3-.9 0-.5-.1-.9-.4-1.2-.3-.3-.8-.5-1.6-.6l-3-.3c-1.8-.2-3.1-.7-4.1-1.5-1-.8-1.5-2.1-1.5-3.9 0-1 .2-1.9.6-2.6.4-.8.9-1.4 1.6-1.9.7-.5 1.5-.9 2.4-1.2.9-.3 1.8-.4 2.8-.4 1.5 0 2.9.2 4.1.5 1.2.3 2.3.9 3.3 1.8l-3 3c-.6-.5-1.2-.8-2-1-.8-.2-1.6-.3-2.4-.3-1 0-1.7.2-2.1.6-.4.4-.6.8-.6 1.3 0 .2 0 .4.1.5.1.1.1.4.3.5.1.1.4.3.6.4.3.1.6.2 1 .2l3 .3c1.9.2 3.4.8 4.3 1.8.8.7 1.3 2 1.3 3.6z"/></g></symbol><symbol id="arrow-left" viewBox="0 0 32 32"><path d="M18.299 6.826c-.669.653-7.203 7.514-7.203 7.514a1.756 1.756 0 0 0 0 2.522s6.534 6.861 7.203 7.512c.669.653 1.872.698 2.586 0 .712-.696.768-1.667-.002-2.52l-5.995-6.253 5.995-6.253c.77-.854.714-1.826.002-2.522-.715-.696-1.918-.653-2.586 0z"/></symbol><symbol id="arrow-right" viewBox="0 0 32 32"><path d="M13.701 6.826c.669.653 7.203 7.514 7.203 7.514a1.754 1.754 0 0 1 0 2.522s-6.534 6.861-7.203 7.512c-.669.653-1.87.698-2.586 0-.714-.696-.77-1.667 0-2.52l5.997-6.253-5.995-6.253c-.77-.854-.714-1.826 0-2.522s1.917-.653 2.584 0z"/></symbol><symbol id="arrow-up" viewBox="0 0 32 32"><path d="M24.773 17.899c-.651-.669-7.512-7.203-7.512-7.203a1.751 1.751 0 0 0-2.522 0s-6.861 6.534-7.514 7.203c-.651.669-.696 1.872 0 2.586.698.712 1.669.77 2.522 0L16 14.49l6.251 5.995c.854.77 1.827.712 2.522 0 .698-.715.654-1.918 0-2.586z"/></symbol><symbol id="chat-bubble" viewBox="0 0 32 32"><path d="M16.028 5.111c4.885 0 8.861 3.987 8.861 8.889s-3.976 8.889-8.835 8.889l-.106-.006a9.588 9.588 0 0 0-.293-.017l-.597-.025-6.515 1.953 1.118-4.413-.918-1.328a8.855 8.855 0 0 1-1.576-5.052c0-4.902 3.975-8.889 8.861-8.889zm0-3.555C9.17 1.556 3.611 7.128 3.611 14c0 2.629.818 5.063 2.207 7.072L3.556 30l11.95-3.582c.175.007.345.026.522.026 6.858 0 12.417-5.572 12.417-12.444S22.886 1.556 16.028 1.556z"/></symbol><symbol id="custmar" viewBox="0 0 44 46"><title>Icon</title><g fill-rule="evenodd"><path d="M27.997 22.722a6 6 0 1 1-12 0 6 6 0 0 1 12 0z"/><path d="M38.353 27.525c.548-1.67.855-3.45.855-5.302a16.96 16.96 0 0 0-.86-5.315l3.086-2.198a1 1 0 0 0 .234-1.395l-4.64-6.516a1.002 1.002 0 0 0-1.396-.234l-3.18 2.192A17.033 17.033 0 0 0 27 5.973V3c0-1-.24-1-.792-1h-8L17 3v2.973c-2 .623-3.782 1.624-5.408 2.906L8.263 6.515a.968.968 0 0 0-1.366.246l-4.573 6.555a1.003 1.003 0 0 0 .253 1.393l3.418 2.388a16.958 16.958 0 0 0-.789 5.126c0 1.884.32 3.69.886 5.385l-3.11 2.216a1 1 0 0 0-.235 1.395l4.642 6.516a1 1 0 0 0 1.394.234l3.033-2.235C13.39 36.934 15 37.878 17 38.473v3.838c0 .552.655 1.689 1.208 1.689h8c.552 0 .792-1.137.792-1.69v-3.837c2-.604 3.872-1.566 5.463-2.792l2.918 2.005a1.03 1.03 0 0 0 1.42-.246l4.597-6.556a.997.997 0 0 0-.24-1.392l-2.805-1.967z"/></g></symbol><symbol id="facebook" viewBox="0 0 32 32"><path d="M24 6.206h-4.57c-.541 0-1.144.71-1.144 1.662v3.299H24v4.704h-5.714v14.128h-5.395V15.873H8v-4.706h4.891V8.399c0-3.97 2.755-7.2 6.538-7.2H24v5.006z"/></symbol><symbol id="feedly" viewBox="0 0 32 32"><path d="M16.082 2.796c-.784 0-1.79.349-2.182.74L1.778 15.659C1.363 16.074 1 16.963 1 17.746s.395 1.738.778 2.123c.385.383 7.88 7.879 8.374 8.373.648.648 1.38.961 2.044.961l7.564-.004c.514 0 1.401-.309 2.043-.951l8.404-8.404c.441-.44.793-1.477.793-2.129s-.427-1.715-.792-2.082c-.366-.366-11.796-11.796-12.098-12.096-.3-.301-1.244-.741-2.028-.741zm.214 19.944l1.708 1.707s.132.16.132.318c0 .16-.127.312-.127.312l-1.219 1.219a.205.205 0 0 1-.121.059l-1.323.008-.064-.008-1.301-1.301a.424.424 0 0 1-.132-.312c0-.158.046-.242.13-.326l1.684-1.684c.058-.059.149-.125.334-.125s.299.133.299.133zm.035-7.013l1.707 1.708s.133.158.133.318c-.001.16-.128.311-.128.311l-4.742 4.744a.218.218 0 0 1-.121.059l-1.322.006-.064-.006s-1.268-1.266-1.301-1.301c-.055-.055-.132-.154-.132-.312s.045-.242.13-.328l5.207-5.207c.058-.058.148-.124.334-.124s.299.132.299.132zm-.034-6.978l1.707 1.707s.132.16.132.319-.127.312-.127.312l-8.215 8.214c-.055.054-.121.059-.121.059l-1.323.007-.064-.008-1.3-1.299a.428.428 0 0 1-.132-.312c0-.16.045-.244.13-.328.026-.027 8.621-8.623 8.68-8.68s.148-.123.334-.123c.184 0 .299.132.299.132z"/></symbol><symbol id="gplus" viewBox="0 0 32 32"><title>32</title><g fill-rule="evenodd"><path d="M2.025 16.333c.079-4.714 4.449-8.842 9.202-8.685 2.278-.105 4.419.878 6.163 2.259a32.703 32.703 0 0 1-2.34 2.403c-2.096-1.438-5.078-1.848-7.175-.188-3 2.058-3.137 6.916-.251 9.131 2.806 2.525 8.11 1.272 8.885-2.595-1.758-.026-3.52 0-5.278-.057-.004-1.04-.008-2.08-.004-3.12 2.938-.008 5.877-.013 8.82.01.175 2.446-.15 5.05-1.666 7.073-2.295 3.202-6.903 4.137-10.498 2.765-3.607-1.363-6.162-5.142-5.858-8.996M25.403 12.74h2.621c.005.87.009 1.744.018 2.613.876.01 1.758.01 2.634.018v2.6c-.876.008-1.753.013-2.634.021-.01.874-.013 1.744-.018 2.613H25.4c-.01-.87-.01-1.739-.018-2.608l-2.634-.026v-2.6c.877-.009 1.753-.013 2.634-.018.004-.873.013-1.743.022-2.612"/></g></symbol><symbol id="hatebu" viewBox="0 0 32 32"><path d="M24.682 3.266h5.926v16.585h-5.926V3.266zM31 25.234a3.356 3.356 0 1 1-6.712 0 3.356 3.356 0 0 1 6.712 0zM16.134 14.922c1.302-.634 4.319-1.554 4.113-5.441 0-3.881-3.388-6.206-6.549-6.206L1 3.276v25.299h12.985c.543 0 7.234 0 7.16-7.685-.13-5.067-3.454-5.629-5.011-5.968zM7.468 8.207h3.783c.614 0 2.3.511 2.3 2.505 0 1.539-1.277 2.504-1.891 2.504H7.468V8.207zm4.601 15.283H7.467v-5.571h3.783c.614 0 3.169.511 3.169 2.785s-1.837 2.786-2.35 2.786z"/></symbol><symbol id="hearing" viewBox="0 0 47 47"><title>Icon</title><g fill-rule="evenodd" stroke-linecap="round" stroke-linejoin="round"><path d="M36 29v16H2V11h14"/><path d="M25.215 30.25l19.6-19.675-8.464-8.431-19.6 19.675-1.566 10.038zM31.285 7.973l7.778 7.778"/></g></symbol><symbol id="humberger" viewBox="0 0 38 26"><title>humberger</title><g stroke="#43484D" stroke-width="4" fill-rule="evenodd" stroke-linecap="round"><path d="M2 2h34M2 13h34M2 24h34"/></g></symbol><symbol id="logo" viewBox="0 0 196 79"><title>Page 1</title><g fill-rule="evenodd"><path d="M0 22.366h13.546v5.568c3.072-2.607 5.855-4.417 8.35-5.437 2.492-1.02 5.046-1.529 7.654-1.529 5.35 0 9.893 1.883 13.624 5.64 3.14 3.198 4.708 7.924 4.708 14.179v35.897H34.486V52.898c0-6.481-.29-10.789-.867-12.915-.577-2.13-1.584-3.747-3.021-4.863-1.434-1.113-3.21-1.67-5.319-1.67-2.741 0-5.09.92-7.056 2.769-1.963 1.844-3.325 4.396-4.083 7.652-.396 1.697-.594 5.369-.594 11.023v21.79H0V22.366z"/><mask id="b"><use xlink:href="#a"/></mask><path d="M59.492 76.685h13.546V22.367H59.492v54.318zM66.265 0c2.376 0 4.41.866 6.11 2.597 1.7 1.73 2.55 3.826 2.55 6.289 0 2.432-.842 4.503-2.525 6.217-1.68 1.714-3.694 2.569-6.036 2.569-2.407 0-4.462-.872-6.158-2.62-1.7-1.746-2.55-3.868-2.55-6.365 0-2.398.843-4.445 2.522-6.142C61.861.848 63.893 0 66.265 0zM85.345 22.366H98.89v5.568c3.072-2.607 5.854-4.417 8.35-5.437 2.492-1.02 5.045-1.529 7.654-1.529 5.349 0 9.893 1.883 13.624 5.64 3.14 3.198 4.708 7.924 4.708 14.179v35.897H119.83V52.898c0-6.481-.29-10.789-.867-12.915-.577-2.13-1.584-3.747-3.021-4.863-1.434-1.113-3.21-1.67-5.319-1.67-2.741 0-5.093.92-7.056 2.769-1.963 1.844-3.325 4.396-4.083 7.652-.396 1.697-.594 5.369-.594 11.023v21.79H85.345V22.366zM167.865 33.55c-4.185 0-7.664 1.49-10.432 4.468-2.772 2.978-4.155 6.797-4.155 11.458 0 4.692 1.407 8.553 4.227 11.582 2.82 3.03 6.288 4.545 10.412 4.545 4.253 0 7.78-1.491 10.579-4.469 2.803-2.978 4.206-6.883 4.206-11.71 0-4.725-1.403-8.552-4.206-11.482-2.8-2.926-6.343-4.393-10.63-4.393zm14.243-11.184h13.546v54.32h-13.546v-5.742c-2.646 2.528-5.298 4.352-7.954 5.468-2.663 1.113-5.544 1.67-8.65 1.67-6.972 0-13.004-2.721-18.09-8.162-5.09-5.44-7.634-12.207-7.634-20.296 0-8.388 2.461-15.257 7.384-20.619 4.923-5.358 10.904-8.037 17.943-8.037 3.24 0 6.278.618 9.118 1.848 2.84 1.233 5.47 3.077 7.883 5.54v-5.99z" mask="url(#b)"/></g></symbol><symbol id="main" viewBox="0 0 1035 204"><title>main</title><g fill-rule="evenodd"><path d="M41.5 1.5c11.1 0 20.7 4 28.7 12.1s12 17.9 12 29.5c0 11.5-4 21.2-11.9 29.2S52.8 84.2 41.5 84.2c-11.8 0-21.6-4.1-29.5-12.3C4.2 63.7.3 54 .3 42.8c0-7.5 1.8-14.4 5.5-20.8 3.6-6.3 8.6-11.3 15-15 6.5-3.6 13.4-5.5 20.7-5.5zm-.1 14.7c-7.3 0-13.4 2.5-18.4 7.6-5 5.1-7.4 11.5-7.4 19.3 0 8.7 3.1 15.6 9.4 20.7 4.9 4 10.4 5.9 16.7 5.9 7.1 0 13.2-2.6 18.2-7.7s7.5-11.5 7.5-19-2.5-13.8-7.6-19c-5.1-5.2-11.2-7.8-18.4-7.8zM93.6 24h12.5v7.3c1.4-2.9 3.2-5.1 5.4-6.6s4.7-2.2 7.4-2.2c1.9 0 3.9.5 5.9 1.5l-4.5 12.6c-1.7-.9-3.1-1.3-4.2-1.3-2.2 0-4.1 1.4-5.7 4.2-1.6 2.8-2.3 8.2-2.3 16.4l.1 2.8v23.5H93.7V24h-.1zM139.9 0c2.6 0 4.8.9 6.6 2.8 1.8 1.9 2.7 4.1 2.7 6.7 0 2.6-.9 4.8-2.7 6.7-1.8 1.8-4 2.8-6.5 2.8-2.6 0-4.8-.9-6.6-2.8-1.8-1.9-2.7-4.1-2.7-6.8 0-2.6.9-4.8 2.7-6.6 1.8-1.8 4-2.8 6.5-2.8zm-7.3 24h14.6v58.2h-14.6V24zM203.6 24h14.6v49.9c0 9.8-2 17.1-5.9 21.7-5.3 6.3-13.3 9.4-24 9.4-5.7 0-10.5-.7-14.4-2.1-3.9-1.4-7.2-3.5-9.8-6.3-2.7-2.8-4.7-6.1-5.9-10.1h16.1c1.4 1.6 3.3 2.9 5.5 3.7 2.2.8 4.9 1.3 8 1.3 3.9 0 7.1-.6 9.5-1.8 2.4-1.2 4.1-2.8 5.1-4.7 1-1.9 1.5-5.2 1.5-10-2.6 2.6-5.3 4.4-8.1 5.5-2.8 1.1-6 1.7-9.6 1.7-7.8 0-14.4-2.8-19.8-8.5-5.4-5.6-8.1-12.8-8.1-21.4 0-9.2 2.9-16.7 8.6-22.3 5.2-5.1 11.3-7.6 18.5-7.6 3.4 0 6.5.6 9.5 1.8 3 1.2 6 3.3 9 6.1V24h-.3zm-15.2 12.1c-4.6 0-8.4 1.5-11.4 4.6-3 3.1-4.5 7-4.5 11.6 0 4.9 1.5 8.8 4.6 11.9 3.1 3.1 6.9 4.7 11.6 4.7 4.5 0 8.3-1.5 11.2-4.5 2.9-3 4.4-7 4.4-11.9s-1.5-8.8-4.4-11.8c-3-3.1-6.8-4.6-11.5-4.6zM240.8 0c2.6 0 4.8.9 6.6 2.8 1.8 1.9 2.7 4.1 2.7 6.7 0 2.6-.9 4.8-2.7 6.7-1.8 1.8-4 2.8-6.5 2.8-2.6 0-4.8-.9-6.6-2.8-1.8-1.9-2.7-4.1-2.7-6.8 0-2.6.9-4.8 2.7-6.6 1.8-1.8 3.9-2.8 6.5-2.8zm-7.3 24h14.6v58.2h-14.6V24zM265.7 24h14.6v6c3.3-2.8 6.3-4.7 9-5.8 2.7-1.1 5.4-1.6 8.3-1.6 5.8 0 10.7 2 14.7 6 3.4 3.4 5.1 8.5 5.1 15.2v38.5H303V56.8c0-6.9-.3-11.6-.9-13.8-.6-2.3-1.7-4-3.3-5.2-1.5-1.2-3.5-1.8-5.7-1.8-3 0-5.5 1-7.6 3-2.1 2-3.6 4.7-4.4 8.2-.4 1.8-.6 5.8-.6 11.8v23.4h-14.6V24h-.2zM370.1 24h14.6v58.2h-14.6V76c-2.9 2.7-5.7 4.7-8.6 5.9-2.9 1.2-6 1.8-9.3 1.8-7.5 0-14-2.9-19.5-8.8-5.5-5.8-8.2-13.1-8.2-21.8 0-9 2.7-16.4 8-22.1 5.3-5.7 11.8-8.6 19.4-8.6 3.5 0 6.8.7 9.8 2 3.1 1.3 5.9 3.3 8.5 5.9V24h-.1zm-15.4 12c-4.5 0-8.3 1.6-11.3 4.8-3 3.2-4.5 7.3-4.5 12.3 0 5 1.5 9.2 4.6 12.4 3 3.2 6.8 4.9 11.2 4.9 4.6 0 8.4-1.6 11.4-4.8 3-3.2 4.5-7.4 4.5-12.5s-1.5-9.2-4.5-12.3c-2.9-3.3-6.7-4.8-11.4-4.8zM402.3 1.5h14.6v80.7h-14.6zM462.5 3.5h43v14.7h-28.1v14.2h28.1v14.4h-28.1v20.7h28.1v14.7h-43zM512.6 24h17l11.5 15.9L552.6 24h16.7l-19.8 27.4 22.4 30.8h-17l-13.8-19.1-13.8 19.1h-16.7l22.1-30.6zM591.5 24v6.4c2.6-2.6 5.5-4.6 8.6-5.9 3.1-1.3 6.4-2 9.8-2 7.6 0 14.1 2.9 19.4 8.6 5.3 5.7 8 13.1 8 22.1 0 8.7-2.7 15.9-8.2 21.8-5.5 5.8-12 8.8-19.5 8.8-3.4 0-6.5-.6-9.4-1.8-2.9-1.2-5.8-3.1-8.6-5.9v27.5H577V24h14.5zm15.4 12c-4.6 0-8.4 1.6-11.5 4.7-3 3.1-4.5 7.2-4.5 12.3 0 5.2 1.5 9.4 4.5 12.5 3 3.2 6.9 4.8 11.5 4.8 4.5 0 8.2-1.6 11.3-4.9 3.1-3.2 4.6-7.4 4.6-12.4s-1.5-9.1-4.5-12.3c-3.1-3.1-6.9-4.7-11.4-4.7zM703.3 57.3h-46.9c.7 4.1 2.5 7.4 5.4 9.9 2.9 2.4 6.7 3.7 11.3 3.7 5.5 0 10.1-1.9 14.1-5.7l12.3 5.8c-3.1 4.4-6.7 7.6-11 9.7-4.3 2.1-9.4 3.1-15.3 3.1-9.1 0-16.6-2.9-22.3-8.6-5.7-5.8-8.6-13-8.6-21.6 0-8.9 2.9-16.3 8.6-22.1 5.7-5.9 12.9-8.8 21.5-8.8 9.2 0 16.6 2.9 22.4 8.8 5.7 5.9 8.6 13.6 8.6 23.3l-.1 2.5zm-14.6-11.5c-1-3.2-2.9-5.9-5.7-7.9-2.8-2-6.1-3.1-9.9-3.1-4.1 0-7.6 1.1-10.7 3.4-1.9 1.4-3.7 3.9-5.4 7.5h31.7v.1zM713.9 24h12.5v7.3c1.4-2.9 3.2-5.1 5.4-6.6s4.7-2.2 7.4-2.2c1.9 0 3.9.5 5.9 1.5l-4.5 12.6c-1.7-.9-3.1-1.3-4.2-1.3-2.2 0-4.1 1.4-5.7 4.2-1.6 2.8-2.3 8.2-2.3 16.4l.1 2.8v23.5H714V24h-.1zM762.4 0c2.6 0 4.8.9 6.6 2.8 1.8 1.9 2.7 4.1 2.7 6.7 0 2.6-.9 4.8-2.7 6.7-1.8 1.8-4 2.8-6.5 2.8-2.6 0-4.8-.9-6.6-2.8-1.8-1.9-2.7-4.1-2.7-6.8 0-2.6.9-4.8 2.7-6.6 1.8-1.8 4-2.8 6.5-2.8zm-7.3 24h14.6v58.2h-14.6V24zM843.6 57.3h-46.9c.7 4.1 2.5 7.4 5.4 9.9 2.9 2.4 6.7 3.7 11.3 3.7 5.5 0 10.1-1.9 14.1-5.7l12.3 5.8c-3.1 4.4-6.7 7.6-11 9.7-4.3 2.1-9.4 3.1-15.3 3.1-9.1 0-16.6-2.9-22.3-8.6-5.7-5.8-8.6-13-8.6-21.6 0-8.9 2.9-16.3 8.6-22.1 5.7-5.9 12.9-8.8 21.5-8.8 9.2 0 16.6 2.9 22.4 8.8 5.7 5.9 8.6 13.6 8.6 23.3l-.1 2.5zm-14.7-11.5c-1-3.2-2.9-5.9-5.7-7.9-2.8-2-6.1-3.1-9.9-3.1-4.1 0-7.6 1.1-10.7 3.4-1.9 1.4-3.7 3.9-5.4 7.5h31.7v.1zM851 24h14.6v6c3.3-2.8 6.3-4.7 9-5.8 2.7-1.1 5.4-1.6 8.3-1.6 5.8 0 10.7 2 14.7 6 3.4 3.4 5.1 8.5 5.1 15.2v38.5h-14.4V56.8c0-6.9-.3-11.6-.9-13.8-.6-2.3-1.7-4-3.3-5.2-1.5-1.2-3.5-1.8-5.7-1.8-3 0-5.5 1-7.6 3-2.1 2-3.6 4.7-4.4 8.2-.4 1.8-.6 5.8-.6 11.8v23.4H851V24zM971.6 35.8l-12.2 6.7c-2.3-2.4-4.5-4-6.8-5-2.2-.9-4.8-1.4-7.8-1.4-5.5 0-9.9 1.6-13.3 4.9-3.4 3.3-5.1 7.4-5.1 12.5 0 5 1.6 9 4.9 12.1 3.2 3.1 7.5 4.7 12.8 4.7 6.5 0 11.6-2.2 15.3-6.7l11.5 7.9c-6.2 8.1-15.1 12.2-26.4 12.2-10.2 0-18.3-3-24.1-9.1-5.8-6.1-8.7-13.2-8.7-21.3 0-5.6 1.4-10.8 4.2-15.6 2.8-4.7 6.8-8.5 11.8-11.2 5-2.7 10.7-4.1 16.9-4.1 5.8 0 11 1.2 15.6 3.5s8.4 5.6 11.4 9.9zM1034.3 57.3h-46.9c.7 4.1 2.5 7.4 5.4 9.9 2.9 2.4 6.7 3.7 11.3 3.7 5.5 0 10.1-1.9 14.1-5.7l12.3 5.8c-3.1 4.4-6.7 7.6-11 9.7-4.3 2.1-9.4 3.1-15.3 3.1-9.1 0-16.6-2.9-22.3-8.6-5.7-5.8-8.6-13-8.6-21.6 0-8.9 2.9-16.3 8.6-22.1 5.7-5.9 12.9-8.8 21.5-8.8 9.2 0 16.6 2.9 22.4 8.8 5.7 5.9 8.6 13.6 8.6 23.3l-.1 2.5zm-14.6-11.5c-1-3.2-2.9-5.9-5.7-7.9-2.8-2-6.1-3.1-9.9-3.1-4.1 0-7.6 1.1-10.7 3.4-1.9 1.4-3.7 3.9-5.4 7.5h31.7v.1zM4.6 143.6h5.2c0-7.6.2-12.1.4-13.5.4-3.2 1.7-5.8 4-7.6 2.3-1.9 5.6-2.8 9.8-2.8 3 0 6.5.7 10.3 2.1v11.1c-2.1-.6-3.8-.9-5.2-.9-1.7 0-3 .4-3.7 1.1-.6.5-.9 1.6-.9 3.3l-.1 7.3h9.3v12.4h-9.3V202H9.8v-45.9H4.6v-12.5zM67.4 142.1c5.5 0 10.7 1.4 15.5 4.1 4.8 2.7 8.6 6.5 11.3 11.2 2.7 4.7 4.1 9.8 4.1 15.3s-1.4 10.6-4.1 15.4c-2.7 4.8-6.4 8.5-11.2 11.2-4.8 2.7-9.9 4-15.6 4-8.3 0-15.5-3-21.4-8.9-5.9-5.9-8.9-13.2-8.9-21.6 0-9.1 3.3-16.7 10-22.7 5.9-5.4 12.7-8 20.3-8zm.2 13.7c-4.5 0-8.3 1.6-11.3 4.7-3 3.2-4.5 7.2-4.5 12.1 0 5.1 1.5 9.2 4.5 12.3 3 3.1 6.8 4.7 11.3 4.7 4.6 0 8.4-1.6 11.4-4.8 3-3.2 4.6-7.3 4.6-12.3 0-5-1.5-9.1-4.5-12.2-3-2.9-6.9-4.5-11.5-4.5zM106.7 143.6h12.5v7.3c1.4-2.9 3.2-5.1 5.4-6.6s4.7-2.2 7.4-2.2c1.9 0 3.9.5 5.9 1.5l-4.5 12.6c-1.7-.9-3.1-1.3-4.2-1.3-2.2 0-4.1 1.4-5.7 4.2-1.6 2.8-2.3 8.2-2.3 16.4l.1 2.8v23.5h-14.5v-58.2h-.1zM212.3 143.6h14.6v58.2h-14.6v-6.2c-2.9 2.7-5.7 4.7-8.6 5.9-2.9 1.2-6 1.8-9.3 1.8-7.5 0-14-2.9-19.5-8.8-5.5-5.8-8.2-13.1-8.2-21.8 0-9 2.7-16.4 8-22.1 5.3-5.7 11.8-8.6 19.4-8.6 3.5 0 6.8.7 9.8 2 3.1 1.3 5.9 3.3 8.5 5.9v-6.3h-.1zm-15.4 11.9c-4.5 0-8.3 1.6-11.3 4.8-3 3.2-4.5 7.3-4.5 12.3 0 5 1.5 9.2 4.6 12.4 3 3.2 6.8 4.9 11.2 4.9 4.6 0 8.4-1.6 11.4-4.8 3-3.2 4.5-7.4 4.5-12.5s-1.5-9.2-4.5-12.3c-2.9-3.2-6.8-4.8-11.4-4.8zM237.9 121.1h14.6v80.7h-14.6zM268.5 121.1h14.6v80.7h-14.6zM328.1 123.1h15V174c0 4.4.4 7.5 1.2 9.3.8 1.8 2 3.3 3.8 4.4 1.8 1.1 3.9 1.6 6.4 1.6 2.6 0 4.9-.6 6.8-1.8 1.9-1.2 3.2-2.8 4-4.6.7-1.9 1.1-5.4 1.1-10.7v-49h15V170c0 7.9-.4 13.4-1.3 16.5-.9 3.1-2.6 6-5.1 8.9-2.5 2.9-5.4 5-8.7 6.3-3.3 1.4-7.1 2.1-11.5 2.1-5.7 0-10.7-1.3-14.9-3.9-4.2-2.6-7.3-5.9-9.1-9.8-1.8-3.9-2.7-10.6-2.7-20v-47zM428.5 151.7l-9 9c-3.7-3.6-7-5.5-10-5.5-1.6 0-2.9.3-3.9 1-.9.7-1.4 1.6-1.4 2.6 0 .8.3 1.5.9 2.2.6.7 2 1.6 4.4 2.7l5.4 2.7c5.6 2.8 9.5 5.6 11.6 8.5 2.1 2.9 3.2 6.3 3.2 10.2 0 5.2-1.9 9.5-5.7 13-3.8 3.5-8.9 5.2-15.3 5.2-8.5 0-15.3-3.3-20.3-10l9-9.8c1.7 2 3.7 3.6 6 4.8 2.3 1.2 4.3 1.8 6.1 1.8 1.9 0 3.5-.5 4.7-1.4 1.2-.9 1.8-2 1.8-3.2 0-2.2-2.1-4.4-6.4-6.6l-4.9-2.5c-9.4-4.7-14.1-10.7-14.1-17.8 0-4.6 1.8-8.5 5.3-11.8 3.5-3.3 8.1-4.9 13.6-4.9 3.8 0 7.3.8 10.7 2.5 3.1 1.8 6 4.2 8.3 7.3zM495 176.9h-46.9c.7 4.1 2.5 7.4 5.4 9.9 2.9 2.4 6.7 3.7 11.3 3.7 5.5 0 10.1-1.9 14.1-5.7l12.3 5.8c-3.1 4.4-6.7 7.6-11 9.7-4.3 2.1-9.4 3.1-15.3 3.1-9.1 0-16.6-2.9-22.3-8.6-5.7-5.8-8.6-13-8.6-21.6 0-8.9 2.9-16.3 8.6-22.1 5.7-5.9 12.9-8.8 21.5-8.8 9.2 0 16.6 2.9 22.4 8.8 5.7 5.9 8.6 13.6 8.6 23.3l-.1 2.5zm-14.6-11.5c-1-3.2-2.9-5.9-5.7-7.9-2.8-2-6.1-3.1-9.9-3.1-4.1 0-7.6 1.1-10.7 3.4-1.9 1.4-3.7 3.9-5.4 7.5h31.7v.1zM503.4 143.6h12.5v7.3c1.4-2.9 3.2-5.1 5.4-6.6s4.7-2.2 7.4-2.2c1.9 0 3.9.5 5.9 1.5l-4.5 12.6c-1.7-.9-3.1-1.3-4.2-1.3-2.2 0-4.1 1.4-5.7 4.2-1.6 2.8-2.3 8.2-2.3 16.4l.1 2.8v23.5h-14.5v-58.2h-.1z"/></g></symbol><symbol id="new-window" viewBox="0 0 32 32"><path d="M30.222 1.556H12.444c-.982 0-1.778.796-1.778 1.778v5.333H1.777c-.982 0-1.778.796-1.778 1.778v17.778c0 .982.796 1.778 1.778 1.778h17.778c.982 0 1.778-.796 1.778-1.778V22.89h8.889c.982 0 1.778-.796 1.778-1.778V3.334c0-.982-.796-1.778-1.778-1.778zm-12.444 24a.89.89 0 0 1-.889.889H4.445a.889.889 0 0 1-.889-.889V13.112c0-.491.398-.889.889-.889h12.444c.491 0 .889.398.889.889v12.444zm10.666-7.112a.89.89 0 0 1-.889.889h-6.222v-8.889c0-.982-.796-1.778-1.778-1.778h-5.333V5.999c0-.491.398-.889.889-.889h12.444c.491 0 .889.398.889.889v12.444z"/></symbol><symbol id="page" viewBox="0 0 46 46"><title>Icon</title><g fill-rule="evenodd" stroke-linecap="round" stroke-linejoin="round"><path d="M44 43a1 1 0 0 1-1 1H3a1 1 0 0 1-1-1V3a1 1 0 0 1 1-1h40a1 1 0 0 1 1 1v40zM3.91 43.5l11.283-19.091M26.818 43.5L15.534 24.409M28.727 42.545L35.31 33M42.09 42.545L35.51 33"/><path d="M36.364 16.773a5.727 5.727 0 1 1-11.454 0 5.727 5.727 0 0 1 11.454 0z"/></g></symbol><symbol id="pocket" viewBox="0 0 32 32"><path d="M30.307 3.529c-.437-.479-1.08-.813-1.742-.813H3.492c-.781 0-1.536.503-1.942 1.037A2.765 2.765 0 0 0 1 5.262v9.575c0 6.486 5.068 14.447 15.553 14.447 7.358 0 14.447-6.26 14.447-14.502V5.261c0-.672-.287-1.285-.693-1.732zm-5.316 9.857c-.21.212-7.688 7.354-7.688 7.354s-.496.463-1.286.463-1.376-.463-1.376-.463L7.09 13.386c-.17-.165-.705-1.64.406-2.521 1.111-.987 2.506-.351 2.751-.105s5.77 5.537 5.77 5.537l5.765-5.537c.28-.354 1.902-.899 2.837.176.969 1.092.581 2.239.372 2.45z"/></symbol><symbol id="quote" viewBox="0 0 20 32"><path d="M0 16v8h8v-8H4s0-4 4-4V8s-8 0-8 8zm20-4V8s-8 0-8 8v8h8v-8h-4s0-4 4-4z"/></symbol><symbol id="request" viewBox="0 0 13 25"><title>request</title><path d="M.5 25a.5.5 0 0 1-.354-.853L11.793 12.5.146.853A.5.5 0 1 1 .853.147l12 12a.497.497 0 0 1 0 .706l-12 12A.495.495 0 0 1 .5 25" fill-rule="evenodd"/></symbol><symbol id="rss" viewBox="0 0 32 32"><path d="M3.203 4.078v3.789c11.338 0 20.528 9.192 20.528 20.53h3.79c0-13.43-10.888-24.318-24.318-24.318zm0 7.58v3.79c7.152 0 12.95 5.797 12.95 12.949h3.787c0-9.243-7.493-16.739-16.738-16.739zm3.632 9.475a3.634 3.634 0 1 0 .003 7.267 3.634 3.634 0 0 0-.003-7.267z"/></symbol><symbol id="search" viewBox="0 0 32 32"><path d="M12.465 5.111c3.898 0 7.07 3.19 7.07 7.111a7.077 7.077 0 0 1-1.311 4.11l-.696.983-.977.699a6.981 6.981 0 0 1-4.086 1.319c-3.899 0-7.07-3.19-7.07-7.111s3.171-7.111 7.07-7.111zm0-3.555c-5.858 0-10.606 4.776-10.606 10.667S6.607 22.89 12.465 22.89a10.5 10.5 0 0 0 6.135-1.977l8.517 8.566a1.76 1.76 0 0 0 2.505 0 1.787 1.787 0 0 0 0-2.518l-8.517-8.566a10.647 10.647 0 0 0 1.965-6.171c0-5.891-4.748-10.667-10.605-10.667z"/></symbol><symbol id="service" viewBox="0 0 367 70"><title>service</title><g fill-rule="evenodd"><path d="M43.31 53.264c0 2.536-.515 5.072-1.546 7.1-1.03 2.029-2.576 3.55-4.637 5.072-2.06 1.521-4.122 2.535-6.698 3.043-2.576.507-5.667 1.014-8.244 1.014h-5.667c-2.061 0-3.607-.507-5.668-1.014-2.06-.508-3.606-1.015-5.152-2.029-1.546-1.014-3.607-2.029-5.152-3.55l8.243-8.114c2.061 2.028 4.638 3.55 6.698 4.057 2.577.507 4.638 1.014 6.698 1.014 1.03 0 2.061 0 3.092-.507 1.03 0 2.06-.507 3.091-1.014 1.03-.507 1.546-1.015 2.061-1.522.515-.507 1.03-1.521 1.03-2.535 0-1.522-.515-2.536-1.03-3.043-1.03-1.015-2.06-1.522-4.122-1.522L18.064 48.7c-4.637-.507-8.244-1.521-10.82-4.057-2.576-2.029-4.122-5.579-4.122-10.143 0-2.536.515-5.071 1.546-7.1 1.03-2.029 2.576-3.55 4.121-5.071 1.546-1.522 4.122-2.536 6.183-3.043 2.576-.507 4.637-1.015 7.729-1.015 4.122 0 7.728.508 10.82 1.015 3.091 1.014 6.182 2.535 8.759 4.564l-7.729 7.607c-1.546-1.521-3.091-2.028-5.152-2.536-2.061-.507-4.122-.507-6.698-.507-2.576 0-4.637.507-5.668 1.522-1.03 1.014-1.546 2.028-1.546 3.55v1.521c0 .507.516 1.014 1.03 1.522.516.507 1.031.507 1.547 1.014.515.507 1.545.507 2.576.507l8.244 1.014c5.152.507 8.758 2.029 11.335 4.565 2.06 2.028 3.091 5.071 3.091 9.635zM72.678 47.686c0 3.043 1.03 6.085 3.092 8.114 2.06 2.029 4.637 3.043 8.243 3.043 2.577 0 5.153-.507 6.698-1.014 1.546-1.015 3.092-2.029 4.638-3.55l7.728 7.607c-1.546 1.521-2.576 2.535-4.122 3.55-1.546 1.014-2.576 2.028-4.122 2.535-1.545.508-3.091 1.015-5.152 1.522-2.06.507-4.122.507-6.183.507-3.091 0-5.667-.507-8.759-1.014-3.091-1.015-5.152-2.029-7.728-4.057-2.061-2.029-4.122-4.565-5.153-8.115-1.545-3.55-2.06-7.607-2.06-12.678 0-4.057.515-7.607 1.545-11.157 1.03-3.043 2.576-6.086 4.637-8.115 2.061-2.028 4.122-4.057 7.214-5.071 2.576-1.014 5.667-1.522 9.274-1.522 3.606 0 6.698.508 9.274 2.029 2.576 1.014 5.152 3.043 7.213 5.071 2.061 2.029 3.092 4.565 4.122 7.608 1.03 3.042 1.546 6.085 1.546 9.635v5.579H72.678v-.507zm19.064-8.622c0-1.014 0-2.028-.515-3.043 0-1.014-.516-1.521-1.03-2.535-.516-1.522-1.546-2.536-3.092-3.55-1.546-1.015-3.092-1.522-5.152-1.522-2.061 0-4.122.507-5.153 1.522-1.546 1.014-2.576 2.028-3.091 3.55-.515 1.014-.515 1.521-1.03 2.535 0 1.015-.516 1.522-.516 3.043h19.579zM150.994 32.471c-1.03-1.014-2.061-1.521-3.092-2.028-.515-1.014-2.06-1.014-3.606-1.014-1.03 0-2.061 0-3.092.507-1.03.507-2.06 1.014-2.576 1.521-1.03 1.014-1.546 1.522-2.06 3.043-.516 1.521-.516 2.536-.516 4.057v30.429h-12.88V18.779h12.365v4.564c1.03-1.522 3.091-2.536 5.152-4.057 2.061-1.015 4.637-1.522 7.729-1.522 2.576 0 4.637.507 6.698 1.015 2.06.507 3.606 2.028 5.667 3.55l-9.79 10.142zM202.002 68.986h-9.79l-18.548-50.207h13.396l10.305 30.935 10.304-30.935h13.396zM237.038 10.157V.014h12.88v10.143h-12.88zm0 58.829V18.779h12.88v50.207h-12.88zM300.927 67.971c-2.577 1.015-5.668 1.522-9.275 1.522-2.576 0-5.152-.507-7.728-1.014-2.576-1.015-5.152-2.029-7.213-4.058-2.061-2.028-4.122-4.564-5.668-8.114-1.546-3.55-2.06-7.607-2.06-12.678 0-5.072.514-9.129 2.06-12.679 1.546-3.55 3.091-6.086 5.668-7.607 2.06-2.029 4.637-3.043 7.213-4.057 2.576-1.015 5.152-1.015 7.728-1.015 3.607 0 6.698.508 9.275 1.522 2.576 1.014 5.152 3.043 7.728 5.071l-8.759 8.622c-1.546-1.522-2.576-2.536-3.607-3.043-1.03-.507-2.576-1.014-4.637-1.014-3.091 0-5.667 1.014-7.213 3.042-1.03 1.015-1.546 2.536-2.06 4.565-.516 1.521-.516 4.057-.516 6.593 0 5.071 1.03 8.621 3.091 11.157 2.061 2.028 4.122 3.043 7.214 3.043 1.545 0 3.091-.508 4.637-1.015 1.03-.507 2.576-1.521 3.606-3.043l8.76 8.622c-3.092 2.536-5.668 4.057-8.244 5.578zM334.932 47.686c0 3.043 1.03 6.085 3.091 8.114 2.061 2.029 4.637 3.043 8.244 3.043 2.576 0 5.152-.507 6.698-1.014 1.546-1.015 3.091-2.029 4.637-3.55l7.729 7.607c-1.546 1.521-2.577 2.535-4.122 3.55-1.546 1.014-2.576 2.028-4.122 2.535-1.546.508-3.091 1.015-5.152 1.522-2.061.507-4.122.507-6.183.507-3.092 0-5.668-.507-8.76-1.014-3.09-1.015-5.151-2.029-7.728-4.057-2.06-2.029-4.122-4.565-5.152-8.115-1.546-3.55-2.06-7.607-2.06-12.678 0-4.057.514-7.607 1.545-11.157 1.03-3.043 2.576-6.086 4.637-8.115 2.06-2.028 4.122-4.057 7.213-5.071 2.576-1.014 5.668-1.522 9.274-1.522 3.607 0 6.698.508 9.275 2.029 2.576 1.014 5.152 3.043 7.213 5.071 2.06 2.029 3.091 4.565 4.122 7.608 1.03 3.042 1.545 6.085 1.545 9.635v5.579h-31.944v-.507zm19.579-8.622c0-1.014 0-2.028-.515-3.043 0-1.014-.516-1.521-1.03-2.535-.516-1.522-1.547-2.536-3.092-3.55-1.546-1.015-3.092-1.522-5.153-1.522-2.06 0-4.122.507-5.152 1.522-1.546 1.014-2.576 2.028-3.091 3.55-.516 1.014-.516 1.521-1.03 2.535 0 1.015-.516 1.522-.516 3.043h19.579z"/></g></symbol><symbol id="sp_maintxt" viewBox="0 0 299 76"><title>brand strategy and d</title><path d="M15.71 16.604c0 .696-.012 1.416-.036 2.16a15.677 15.677 0 0 1-.216 2.16 8.978 8.978 0 0 1-.576 1.98 5.042 5.042 0 0 1-1.08 1.62c-.528.528-1.194.942-1.998 1.242-.804.3-1.662.45-2.574.45-1.008 0-1.878-.15-2.61-.45-.732-.3-1.422-.81-2.07-1.53V26H.014V.368h4.68V8.9c.624-.696 1.296-1.182 2.016-1.458s1.56-.414 2.52-.414c.912 0 1.77.15 2.574.45.804.3 1.47.714 1.998 1.242.456.48.816 1.026 1.08 1.638a8.64 8.64 0 0 1 .576 1.962c.12.696.192 1.41.216 2.142.024.732.036 1.446.036 2.142zm-4.68 0c0-.768-.036-1.476-.108-2.124-.072-.648-.216-1.212-.432-1.692a2.6 2.6 0 0 0-.954-1.134c-.42-.276-.978-.414-1.674-.414s-1.254.138-1.674.414a2.6 2.6 0 0 0-.954 1.134c-.216.48-.36 1.044-.432 1.692a19.311 19.311 0 0 0-.108 2.124c0 .768.036 1.482.108 2.142.072.66.216 1.23.432 1.71a2.6 2.6 0 0 0 .954 1.134c.42.276.978.414 1.674.414s1.254-.138 1.674-.414a2.6 2.6 0 0 0 .954-1.134c.216-.48.36-1.05.432-1.71.072-.66.108-1.374.108-2.142zm19.032-4.248a4.64 4.64 0 0 0-1.08-.828c-.36-.192-.828-.288-1.404-.288-.36 0-.72.066-1.08.198a2.66 2.66 0 0 0-.972.63 3.3 3.3 0 0 0-.702 1.08c-.18.432-.27.948-.27 1.548V26h-4.68V7.244h4.572v1.8c.456-.552 1.104-1.026 1.944-1.422.84-.396 1.764-.594 2.772-.594.912 0 1.716.132 2.412.396s1.368.72 2.016 1.368l-3.528 3.564zM45.206 26v-1.62c-.624.624-1.278 1.08-1.962 1.368-.684.288-1.566.432-2.646.432-2.088 0-3.684-.552-4.788-1.656a5.336 5.336 0 0 1-1.152-1.872 6.746 6.746 0 0 1-.396-2.34c0-.744.132-1.446.396-2.106.264-.66.66-1.236 1.188-1.728.528-.492 1.194-.882 1.998-1.17.804-.288 1.746-.432 2.826-.432h4.428v-.936c0-1.032-.27-1.782-.81-2.25-.54-.468-1.434-.702-2.682-.702-.456 0-.852.03-1.188.09-.336.06-.642.15-.918.27-.276.12-.534.276-.774.468s-.48.432-.72.72L35.018 9.62c.912-1.008 1.878-1.692 2.898-2.052 1.02-.36 2.31-.54 3.87-.54 2.64 0 4.632.552 5.976 1.656 1.344 1.104 2.016 2.76 2.016 4.968V26h-4.572zm-.108-7.92H41.39c-.84 0-1.488.186-1.944.558-.456.372-.684.894-.684 1.566 0 .648.222 1.17.666 1.566.444.396 1.122.594 2.034.594.648 0 1.2-.048 1.656-.144.456-.096.888-.348 1.296-.756.456-.432.684-1.224.684-2.376V18.08zM65.426 26V14.66c0-.648-.09-1.188-.27-1.62-.18-.432-.42-.78-.72-1.044a2.825 2.825 0 0 0-1.008-.576 3.563 3.563 0 0 0-1.098-.18c-.36 0-.726.06-1.098.18-.372.12-.708.312-1.008.576-.3.264-.546.612-.738 1.044-.192.432-.288.972-.288 1.62V26h-4.68V7.244h4.572v1.728a6.091 6.091 0 0 1 2.16-1.458 6.77 6.77 0 0 1 2.52-.486c.936 0 1.776.144 2.52.432.744.288 1.38.696 1.908 1.224.768.768 1.278 1.59 1.53 2.466.252.876.378 1.83.378 2.862V26h-4.68zm19.788 0v-1.764c-.648.72-1.332 1.23-2.052 1.53-.72.3-1.584.45-2.592.45-.912 0-1.776-.15-2.592-.45-.816-.3-1.488-.714-2.016-1.242a4.564 4.564 0 0 1-1.098-1.62 9.65 9.65 0 0 1-.558-1.98 15.676 15.676 0 0 1-.216-2.16 65.394 65.394 0 0 1 0-4.302c.024-.732.096-1.446.216-2.142s.306-1.35.558-1.962a4.98 4.98 0 0 1 1.098-1.638c.528-.528 1.194-.942 1.998-1.242.804-.3 1.662-.45 2.574-.45.96 0 1.806.138 2.538.414.732.276 1.41.762 2.034 1.458V.368h4.68V26h-4.572zm-.108-9.396c0-.768-.036-1.476-.108-2.124-.072-.648-.222-1.212-.45-1.692a2.721 2.721 0 0 0-.972-1.134c-.42-.276-.978-.414-1.674-.414s-1.254.138-1.674.414a2.6 2.6 0 0 0-.954 1.134c-.216.48-.36 1.044-.432 1.692a19.311 19.311 0 0 0-.108 2.124c0 .768.036 1.482.108 2.142.072.66.216 1.23.432 1.71a2.6 2.6 0 0 0 .954 1.134c.42.276.978.414 1.674.414s1.254-.138 1.674-.414c.42-.276.744-.654.972-1.134.228-.48.378-1.05.45-1.71.072-.66.108-1.374.108-2.142zm31.8 3.492c0 1.032-.204 1.932-.612 2.7a5.382 5.382 0 0 1-1.692 1.908c-.72.504-1.566.882-2.538 1.134a12.37 12.37 0 0 1-3.114.378c-.744 0-1.464-.03-2.16-.09-.696-.06-1.38-.186-2.052-.378a9.13 9.13 0 0 1-1.944-.81c-.624-.348-1.236-.822-1.836-1.422l3.06-3.06c.768.768 1.614 1.254 2.538 1.458.924.204 1.746.306 2.466.306.408 0 .81-.036 1.206-.108a3.94 3.94 0 0 0 1.062-.342c.312-.156.564-.354.756-.594.192-.24.288-.54.288-.9 0-.48-.144-.87-.432-1.17-.288-.3-.804-.486-1.548-.558l-2.952-.288c-1.704-.168-3.042-.654-4.014-1.458-.972-.804-1.458-2.07-1.458-3.798 0-.96.198-1.812.594-2.556a5.688 5.688 0 0 1 1.584-1.872 7.16 7.16 0 0 1 2.304-1.152 9.493 9.493 0 0 1 2.754-.396c1.464 0 2.796.156 3.996.468a7.33 7.33 0 0 1 3.168 1.728l-2.88 2.916a4.543 4.543 0 0 0-1.98-.99c-.768-.18-1.56-.27-2.376-.27-.936 0-1.614.18-2.034.54-.42.36-.63.78-.63 1.26 0 .168.024.342.072.522.048.18.144.342.288.486.144.144.342.276.594.396.252.12.582.192.99.216l2.952.288c1.872.192 3.27.762 4.194 1.71.924.948 1.386 2.214 1.386 3.798zM126.038 26c-.96 0-1.782-.156-2.466-.468-.684-.312-1.248-.72-1.692-1.224a4.76 4.76 0 0 1-.972-1.71 6.385 6.385 0 0 1-.306-1.962v-9.288h-1.98V7.784h1.98V2.24h4.68v5.544h3.312v3.564h-3.312v9c0 1.128.54 1.692 1.62 1.692h1.692V26h-2.556zm16.692-13.644a4.64 4.64 0 0 0-1.08-.828c-.36-.192-.828-.288-1.404-.288-.36 0-.72.066-1.08.198a2.66 2.66 0 0 0-.972.63 3.3 3.3 0 0 0-.702 1.08c-.18.432-.27.948-.27 1.548V26h-4.68V7.244h4.572v1.8c.456-.552 1.104-1.026 1.944-1.422.84-.396 1.764-.594 2.772-.594.912 0 1.716.132 2.412.396s1.368.72 2.016 1.368l-3.528 3.564zM157.874 26v-1.62c-.624.624-1.278 1.08-1.962 1.368-.684.288-1.566.432-2.646.432-2.088 0-3.684-.552-4.788-1.656a5.336 5.336 0 0 1-1.152-1.872 6.746 6.746 0 0 1-.396-2.34c0-.744.132-1.446.396-2.106.264-.66.66-1.236 1.188-1.728.528-.492 1.194-.882 1.998-1.17.804-.288 1.746-.432 2.826-.432h4.428v-.936c0-1.032-.27-1.782-.81-2.25-.54-.468-1.434-.702-2.682-.702-.456 0-.852.03-1.188.09-.336.06-.642.15-.918.27-.276.12-.534.276-.774.468s-.48.432-.72.72l-2.988-2.916c.912-1.008 1.878-1.692 2.898-2.052 1.02-.36 2.31-.54 3.87-.54 2.64 0 4.632.552 5.976 1.656 1.344 1.104 2.016 2.76 2.016 4.968V26h-4.572zm-.108-7.92h-3.708c-.84 0-1.488.186-1.944.558-.456.372-.684.894-.684 1.566 0 .648.222 1.17.666 1.566.444.396 1.122.594 2.034.594.648 0 1.2-.048 1.656-.144.456-.096.888-.348 1.296-.756.456-.432.684-1.224.684-2.376V18.08zM173.054 26c-.96 0-1.782-.156-2.466-.468-.684-.312-1.248-.72-1.692-1.224a4.76 4.76 0 0 1-.972-1.71 6.385 6.385 0 0 1-.306-1.962v-9.288h-1.98V7.784h1.98V2.24h4.68v5.544h3.312v3.564h-3.312v9c0 1.128.54 1.692 1.62 1.692h1.692V26h-2.556zm10.068-7.92c0 1.224.354 2.226 1.062 3.006.708.78 1.722 1.17 3.042 1.17 1.032 0 1.848-.144 2.448-.432.6-.288 1.2-.732 1.8-1.332l2.844 2.772c-.48.48-.96.9-1.44 1.26s-1.002.666-1.566.918a8.59 8.59 0 0 1-1.854.576 11.82 11.82 0 0 1-2.268.198 12.06 12.06 0 0 1-3.222-.432 6.716 6.716 0 0 1-2.772-1.53c-.804-.732-1.452-1.716-1.944-2.952s-.738-2.802-.738-4.698c0-1.536.198-2.898.594-4.086.396-1.188.954-2.19 1.674-3.006a7.04 7.04 0 0 1 2.574-1.854c.996-.42 2.106-.63 3.33-.63 1.296 0 2.454.228 3.474.684a7.389 7.389 0 0 1 2.574 1.872c.696.792 1.224 1.734 1.584 2.826.36 1.092.54 2.286.54 3.582v2.088h-11.736zm7.128-3.204a7.833 7.833 0 0 0-.126-1.062c-.06-.3-.162-.618-.306-.954a3.61 3.61 0 0 0-1.17-1.386c-.516-.372-1.17-.558-1.962-.558s-1.446.186-1.962.558a3.61 3.61 0 0 0-1.17 1.386 4.853 4.853 0 0 0-.306.954c-.06.3-.102.654-.126 1.062h7.128zm23.352 10.44c0 1.128-.192 2.166-.576 3.114a7.09 7.09 0 0 1-1.656 2.466c-.72.696-1.59 1.236-2.61 1.62-1.02.384-2.154.576-3.402.576-1.44 0-2.688-.174-3.744-.522-1.056-.348-2.076-.99-3.06-1.926l2.916-2.952c.528.504 1.074.87 1.638 1.098.564.228 1.242.342 2.034.342.696 0 1.284-.114 1.764-.342.48-.228.87-.522 1.17-.882.3-.36.516-.774.648-1.242.132-.468.198-.942.198-1.422v-1.908c-.624.696-1.296 1.182-2.016 1.458s-1.536.414-2.448.414c-.912 0-1.752-.144-2.52-.432-.768-.288-1.416-.696-1.944-1.224a5.517 5.517 0 0 1-1.044-1.44 6.676 6.676 0 0 1-.576-1.71 14.052 14.052 0 0 1-.234-1.998 46.262 46.262 0 0 1-.054-2.304c0-.816.018-1.578.054-2.286.036-.708.114-1.368.234-1.98.12-.612.312-1.182.576-1.71a5.517 5.517 0 0 1 1.044-1.44c.528-.528 1.182-.936 1.962-1.224a7.272 7.272 0 0 1 2.538-.432c1.008 0 1.86.15 2.556.45.696.3 1.368.81 2.016 1.53V7.244h4.536v18.072zm-4.68-9.216c0-.624-.03-1.23-.09-1.818-.06-.588-.198-1.104-.414-1.548a2.716 2.716 0 0 0-.936-1.08c-.408-.276-.96-.414-1.656-.414s-1.248.138-1.656.414a2.584 2.584 0 0 0-.918 1.08c-.204.444-.336.96-.396 1.548-.06.588-.09 1.194-.09 1.818 0 .624.03 1.23.09 1.818.06.588.192 1.11.396 1.566.204.456.51.822.918 1.098.408.276.96.414 1.656.414s1.248-.138 1.656-.414c.408-.276.72-.642.936-1.098.216-.456.354-.978.414-1.566.06-.588.09-1.194.09-1.818zm16.62 12.924c-.408 1.08-.876 1.884-1.404 2.412-.552.552-1.17.93-1.854 1.134a7.583 7.583 0 0 1-2.178.306h-1.836v-4.212h1.08c.672 0 1.17-.108 1.494-.324.324-.216.606-.672.846-1.368l.792-2.304-6.408-17.424h4.932l3.888 11.592 3.744-11.592h4.932l-8.028 21.78zM253.706 26v-1.62c-.624.624-1.278 1.08-1.962 1.368-.684.288-1.566.432-2.646.432-2.088 0-3.684-.552-4.788-1.656a5.336 5.336 0 0 1-1.152-1.872 6.746 6.746 0 0 1-.396-2.34c0-.744.132-1.446.396-2.106.264-.66.66-1.236 1.188-1.728.528-.492 1.194-.882 1.998-1.17.804-.288 1.746-.432 2.826-.432h4.428v-.936c0-1.032-.27-1.782-.81-2.25-.54-.468-1.434-.702-2.682-.702-.456 0-.852.03-1.188.09-.336.06-.642.15-.918.27-.276.12-.534.276-.774.468s-.48.432-.72.72l-2.988-2.916c.912-1.008 1.878-1.692 2.898-2.052 1.02-.36 2.31-.54 3.87-.54 2.64 0 4.632.552 5.976 1.656 1.344 1.104 2.016 2.76 2.016 4.968V26h-4.572zm-.108-7.92h-3.708c-.84 0-1.488.186-1.944.558-.456.372-.684.894-.684 1.566 0 .648.222 1.17.666 1.566.444.396 1.122.594 2.034.594.648 0 1.2-.048 1.656-.144.456-.096.888-.348 1.296-.756.456-.432.684-1.224.684-2.376V18.08zM273.926 26V14.66c0-.648-.09-1.188-.27-1.62-.18-.432-.42-.78-.72-1.044a2.825 2.825 0 0 0-1.008-.576 3.563 3.563 0 0 0-1.098-.18c-.36 0-.726.06-1.098.18-.372.12-.708.312-1.008.576-.3.264-.546.612-.738 1.044-.192.432-.288.972-.288 1.62V26h-4.68V7.244h4.572v1.728a6.091 6.091 0 0 1 2.16-1.458 6.77 6.77 0 0 1 2.52-.486c.936 0 1.776.144 2.52.432.744.288 1.38.696 1.908 1.224.768.768 1.278 1.59 1.53 2.466.252.876.378 1.83.378 2.862V26h-4.68zm19.788 0v-1.764c-.648.72-1.332 1.23-2.052 1.53-.72.3-1.584.45-2.592.45-.912 0-1.776-.15-2.592-.45-.816-.3-1.488-.714-2.016-1.242a4.564 4.564 0 0 1-1.098-1.62 9.65 9.65 0 0 1-.558-1.98 15.676 15.676 0 0 1-.216-2.16 65.394 65.394 0 0 1 0-4.302c.024-.732.096-1.446.216-2.142s.306-1.35.558-1.962a4.98 4.98 0 0 1 1.098-1.638c.528-.528 1.194-.942 1.998-1.242.804-.3 1.662-.45 2.574-.45.96 0 1.806.138 2.538.414.732.276 1.41.762 2.034 1.458V.368h4.68V26h-4.572zm-.108-9.396c0-.768-.036-1.476-.108-2.124-.072-.648-.222-1.212-.45-1.692a2.721 2.721 0 0 0-.972-1.134c-.42-.276-.978-.414-1.674-.414s-1.254.138-1.674.414a2.6 2.6 0 0 0-.954 1.134c-.216.48-.36 1.044-.432 1.692a19.311 19.311 0 0 0-.108 2.124c0 .768.036 1.482.108 2.142.072.66.216 1.23.432 1.71a2.6 2.6 0 0 0 .954 1.134c.42.276.978.414 1.674.414s1.254-.138 1.674-.414c.42-.276.744-.654.972-1.134.228-.48.378-1.05.45-1.71.072-.66.108-1.374.108-2.142zM41.37 68v-1.764c-.648.72-1.332 1.23-2.052 1.53-.72.3-1.584.45-2.592.45-.912 0-1.776-.15-2.592-.45-.816-.3-1.488-.714-2.016-1.242a4.564 4.564 0 0 1-1.098-1.62 9.65 9.65 0 0 1-.558-1.98 15.677 15.677 0 0 1-.216-2.16 65.394 65.394 0 0 1 0-4.302c.024-.732.096-1.446.216-2.142s.306-1.35.558-1.962a4.98 4.98 0 0 1 1.098-1.638c.528-.528 1.194-.942 1.998-1.242.804-.3 1.662-.45 2.574-.45.96 0 1.806.138 2.538.414.732.276 1.41.762 2.034 1.458v-8.532h4.68V68H41.37zm-.108-9.396c0-.768-.036-1.476-.108-2.124-.072-.648-.222-1.212-.45-1.692a2.721 2.721 0 0 0-.972-1.134c-.42-.276-.978-.414-1.674-.414s-1.254.138-1.674.414a2.6 2.6 0 0 0-.954 1.134c-.216.48-.36 1.044-.432 1.692a19.311 19.311 0 0 0-.108 2.124c0 .768.036 1.482.108 2.142.072.66.216 1.23.432 1.71a2.6 2.6 0 0 0 .954 1.134c.42.276.978.414 1.674.414s1.254-.138 1.674-.414c.42-.276.744-.654.972-1.134.228-.48.378-1.05.45-1.71.072-.66.108-1.374.108-2.142zM50.898 68V49.244h4.68V68h-4.68zm-.072-21.96v-3.816h4.788v3.816h-4.788zm24.396 21.276c0 1.128-.192 2.166-.576 3.114a7.09 7.09 0 0 1-1.656 2.466c-.72.696-1.59 1.236-2.61 1.62-1.02.384-2.154.576-3.402.576-1.44 0-2.688-.174-3.744-.522-1.056-.348-2.076-.99-3.06-1.926l2.916-2.952c.528.504 1.074.87 1.638 1.098.564.228 1.242.342 2.034.342.696 0 1.284-.114 1.764-.342.48-.228.87-.522 1.17-.882.3-.36.516-.774.648-1.242.132-.468.198-.942.198-1.422v-1.908c-.624.696-1.296 1.182-2.016 1.458s-1.536.414-2.448.414c-.912 0-1.752-.144-2.52-.432-.768-.288-1.416-.696-1.944-1.224a5.517 5.517 0 0 1-1.044-1.44 6.676 6.676 0 0 1-.576-1.71 14.052 14.052 0 0 1-.234-1.998 46.261 46.261 0 0 1-.054-2.304c0-.816.018-1.578.054-2.286.036-.708.114-1.368.234-1.98.12-.612.312-1.182.576-1.71a5.517 5.517 0 0 1 1.044-1.44c.528-.528 1.182-.936 1.962-1.224a7.272 7.272 0 0 1 2.538-.432c1.008 0 1.86.15 2.556.45.696.3 1.368.81 2.016 1.53v-1.764h4.536v18.072zm-4.68-9.216c0-.624-.03-1.23-.09-1.818-.06-.588-.198-1.104-.414-1.548a2.716 2.716 0 0 0-.936-1.08c-.408-.276-.96-.414-1.656-.414s-1.248.138-1.656.414a2.584 2.584 0 0 0-.918 1.08c-.204.444-.336.96-.396 1.548-.06.588-.09 1.194-.09 1.818 0 .624.03 1.23.09 1.818.06.588.192 1.11.396 1.566.204.456.51.822.918 1.098.408.276.96.414 1.656.414s1.248-.138 1.656-.414c.408-.276.72-.642.936-1.098.216-.456.354-.978.414-1.566.06-.588.09-1.194.09-1.818zm9.636 9.9V49.244h4.68V68h-4.68zm-.072-21.96v-3.816h4.788v3.816h-4.788zM95.646 68c-.96 0-1.782-.156-2.466-.468-.684-.312-1.248-.72-1.692-1.224a4.76 4.76 0 0 1-.972-1.71 6.385 6.385 0 0 1-.306-1.962v-9.288h-1.98v-3.564h1.98V44.24h4.68v5.544h3.312v3.564H94.89v9c0 1.128.54 1.692 1.62 1.692h1.692V68h-2.556zm16.008 0v-1.62c-.624.624-1.278 1.08-1.962 1.368-.684.288-1.566.432-2.646.432-2.088 0-3.684-.552-4.788-1.656a5.336 5.336 0 0 1-1.152-1.872 6.746 6.746 0 0 1-.396-2.34c0-.744.132-1.446.396-2.106.264-.66.66-1.236 1.188-1.728.528-.492 1.194-.882 1.998-1.17.804-.288 1.746-.432 2.826-.432h4.428v-.936c0-1.032-.27-1.782-.81-2.25-.54-.468-1.434-.702-2.682-.702-.456 0-.852.03-1.188.09-.336.06-.642.15-.918.27-.276.12-.534.276-.774.468s-.48.432-.72.72l-2.988-2.916c.912-1.008 1.878-1.692 2.898-2.052 1.02-.36 2.31-.54 3.87-.54 2.64 0 4.632.552 5.976 1.656 1.344 1.104 2.016 2.76 2.016 4.968V68h-4.572zm-.108-7.92h-3.708c-.84 0-1.488.186-1.944.558-.456.372-.684.894-.684 1.566 0 .648.222 1.17.666 1.566.444.396 1.122.594 2.034.594.648 0 1.2-.048 1.656-.144.456-.096.888-.348 1.296-.756.456-.432.684-1.224.684-2.376V60.08zM126.258 68c-.96 0-1.788-.156-2.484-.468-.696-.312-1.266-.72-1.71-1.224a4.76 4.76 0 0 1-.972-1.71 6.385 6.385 0 0 1-.306-1.962V42.368h4.68v19.98c0 .552.126.972.378 1.26.252.288.678.432 1.278.432h1.8V68h-2.664zm27.804-2.34c-.84.864-1.758 1.506-2.754 1.926-.996.42-2.142.63-3.438.63-.936 0-1.902-.144-2.898-.432a6.764 6.764 0 0 1-2.7-1.53c-.804-.732-1.47-1.716-1.998-2.952s-.792-2.802-.792-4.698c0-1.896.264-3.462.792-4.698.528-1.236 1.194-2.214 1.998-2.934a6.868 6.868 0 0 1 2.7-1.512 10.413 10.413 0 0 1 2.898-.432c1.296 0 2.442.204 3.438.612.996.408 1.914 1.044 2.754 1.908l-3.168 3.168c-.48-.528-.948-.906-1.404-1.134-.456-.228-.996-.342-1.62-.342-1.104 0-1.992.408-2.664 1.224-.36.456-.624 1.008-.792 1.656-.168.648-.252 1.476-.252 2.484 0 1.92.348 3.312 1.044 4.176.672.816 1.56 1.224 2.664 1.224.624 0 1.164-.114 1.62-.342.456-.228.924-.606 1.404-1.134l3.168 3.132zm13.524-11.304a4.64 4.64 0 0 0-1.08-.828c-.36-.192-.828-.288-1.404-.288-.36 0-.72.066-1.08.198a2.66 2.66 0 0 0-.972.63 3.3 3.3 0 0 0-.702 1.08c-.18.432-.27.948-.27 1.548V68h-4.68V49.244h4.572v1.8c.456-.552 1.104-1.026 1.944-1.422.84-.396 1.764-.594 2.772-.594.912 0 1.716.132 2.412.396s1.368.72 2.016 1.368l-3.528 3.564zm8.448 5.724c0 1.224.354 2.226 1.062 3.006.708.78 1.722 1.17 3.042 1.17 1.032 0 1.848-.144 2.448-.432.6-.288 1.2-.732 1.8-1.332l2.844 2.772c-.48.48-.96.9-1.44 1.26s-1.002.666-1.566.918a8.59 8.59 0 0 1-1.854.576 11.82 11.82 0 0 1-2.268.198 12.06 12.06 0 0 1-3.222-.432 6.716 6.716 0 0 1-2.772-1.53c-.804-.732-1.452-1.716-1.944-2.952s-.738-2.802-.738-4.698c0-1.536.198-2.898.594-4.086.396-1.188.954-2.19 1.674-3.006a7.04 7.04 0 0 1 2.574-1.854c.996-.42 2.106-.63 3.33-.63 1.296 0 2.454.228 3.474.684a7.389 7.389 0 0 1 2.574 1.872c.696.792 1.224 1.734 1.584 2.826.36 1.092.54 2.286.54 3.582v2.088h-11.736zm7.128-3.204a7.833 7.833 0 0 0-.126-1.062c-.06-.3-.162-.618-.306-.954a3.61 3.61 0 0 0-1.17-1.386c-.516-.372-1.17-.558-1.962-.558s-1.446.186-1.962.558a3.61 3.61 0 0 0-1.17 1.386 4.853 4.853 0 0 0-.306.954c-.06.3-.102.654-.126 1.062h7.128zM201.402 68v-1.62c-.624.624-1.278 1.08-1.962 1.368-.684.288-1.566.432-2.646.432-2.088 0-3.684-.552-4.788-1.656a5.336 5.336 0 0 1-1.152-1.872 6.746 6.746 0 0 1-.396-2.34c0-.744.132-1.446.396-2.106.264-.66.66-1.236 1.188-1.728.528-.492 1.194-.882 1.998-1.17.804-.288 1.746-.432 2.826-.432h4.428v-.936c0-1.032-.27-1.782-.81-2.25-.54-.468-1.434-.702-2.682-.702-.456 0-.852.03-1.188.09-.336.06-.642.15-.918.27-.276.12-.534.276-.774.468s-.48.432-.72.72l-2.988-2.916c.912-1.008 1.878-1.692 2.898-2.052 1.02-.36 2.31-.54 3.87-.54 2.64 0 4.632.552 5.976 1.656 1.344 1.104 2.016 2.76 2.016 4.968V68h-4.572zm-.108-7.92h-3.708c-.84 0-1.488.186-1.944.558-.456.372-.684.894-.684 1.566 0 .648.222 1.17.666 1.566.444.396 1.122.594 2.034.594.648 0 1.2-.048 1.656-.144.456-.096.888-.348 1.296-.756.456-.432.684-1.224.684-2.376V60.08zM216.582 68c-.96 0-1.782-.156-2.466-.468-.684-.312-1.248-.72-1.692-1.224a4.76 4.76 0 0 1-.972-1.71 6.385 6.385 0 0 1-.306-1.962v-9.288h-1.98v-3.564h1.98V44.24h4.68v5.544h3.312v3.564h-3.312v9c0 1.128.54 1.692 1.62 1.692h1.692V68h-2.556zm6.504 0V49.244h4.68V68h-4.68zm-.072-21.96v-3.816h4.788v3.816h-4.788zm24.756 12.564c0 1.704-.144 3.126-.432 4.266a6.79 6.79 0 0 1-1.692 3.042c-.576.624-1.344 1.164-2.304 1.62-.96.456-2.136.684-3.528.684s-2.562-.228-3.51-.684c-.948-.456-1.71-.996-2.286-1.62a6.79 6.79 0 0 1-1.692-3.042c-.288-1.14-.432-2.562-.432-4.266 0-1.704.144-3.12.432-4.248.288-1.128.852-2.136 1.692-3.024.576-.624 1.338-1.164 2.286-1.62.948-.456 2.118-.684 3.51-.684s2.568.228 3.528.684c.96.456 1.728.996 2.304 1.62.84.888 1.404 1.896 1.692 3.024.288 1.128.432 2.544.432 4.248zm-4.68 0c0-.984-.06-1.866-.18-2.646-.12-.78-.42-1.41-.9-1.89-.552-.552-1.284-.828-2.196-.828-.888 0-1.608.276-2.16.828-.48.48-.78 1.11-.9 1.89-.12.78-.18 1.662-.18 2.646s.06 1.872.18 2.664.42 1.428.9 1.908c.552.552 1.272.828 2.16.828.912 0 1.644-.276 2.196-.828.48-.48.78-1.116.9-1.908.12-.792.18-1.68.18-2.664zM262.842 68V56.66c0-.648-.09-1.188-.27-1.62-.18-.432-.42-.78-.72-1.044a2.825 2.825 0 0 0-1.008-.576 3.563 3.563 0 0 0-1.098-.18c-.36 0-.726.06-1.098.18-.372.12-.708.312-1.008.576-.3.264-.546.612-.738 1.044-.192.432-.288.972-.288 1.62V68h-4.68V49.244h4.572v1.728a6.091 6.091 0 0 1 2.16-1.458 6.77 6.77 0 0 1 2.52-.486c.936 0 1.776.144 2.52.432.744.288 1.38.696 1.908 1.224.768.768 1.278 1.59 1.53 2.466.252.876.378 1.83.378 2.862V68h-4.68z" fill-rule="evenodd"/></symbol><symbol id="twitter" viewBox="0 0 32 32"><path d="M30.72 6.469a12.078 12.078 0 0 1-3.47.952 6.049 6.049 0 0 0 2.656-3.341 12.114 12.114 0 0 1-3.834 1.466 6.033 6.033 0 0 0-4.41-1.907 6.04 6.04 0 0 0-5.883 7.414 17.141 17.141 0 0 1-12.448-6.31 6.036 6.036 0 0 0 1.867 8.064 6.016 6.016 0 0 1-2.736-.755v.075a6.047 6.047 0 0 0 4.845 5.923 6.044 6.044 0 0 1-2.728.104c.768 2.4 3 4.146 5.642 4.194a12.11 12.11 0 0 1-7.501 2.586c-.488 0-.968-.029-1.44-.085a17.087 17.087 0 0 0 9.259 2.714c11.109 0 17.184-9.203 17.184-17.186a15.6 15.6 0 0 0-.018-.781 12.272 12.272 0 0 0 3.014-3.126z"/></symbol><symbol id="user" viewBox="0 0 45 46"><title>Icon</title><g fill-rule="evenodd" stroke-linecap="round"><path d="M42.25 36c0-6.627-8.954-12-20-12s-20 5.373-20 12"/><path d="M22.25 24.009c6.075 0 11-4.925 11-11s-4.925-11-11-11-11 4.925-11 11 4.925 11 11 11zM42 36v6.565c0 .586-.199 1.435-.779 1.435H3.279C2.711 44 2 43.144 2 42.565V36"/></g></symbol><symbol id="works" viewBox="0 0 115 26"><title>Group</title><g fill-rule="evenodd"><path d="M21 25h-3.7l-3.8-11.4L9.6 25H5.9L.3 6.8h4.8L8 18l3.7-11.3H15L18.8 18l2.9-11.3h4.8zM47.8 15.8c0 1.7-.1 3-.4 4.1-.3 1.1-.8 2.1-1.6 3-.6.6-1.3 1.1-2.2 1.6-.9.4-2.1.7-3.4.7-1.4 0-2.5-.2-3.4-.7-.9-.4-1.7-1-2.2-1.6-.8-.9-1.4-1.8-1.6-3-.3-1.1-.4-2.5-.4-4.1 0-1.6.1-3 .4-4.1.3-1.1.8-2.1 1.6-2.9.6-.6 1.3-1.1 2.2-1.6.9-.5 2.1-.7 3.4-.7 1.4 0 2.5.2 3.4.7.9.4 1.7 1 2.2 1.6.8.9 1.4 1.8 1.6 2.9.3 1.1.4 2.5.4 4.1zm-4.6 0c0-1-.1-1.8-.2-2.6s-.4-1.4-.9-1.8c-.5-.5-1.2-.8-2.1-.8-.9 0-1.6.3-2.1.8s-.8 1.1-.9 1.8c-.1.8-.2 1.6-.2 2.6s.1 1.8.2 2.6.4 1.4.9 1.9 1.2.8 2.1.8c.9 0 1.6-.3 2.1-.8s.8-1.1.9-1.9c.2-.7.2-1.6.2-2.6zM65.9 11.7c-.4-.4-.7-.6-1-.8-.4-.2-.8-.3-1.4-.3-.4 0-.7.1-1 .2-.4.1-.7.3-.9.6-.3.3-.5.6-.7 1-.2.4-.3.9-.3 1.5v11H56V6.7h4.4v1.8c.4-.5 1.1-1 1.9-1.4.8-.4 1.7-.6 2.7-.6.9 0 1.7.1 2.3.4.7.3 1.3.7 2 1.3l-3.4 3.5zM87.3 25l-4.5-7.6-1.9 2.2V25h-4.5V.1h4.5v14.1L87 6.7h5.5L86 14.1 93 25zM114.2 19.2c0 1-.2 1.9-.6 2.6-.4.7-.9 1.4-1.6 1.9-.7.5-1.5.9-2.5 1.1-.9.2-2 .4-3 .4-.7 0-1.4 0-2.1-.1-.7-.1-1.3-.2-2-.4s-1.3-.4-1.9-.8c-.6-.4-1.2-.8-1.8-1.4l3-3c.7.7 1.6 1.2 2.5 1.4.9.2 1.7.3 2.4.3.4 0 .8 0 1.2-.1.4-.1.7-.2 1-.3.3-.2.5-.3.7-.6.2-.3.3-.5.3-.9 0-.5-.1-.8-.4-1.1-.3-.3-.8-.5-1.5-.5l-2.9-.3c-1.7-.2-3-.6-3.9-1.4-.9-.8-1.4-2-1.4-3.7 0-.9.2-1.8.6-2.5.4-.7.9-1.3 1.5-1.8s1.4-.9 2.2-1.1c.9-.3 1.7-.4 2.7-.4 1.4 0 2.7.2 3.9.5 1.2.3 2.2.9 3.1 1.7l-2.8 2.8c-.5-.5-1.2-.8-1.9-1-.7-.2-1.5-.3-2.3-.3-.9 0-1.6.2-2 .5-.4.3-.6.8-.6 1.2 0 .2 0 .3.1.5 0 .2.1.3.3.5.1.1.3.3.6.4.2.1.6.2 1 .2l2.9.3c1.8.2 3.2.7 4.1 1.7.7 1 1.1 2.2 1.1 3.7z"/></g></symbol></svg>